<svg width="1175" height="2236" viewBox="0 0 1175 2236" fill="none" xmlns="http://www.w3.org/2000/svg">
<g clip-path="url(#clip0_1433_37097)">
<path d="M23.2863 1122.16L100.996 1092.78C104.376 1120.63 107.766 1148.48 111.146 1176.32C112.256 1185.49 112.146 1194.48 112.476 1203.7C112.626 1207.83 112.636 1211.81 113.196 1215.88C114.086 1222.36 114.856 1229.44 116.176 1235.83C117.586 1242.63 119.986 1249.51 121.576 1256.21C123.376 1263.79 129.556 1341.92 131.236 1341.74L70.9163 1347.91L23.2762 1122.16H23.2863Z" fill="url(#paint0_linear_1433_37097)"/>
<path d="M65.3765 1349.63L17.7365 1123.88L16.3865 1117.51L21.5764 1115.54L99.2864 1086.16L105.696 1083.74L106.676 1091.78L118.616 1190.07C116.576 1189.05 114.526 1188.07 112.466 1187.14L101.006 1092.79L23.2964 1122.17L70.9364 1347.92L131.256 1341.75L122.966 1273.5C124.046 1274.69 125.446 1275.46 127.156 1275.57C127.756 1275.61 128.376 1275.52 128.976 1275.35L136.926 1340.75L137.816 1348.05L131.736 1348.67L71.4164 1354.84L66.5764 1355.34L65.3765 1349.65V1349.63Z" fill="#1A1A1A"/>
<path d="M75.0449 1095.77L70.0549 1081.23L38.1949 1091.92L36.825 1110.02L75.0449 1095.77Z" fill="#C8B0C3"/>
<path d="M31.1156 1109.39L32.4856 1091.29L32.8456 1086.52L36.6655 1085.24L68.5255 1074.55L73.4055 1072.92L75.3456 1078.58L80.3456 1093.12L82.7656 1100.17L76.7356 1102.42L38.5056 1116.67L30.3256 1119.72L31.1056 1109.41L31.1156 1109.39ZM75.0555 1095.77L70.0555 1081.23L38.1956 1091.92L36.8256 1110.02L75.0555 1095.77V1095.77Z" fill="#1A1A1A"/>
<path d="M59.6777 1077.87L54.8678 1063.99L43.9277 1066.51L43.9177 1081.49L59.6777 1077.87Z" fill="#C8B0C3"/>
<path d="M38.187 1081.49V1066.5V1060.76L42.847 1059.69L53.787 1057.18L58.347 1056.13L60.1471 1061.31L64.967 1075.19L67.707 1083.09L60.7471 1084.69L44.9871 1088.31L38.187 1089.87V1081.49ZM59.677 1077.87L54.8571 1063.99L43.917 1066.51V1081.49L59.677 1077.87Z" fill="#1A1A1A"/>
<path d="M3.89539 1106.48C4.80539 1096.14 12.7054 1092.03 22.1354 1088.09C22.2654 1088.04 22.5253 1087.98 22.8553 1087.92C23.3653 1088.11 23.9253 1088.23 24.5653 1088.26C27.8753 1088.36 30.9853 1088.2 34.2053 1087.41C36.0253 1086.96 37.1853 1085.79 37.7253 1084.38C44.9053 1084.75 52.1953 1085.5 59.0653 1083.2C63.4653 1083.75 67.4454 1078.66 63.7354 1074.74C61.3854 1072.26 56.1554 1068.2 53.1154 1063.94C53.0054 1063.68 52.9053 1063.41 52.7953 1063.15C52.7553 1061.54 52.7953 1059.94 52.9753 1058.38C55.2053 1054.94 59.2654 1052.87 63.3654 1051.44C63.7854 1051.29 64.1653 1051.09 64.5253 1050.86C66.0653 1050.6 67.7153 1050.5 69.4553 1050.57C74.2653 1050.75 79.2553 1052.23 82.7953 1054.53C96.3253 1063.29 106.735 1075.07 117.995 1088.44C121.505 1092.61 124.595 1097.84 128.015 1105.37C135.065 1120.88 147.605 1131.58 158.665 1141.02C171.185 1151.69 184.105 1161.56 193.965 1168.96C204.675 1176.99 215.625 1184.46 225.935 1191.43C242.165 1202.39 258.425 1213.15 274.265 1223.44C281.615 1228.21 289.375 1232.6 296.255 1236.48C296.885 1236.82 297.575 1237.08 298.325 1237.26L303.155 1238.42L302.055 1233.58C300.575 1227.06 300.655 1220.45 302.305 1213.93C303.435 1209.47 303.445 1206.22 302.335 1203.71C301.185 1201.13 299.585 1198.87 298.025 1196.7C296.845 1195.05 295.735 1193.49 294.865 1191.86C292.465 1187.37 290.065 1182.76 287.755 1178.18C285.405 1173.54 283.105 1168.9 280.885 1164.28C278.475 1159.64 276.185 1154.84 274.125 1150.05C263.585 1124.5 257.065 1099.03 254.735 1074.3C254.055 1068.22 253.425 1061.71 252.815 1054.41C252.345 1048.04 252.065 1042.75 251.945 1037.77C251.815 1031.7 252.035 1025.3 252.585 1018.75C253.095 1012.68 253.905 1006.27 255.005 999.705C256.535 990.425 258.835 981.125 262.055 971.255C267.175 957.285 272.305 945.025 277.725 933.775C279.695 929.685 281.755 925.635 283.825 921.745L283.885 921.635L283.935 921.525C287.945 912.295 293.825 903.045 301.905 893.235C305.135 889.315 308.775 885.235 313.365 880.405L313.445 880.315C330.935 860.375 353.445 841.245 382.315 821.805C386.525 818.825 390.765 816.015 394.905 813.455C409.715 804.325 422.905 798.695 436.435 795.735L439.725 795.015L438.715 791.795C436.245 783.895 437.675 775.215 442.655 767.955C447.455 760.965 454.595 756.665 462.235 756.175C463.545 756.095 464.855 756.075 466.125 756.125C473.875 756.415 481.135 759.115 488.325 764.375C489.565 765.275 490.785 766.295 492.075 767.375C495.415 770.165 498.865 773.035 503.095 774.275C511.545 776.715 520.215 778.725 528.615 780.685C536.615 782.545 544.895 784.475 552.885 786.745C557.115 787.945 561.365 789.125 565.615 790.305C583.735 795.335 602.455 800.525 619.915 807.725C624.155 809.485 628.415 811.535 632.575 813.815C636.515 815.975 640.415 818.365 644.505 821.115L644.595 821.165C657.245 829.085 668.325 839.785 679.035 850.135C681.805 852.805 684.665 855.565 687.455 858.195C690.315 861.015 693.215 864.165 696.085 867.575C698.695 870.675 701.285 873.985 704.005 877.715C705.925 880.325 707.875 882.915 709.825 885.505C712.515 889.085 715.305 892.785 717.985 896.515C726.375 907.585 733.055 920.885 739.005 938.375C740.545 942.905 742.055 947.755 743.785 953.665L743.825 953.805C751.755 976.845 755.555 1002.47 755.425 1032.17C755.475 1037.22 755.465 1042.39 755.375 1047.97C755.295 1052.63 755.125 1057.26 754.875 1061.72C754.565 1064.92 754.275 1068.16 753.985 1071.43C753.725 1074.34 753.465 1077.27 753.185 1080.21C749.745 1105.21 743.635 1137.46 726.805 1165.36C723.675 1170.74 720.845 1176.22 718.735 1180.38C717.835 1182.16 716.955 1183.92 716.085 1185.64C714.575 1188.64 713.125 1191.54 711.715 1194.25L708.765 1199.92L715.045 1198.7C718.845 1197.96 722.725 1197.2 726.645 1196.42C734.645 1194.85 742.915 1193.22 751.155 1191.69C755.905 1190.82 760.085 1190.12 763.935 1189.56C768.535 1188.88 772.705 1188.38 776.685 1188.02C781.225 1187.61 785.415 1187.38 789.505 1187.31C792.245 1187.26 794.985 1187.28 797.665 1187.39C799.255 1187.45 800.855 1187.54 802.415 1187.65C832.965 1189.92 859.765 1200.9 882.055 1220.31C898.255 1234.4 904.415 1255.27 908.905 1273.73C911.855 1285.9 913.855 1298.6 915.795 1310.87C916.545 1315.63 917.325 1320.56 918.155 1325.4C920.795 1340.92 923.835 1358.96 926.635 1376.64C927.795 1383.94 928.505 1391.47 929.195 1398.74C930.425 1411.69 931.685 1425.08 935.495 1438.18C937.645 1445.56 938.185 1453.35 938.625 1462.04L938.685 1463.25L939.545 1464.09C941.675 1466.17 943.695 1468.04 945.725 1469.8C953.615 1476.6 962.545 1482.69 972.265 1487.89C980.185 1492.12 988.385 1496.03 996.315 1499.8C1009.14 1505.9 1022.38 1512.21 1034.55 1519.96C1037.95 1522.13 1041.76 1524.12 1045.44 1526.06C1059.07 1533.22 1071.94 1539.98 1070.42 1556.18C1068.73 1574.2 1058.99 1587.14 1042.25 1593.63C1030.18 1598.31 1016.35 1600.4 1001.15 1599.83C996.865 1599.67 992.425 1599.29 987.945 1598.71C984.025 1598.2 979.835 1597.3 975.395 1596.34C968.585 1594.87 961.535 1593.35 954.585 1593.09C952.135 1593 949.805 1593.07 947.635 1593.3L944.875 1593.6V1596.37C944.905 1617.81 942.295 1633.94 936.385 1648.66C935.835 1650.04 935.285 1651.43 934.725 1652.81C931.165 1661.75 927.495 1670.99 922.855 1679.41C915.975 1691.89 903.755 1699.22 891.845 1705.66C887.185 1708.17 881.155 1710.16 875.345 1711.93L871.235 1713.18L873.735 1716.68C874.785 1718.16 875.795 1719.7 876.735 1721.29C882.545 1731.08 885.935 1742.52 889.185 1754.36C890.135 1757.86 891.035 1761.37 891.955 1764.97L892.015 1765.22C894.015 1773.06 896.085 1781.16 898.875 1788.97C900.755 1794.24 903.265 1799.65 906.335 1805.03C907.035 1806.28 907.645 1807.57 908.365 1809.14L908.525 1809.48C909.025 1810.55 909.535 1811.66 910.125 1812.74C910.645 1813.71 911.215 1814.6 911.855 1815.57C912.545 1816.63 913.215 1817.67 913.695 1818.73L914.395 1820.25L916.045 1820.5C937.415 1823.71 957.165 1835.64 970.165 1844.34C975.505 1847.91 980.855 1851.69 986.035 1855.34L986.645 1855.77C993.365 1860.51 1000.32 1865.42 1007.37 1869.96C1014.56 1874.59 1021.32 1878.44 1028.04 1881.76C1030.65 1883.05 1033.31 1884.17 1036.25 1885.4C1038.73 1886.44 1041.15 1887.47 1043.52 1888.6L1044.97 1889.3L1046.37 1888.51C1048.08 1887.54 1049.74 1886.75 1051.43 1886.08C1058.37 1883.32 1065.1 1882.04 1071.45 1882.28C1073.74 1882.37 1076 1882.65 1078.19 1883.12C1090.85 1885.81 1100.67 1896.8 1108.19 1916.72C1111.28 1924.91 1113.21 1933.69 1115.08 1942.2C1117.04 1951.12 1119.06 1960.33 1122.47 1969.04C1127.89 1982.96 1136.46 1995.34 1144.75 2007.3C1148.69 2012.99 1152.77 2018.88 1156.44 2024.85C1169.42 2045.98 1173.79 2065.37 1169.81 2084.12C1164.88 2107.37 1147.11 2126.13 1136.95 2135.26C1129.27 2142.17 1114.03 2153.67 1098.29 2153.08C1095 2152.96 1091.8 2152.3 1088.79 2151.14C1081.27 2148.22 1074.91 2141.65 1069.9 2131.61C1065.96 2123.73 1062.66 2115.31 1059.43 2107.11C1057.6 2102.43 1055.52 2097.13 1053.33 2092.04C1049.74 2083.74 1045.35 2075.84 1041.1 2068.2C1035.6 2058.32 1029.91 2048.11 1026.12 2037.16C1025.09 2034.18 1024.09 2030.92 1023.07 2027.19L1022.9 2026.58L1022.51 2026.08C1021.98 2025.42 1021.35 2024.64 1020.64 2023.9C1015.1 2018.09 1008.57 2013.47 1003.51 2010.1C998.115 2006.5 992.065 2003.09 984.455 1999.33C983.665 1998.94 982.865 1998.56 982.095 1998.19L981.195 1997.76C978.775 1996.61 976.495 1995.52 974.335 1994.23L970.105 1998.47C977.355 2010.52 982.455 2024.42 987.065 2037.62C987.855 2039.87 988.615 2042.13 989.385 2044.38L989.475 2044.65C991.195 2049.73 992.985 2054.98 994.975 2060.08C999.285 2071.04 1004.69 2082.23 1011.5 2094.26C1013.53 2097.85 1015.63 2101.47 1017.66 2104.98L1018.17 2105.86C1028.81 2124.23 1039.82 2143.23 1045.98 2163.94C1050.23 2178.25 1055.13 2204.79 1040.18 2221.65C1032.91 2229.84 1021.05 2233.51 1003.91 2232.86C1001.72 2232.78 999.375 2232.62 996.965 2232.39C987.235 2231.46 977.695 2229.45 969.635 2227.6L965.075 2226.58C957.775 2224.94 950.225 2223.24 943.255 2220.74C926.385 2214.68 914.915 2202.22 908.205 2182.65C905.705 2175.35 903.715 2167.49 901.945 2160.54L901.505 2158.82C901.175 2157.54 900.845 2156.26 900.515 2154.98C899.565 2151.3 898.505 2147.61 897.485 2144.04L897.445 2143.9C896.695 2141.3 895.815 2138.24 894.995 2135.19L894.795 2134.45L893.775 2133.36C893.005 2132.54 892.245 2131.72 891.425 2130.88C847.175 2087.27 790.715 2061.65 736.095 2036.87C714.925 2027.27 690.935 2016.39 668.645 2004.65C657.005 1997.04 648.745 1990.73 641.045 1983.57L640.965 1983.5L640.885 1983.43C632.795 1976.85 624.685 1969.72 616.765 1962.23C609.165 1955.04 601.155 1946.96 591.475 1936.73C543.765 1889.2 501.675 1833.33 455.015 1755.62C453.305 1751.44 451.435 1747.42 449.455 1743.65C449.455 1743.45 449.455 1743.24 449.455 1743.04V1742.16L448.975 1741.41C435.835 1720.74 423.745 1698.87 412.055 1677.72C410.475 1674.87 408.905 1672.02 407.365 1669.25C402.815 1660.4 398.505 1651.34 394.585 1642.32C386.525 1623.79 379.805 1604.87 374.615 1586.18C373.655 1582.3 372.695 1578.21 371.605 1573.3C370.765 1567.01 369.855 1560.84 369.165 1556.14L368.605 1552.42C367.935 1547.93 367.255 1543.44 366.635 1538.95L366.605 1538.78C365.715 1534.2 365.115 1529.04 364.685 1522.05C364.455 1518.35 364.405 1514.39 364.355 1510.19C364.265 1502.42 364.175 1494.38 362.915 1486.67C360.385 1462.06 338.145 1451.75 318.515 1442.65C311.065 1439.19 304.025 1435.93 298.095 1432.05C293.535 1429.08 288.955 1425.85 284.475 1422.47C271.905 1412.97 259.495 1401.69 247.585 1388.93C240.175 1381 233.265 1372.41 226.575 1364.1C225.105 1362.27 223.605 1360.42 222.105 1358.51C220.005 1356.41 220.115 1353.38 218.345 1352.1C214.515 1349.22 212.065 1345.64 209.615 1342.14C208.795 1340.97 207.985 1339.81 207.125 1338.68C202.335 1332.53 197.825 1325.87 192.755 1319.95C191.485 1318.47 190.185 1317.04 188.835 1315.66C183.305 1308.54 177.795 1301.38 171.505 1295.09C169.935 1293.52 168.305 1292 166.645 1290.51C165.825 1289.26 164.995 1288.03 164.155 1286.81C163.305 1285.59 162.455 1284.39 161.585 1283.2C147.535 1266.89 136.075 1248.86 123.365 1231.29C122.035 1229.68 120.665 1228.11 119.245 1226.58C114.975 1222.01 110.235 1217.87 104.775 1214.42C103.155 1212.9 101.605 1211.44 100.035 1210.07C93.7653 1204.6 87.3253 1200.64 80.4153 1197.96C78.9353 1197.38 77.2854 1197.07 75.3654 1197C73.3954 1196.93 71.4053 1197.11 69.4753 1197.29C67.6153 1197.46 65.8553 1197.63 64.2053 1197.57C63.8053 1197.55 63.4054 1197.53 63.0054 1197.48C57.9054 1196.88 52.5953 1196.1 48.7753 1193.72C44.3453 1190.98 40.4653 1186.43 36.9353 1179.83C35.1053 1176.37 31.7153 1173.05 27.8253 1170.92L27.4353 1170.71C24.4753 1169.12 23.2454 1168.45 22.7354 1165.63C21.6754 1159.68 19.7753 1153.45 16.6053 1145.41C14.5753 1140.27 11.5354 1135.62 9.12537 1132.15C4.51537 1125.51 2.88535 1117.59 3.85535 1106.46L3.89539 1106.48Z" fill="white"/>
<path d="M809.596 1734.46C809.526 1734.39 809.446 1734.32 809.366 1734.25C809.316 1734.17 809.366 1734.22 809.596 1734.46Z" fill="#C8B0C3"/>
<path d="M1046.23 2056.79C1044.56 2055.04 1042.68 2053.42 1041.15 2051.62C1038.99 2049.09 1037.26 2045.7 1035.67 2042.79C1033.02 2037.91 1031.18 2032.57 1030.17 2027.09C1029.38 2025.69 1028.72 2024.31 1028.24 2023.3C1025.91 2018.37 1024.59 2012.36 1023.95 2006.97C1023.49 2003.15 1023.14 1993.81 1028.68 1996.09C1027.64 1992.45 1026.48 1988.86 1025.07 1985.33C1024.65 1984.28 1026.03 1983.48 1026.64 1984.48C1032.2 1993.62 1037.18 2002.74 1041.51 2012.55C1045.71 2022.07 1048.3 2032.36 1051.34 2042.29C1054.52 2052.64 1057.94 2062.84 1062.39 2072.72C1062.58 2073.15 1062.79 2073.57 1062.98 2073.99C1064.03 2075.24 1065.05 2076.51 1065.97 2077.87C1072.57 2087.61 1077.32 2098.37 1083.53 2108.34C1088.5 2116.32 1094.05 2123.77 1101.68 2128.88C1108.86 2133.69 1117.39 2129.38 1125.27 2127.76C1125.97 2127.62 1126.72 2128.28 1126.45 2129.02C1123.28 2137.47 1115.41 2141.93 1106.98 2142.5C1106.82 2145.02 1105.09 2147.47 1102.16 2147.07C1097.87 2146.48 1094.29 2144.28 1091.2 2141.32C1090.84 2140.97 1090.5 2140.62 1090.17 2140.24C1089.34 2140.61 1088.42 2140.85 1087.33 2140.88C1083.63 2140.98 1080.48 2140.03 1077.61 2137.68C1074.09 2134.8 1072.5 2131.5 1071.27 2127.17C1070.21 2123.47 1070.68 2120.55 1071.3 2117.37C1065.45 2108.31 1060.67 2098.3 1056.96 2088.34C1055.81 2085.26 1055.1 2082.17 1054.45 2079.06C1054.43 2079.01 1054.41 2078.96 1054.38 2078.9C1051.34 2071.67 1048.7 2064.25 1046.24 2056.78L1046.23 2056.79ZM1029.1 1998.07C1027.74 1997.27 1027.41 1996.68 1027.71 1998.05C1027.96 1999.19 1028.37 2000.21 1028.85 2001.26C1029.65 2003.02 1030.54 2004.75 1031.43 2006.47C1030.73 2003.68 1030.03 2000.89 1029.27 1998.12C1029.21 1998.1 1029.15 1998.1 1029.09 1998.07H1029.1Z" fill="#C8B0C3"/>
<path d="M906.497 2178.84C906.397 2176.28 906.537 2173.78 907.107 2171.29C907.517 2169.52 909.397 2169.17 910.807 2169.79C910.417 2166.24 910.467 2162.71 910.237 2159.05C909.507 2147.61 910.027 2136.1 909.057 2124.69C909.027 2124.33 909.587 2124.3 909.677 2124.63C912.417 2134.76 913.797 2145.13 916.277 2155.3C918.487 2164.38 922.537 2174.67 928.937 2181.64C934.847 2188.07 943.487 2190.99 951.297 2194.38C955.777 2196.32 960.227 2198.35 964.487 2200.74C965.807 2201.48 967.097 2202.34 968.217 2203.36C975.627 2204.77 983.037 2206.21 990.217 2208.45C998.447 2211.02 1007.9 2215.67 1016.77 2214.77C1025.09 2213.93 1029.47 2207.46 1031.09 2199.9C1032.95 2191.22 1031.63 2181.64 1030.35 2172.98C1029.08 2164.42 1028.14 2156.01 1025.3 2147.78C1025.07 2147.1 1026.17 2146.7 1026.47 2147.34C1030.55 2156.28 1035.92 2164.56 1039.37 2173.78C1042.99 2183.43 1045.18 2194.31 1043.48 2204.58C1041.74 2215.07 1036.42 2224.8 1026.46 2229.44C1014.96 2234.8 1001.92 2231.78 990.327 2228.45C979.737 2225.41 969.337 2222.61 958.547 2220.37C950.217 2218.64 941.777 2217.1 933.807 2214.04C925.907 2211 918.917 2206.31 913.607 2199.66C910.167 2195.35 908.157 2190.95 906.797 2185.63C906.427 2184.19 906.327 2182.77 906.307 2181.28C906.257 2175.34 906.687 2183.94 906.487 2178.83L906.497 2178.84Z" fill="#C8B0C3"/>
<path d="M734.246 1121.62C726.146 1150.14 714.866 1179.8 695.276 1202.51C694.106 1203.87 692.426 1203.76 691.176 1202.92C688.606 1205.71 685.916 1208.42 683.116 1211.02C678.396 1215.4 673.256 1219.26 667.976 1222.94C665.356 1224.77 662.636 1226.6 659.766 1228.02C655.986 1229.88 652.586 1229.71 648.536 1229.53C645.956 1229.41 643.806 1227.71 642.816 1225.53C635.006 1229.9 626.816 1233.47 618.396 1235.78C614.576 1236.83 609.826 1238.07 605.176 1238.38C603.606 1239.27 602.036 1240.15 600.446 1241.01C595.896 1243.45 590.986 1246.68 586.096 1248.3C576.376 1251.51 566.246 1253.25 556.316 1255.66C551.316 1256.87 546.376 1258.2 541.496 1259.81C537.006 1261.29 532.616 1263.61 527.796 1263.62C526.426 1263.62 525.356 1262.92 524.716 1261.91C517.086 1265.59 509.396 1269.09 501.696 1272.62C501.926 1273.7 501.786 1274.91 501.246 1276.04C500.576 1277.44 499.546 1278.58 498.446 1279.67C494.726 1287.96 481.366 1288.58 473.406 1288.96C472.036 1289.03 470.666 1289.05 469.296 1289.04C466.896 1290.14 464.376 1291.11 461.716 1291.96C455.376 1294.01 449.106 1295.38 442.476 1296.12C438.416 1296.57 433.386 1297.33 429.016 1296.44C425.806 1296.78 422.226 1296.2 419.496 1296.04C412.836 1295.67 405.996 1294.21 399.446 1293.03C393.046 1291.88 386.796 1290.11 381.246 1286.65C376.016 1283.39 371.586 1277.82 372.116 1272.31C372.256 1270.93 373.056 1269.99 374.366 1269.57C375.496 1269.22 376.426 1269.2 377.416 1269.33C378.676 1269.06 379.956 1269.02 381.246 1269.12C380.046 1266.89 380.986 1263.5 383.266 1262.35C392.016 1257.97 402.326 1259.05 411.746 1260.74C421.766 1262.54 431.656 1265.01 441.616 1267.13C450.986 1269.12 460.336 1270.88 469.936 1271.19C472.466 1271.27 474.956 1271.17 477.436 1270.92C483.716 1267.48 490.466 1264.63 496.316 1260.93C507.886 1253.62 520.086 1247.22 532.426 1241.28C544.586 1235.42 557.116 1230.15 570.136 1226.55C577.036 1224.64 589.216 1220.92 597.256 1223.63C599.316 1222.51 601.516 1221.64 603.696 1221.01C608.806 1219.52 613.726 1217.68 618.746 1215.92C628.156 1212.61 637.076 1207.58 645.386 1202.12C663.306 1190.36 678.466 1174.22 690.856 1156.86C703.956 1138.52 714.476 1118.11 721.636 1096.74C722.536 1094.06 723.376 1091.35 724.176 1088.61C730.856 1058.49 733.776 1027.37 734.756 996.765C735.016 988.795 735.416 980.345 737.106 972.555C737.376 971.315 739.396 971.115 739.886 972.295C743.346 980.725 744.606 990.485 745.386 999.555C746.276 1009.93 746.726 1020.3 746.706 1030.71C746.706 1040.41 746.236 1050.18 745.376 1059.92C745.506 1080.77 739.726 1102.39 734.266 1121.62H734.246Z" fill="#C8B0C3"/>
<path d="M358.205 1281.1C340.425 1279.95 326.745 1264.14 317.815 1250.08C313.115 1242.69 310.175 1234.17 309.535 1225.44C308.915 1216.89 311.015 1205.99 318.085 1200.32C321.755 1197.38 327.995 1199.43 327.655 1204.71C327.225 1211.18 324.905 1217.22 325.685 1223.86C326.505 1230.94 329.795 1237.42 333.575 1243.36C341.375 1255.64 354.185 1263.53 361.105 1276.46C362.205 1278.51 360.615 1281.23 358.225 1281.08L358.205 1281.1Z" fill="#C8B0C3"/>
<path d="M20.1449 1129.08C20.3749 1129.17 20.6048 1129.3 20.8248 1129.41C23.5548 1129.65 26.3249 1132.31 27.8649 1134.19C31.1349 1138.2 33.5049 1142.63 36.2649 1146.98C41.2849 1154.9 48.3448 1161.83 54.7148 1168.67C58.8148 1173.08 63.4648 1176.51 69.5248 1177.48C73.2448 1178.08 77.0548 1178.14 80.8148 1178.16C82.8348 1178.17 84.5848 1178.23 86.2048 1178.46C87.6848 1178.41 89.1549 1178.33 90.6149 1178.18C94.9749 1177.74 99.3148 1177.17 103.665 1176.73C105.945 1176.5 108.095 1176.62 110.375 1176.79C111.785 1176.9 113.715 1177.73 115.115 1177.29C116.675 1176.79 117.455 1178.85 116.495 1179.86C115.825 1180.57 115.295 1182.19 114.705 1183.13C114.005 1184.26 113.165 1185.28 112.235 1186.21C116.845 1187.63 119.705 1191.73 122.855 1195.21C125.965 1198.66 129.035 1202.17 131.965 1205.78C137.905 1213.08 143.595 1220.58 149.175 1228.16C160.855 1244.03 172.185 1260.21 183.325 1276.46C192.735 1290.18 202.045 1303.98 211.465 1317.69C218.395 1325.8 224.695 1334.56 231.645 1342.53C244.765 1357.55 259.005 1371.58 273.865 1384.87C288.265 1397.75 303.305 1409.85 318.465 1421.83C326.195 1427.93 334.165 1433.71 341.965 1439.71C344.125 1441.37 346.265 1443.04 348.405 1444.72C348.545 1444.76 348.685 1444.81 348.825 1444.89C353.435 1447.44 358.125 1450.44 362.495 1453.34C367.035 1456.34 371.785 1459.03 376.325 1462.06C385.465 1468.18 394.785 1474.02 404.025 1480C413.345 1486.03 422.245 1492.54 430.545 1499.93C437.955 1506.52 447.195 1515.99 446.835 1526.38C446.765 1528.33 444.675 1529.99 442.755 1529.25C441.195 1528.65 439.685 1527.86 438.225 1526.96C438.275 1527.24 438.305 1527.53 438.345 1527.82C440.175 1529.85 441.985 1531.9 443.685 1534.06C448.185 1539.77 452.285 1545.81 456.775 1551.55C465.315 1562.46 473.545 1573.6 482.465 1584.22C500.335 1605.5 520.495 1624.83 541.145 1643.38C576.565 1675.19 604.945 1714.97 644.285 1742.35C653.635 1748.86 663.585 1754.54 674.145 1758.83C674.485 1758.97 674.835 1759.09 675.185 1759.23C675.605 1758.78 676.095 1758.35 676.705 1757.96C678.835 1756.58 681.705 1757.09 684.125 1757.08C687.835 1757.07 687.595 1757.36 691.605 1757.78C692.785 1757.91 693.965 1757.92 695.145 1757.92C695.385 1757.92 695.625 1757.9 695.865 1757.89C696.045 1757.86 698.955 1757.7 699.745 1757.66C700.025 1757.64 700.225 1757.62 700.375 1757.61C700.755 1757.56 701.135 1757.52 701.505 1757.46C703.145 1757.24 704.775 1756.92 706.385 1756.57C712.355 1755.3 718.195 1753.27 723.945 1751.27C725.265 1750.81 726.575 1750.31 727.875 1749.83C727.685 1749.89 731.235 1748.54 731.845 1748.29C735.115 1746.99 738.385 1745.66 741.645 1744.32C754.205 1739.19 766.895 1733.73 780.235 1730.95C786.375 1729.67 792.835 1729.01 799.085 1729.83C801.625 1730.16 804.495 1730.53 806.665 1732.08C807.605 1732.73 808.485 1733.44 809.335 1734.21C809.445 1734.38 810.035 1735.14 810.605 1735.85C811.025 1735.45 811.465 1735.08 811.905 1734.7C816.145 1731.12 821.115 1729.19 826.265 1727.58C826.435 1726.54 826.915 1725.54 827.635 1724.83C828.485 1724 829.295 1723.43 830.385 1722.97C830.685 1722.82 830.905 1722.73 831.075 1722.67C831.785 1721.85 832.625 1721.17 833.605 1720.62C837.085 1718.75 841.555 1719.13 845.275 1719.85C846.265 1720.04 847.235 1720.3 848.195 1720.57C848.715 1720.4 849.235 1720.21 849.735 1720.04C854.285 1718.48 858.975 1715.87 864.105 1714.35C868.225 1713.13 873.055 1717 872.585 1721.33C872.375 1723.2 871.895 1724.94 871.205 1726.55C871.255 1726.6 871.315 1726.65 871.365 1726.7C873.345 1728.81 874.885 1732.22 875.295 1735.6C876.065 1736.24 876.725 1737.05 877.205 1738.03C878.175 1739.99 878.565 1741.89 878.525 1743.71C880.505 1746.4 882.345 1749.16 884.075 1751.97C890.355 1762.18 894.675 1773.41 898.315 1784.79C900.135 1790.49 901.595 1796.09 902.155 1802.07C902.395 1804.64 902.395 1806.98 902.035 1809.53C901.655 1812.25 902.555 1814.74 901.515 1817.46C900.745 1819.49 897.975 1821.05 895.995 1819.47C892.875 1816.96 890.955 1812.84 888.715 1809.56C885.725 1805.17 883.805 1799.8 882.005 1794.85C879.705 1788.52 877.065 1782.26 874.155 1776.15C873.155 1775.15 872.175 1774.15 871.165 1773.32C868.245 1770.94 864.895 1769.51 861.165 1768.98C852.915 1767.81 844.875 1768.7 837.135 1771.94C829.405 1775.18 822.095 1780.18 816.375 1786.32C816.315 1786.38 816.285 1786.41 816.235 1786.46C815.705 1787.13 815.205 1787.84 814.715 1788.54C813.615 1790.12 812.655 1791.79 811.745 1793.48C811.515 1793.91 811.295 1794.37 811.075 1794.81C811.385 1794.22 810.295 1796.57 810.285 1796.61C809.445 1798.6 808.735 1800.66 808.055 1802.71C803.195 1817.53 801.955 1835.67 803.905 1851.17C804.805 1858.37 806.425 1867.01 808.855 1873.36C812.095 1874.93 815.375 1876.49 818.325 1878.51C822.935 1881.68 827.225 1884.87 832.225 1887.42C837.055 1889.88 841.385 1894 845.695 1897.26C850.855 1901.16 855.985 1904.76 860.885 1909.01C869.355 1916.34 877.695 1923.72 885.975 1931.26C890.005 1934.93 893.785 1938.83 898.005 1942.28C901.915 1945.48 906.465 1948.92 909.275 1953.24C911.885 1953.65 914.115 1954.34 916.555 1955.41C921.395 1957.55 926.425 1959.18 931.465 1960.73C942.335 1964.08 953.435 1966.63 964.315 1969.94C966.645 1970.65 968.965 1971.39 971.275 1972.16C977.565 1973.64 983.745 1976.31 987.575 1978.2C988.015 1978.42 988.465 1978.64 988.915 1978.86C991.305 1979.91 993.675 1981.02 996.015 1982.19C997.925 1983.15 999.765 1984.23 1001.53 1985.4C1000.43 1981.97 1004.03 1978.76 1007.37 1980.71C1012.96 1983.97 1016.66 1988.78 1019.65 1994.41C1021.84 1998.52 1023.9 2004.52 1021.34 2008.85C1020.1 2010.95 1017.28 2010.48 1016.11 2008.66C1015.38 2007.54 1014.7 2006.4 1014.03 2005.26C1013.73 2005.22 1013.42 2005.15 1013.11 2005.07C1012.17 2006.91 1009.99 2008.19 1007.95 2007.31C1003.66 2005.46 1000.26 2002.64 996.465 1999.98C992.065 1996.9 987.295 1994.19 982.495 1991.79C977.955 1989.51 972.745 1987.81 967.715 1987.07C962.505 1986.31 955.945 1988.25 952.135 1983.67C951.645 1983.08 951.195 1982.35 950.885 1981.57C942.405 1979.49 933.935 1977.32 925.555 1974.86C920.525 1973.38 915.555 1971.71 910.665 1969.83C905.305 1967.78 902.605 1964.99 900.365 1960.16C892.335 1957.36 884.555 1951.05 877.905 1946.66C867.885 1940.04 858.725 1932.37 849.735 1924.43C840.945 1916.66 832.515 1908.01 824.915 1899.04C821.995 1895.58 819.395 1892 816.445 1888.61C817.165 1890.55 817.655 1892.55 817.705 1894.61C817.745 1896.52 816.025 1898.86 814.035 1899.08C804.315 1900.13 797.645 1890.86 793.535 1883.28C788.625 1874.23 785.585 1864.77 784.005 1854.61C783.415 1850.8 782.985 1846.96 782.705 1843.08C779.865 1836.52 778.555 1829.47 777.685 1822.31C776.175 1809.93 779.465 1797.72 784.975 1786.66C784.265 1786.75 783.525 1786.77 782.725 1786.73C771.445 1786.06 760.625 1783.94 749.555 1781.84C744.865 1780.95 740.275 1779.84 735.655 1778.71C728.885 1780.35 722.075 1781.72 715.125 1782.53C710.915 1787.42 702.765 1786.03 697.045 1785.08C684.805 1783.04 673.135 1779.46 661.855 1774.28C617.355 1753.84 585.075 1715.03 551.665 1680.6C528.475 1656.69 502.735 1635.7 480.615 1610.7C469.165 1597.76 458.005 1584.12 448.845 1569.44C447.825 1567.81 446.845 1566.14 445.885 1564.47C444.805 1563.68 443.735 1562.72 442.665 1561.61C438.275 1557.06 434.845 1551.49 431.575 1546.11C428.325 1540.77 425.215 1535.34 422.245 1529.84C421.885 1529.17 421.555 1528.5 421.255 1527.81C418.575 1525.36 415.995 1523.06 413.345 1522.26C413.335 1522.26 413.325 1522.26 413.315 1522.26C413.265 1522.26 413.245 1522.26 413.195 1522.26C413.155 1522.26 413.135 1522.28 413.085 1522.29C413.055 1522.29 413.045 1522.3 413.015 1522.31C412.485 1522.6 411.805 1523.03 412.625 1522.42C410.175 1524.2 410.385 1524.26 408.515 1527.3C407.175 1529.48 405.995 1532.16 404.945 1535.06C406.235 1544.88 405.235 1554.72 405.925 1564.6C406.825 1577.57 409.245 1592.09 412.105 1605.29C418.155 1633.29 429.165 1658.76 442.595 1683.92C462.585 1721.36 483.295 1758.37 506.065 1794.12C542.995 1840.44 585.755 1881.24 627.025 1923.59C645.495 1942.54 664.355 1961.18 686.165 1976.3C697.625 1984.25 709.885 1990.34 722.145 1996.88C735.705 2004.11 749.145 2011.54 762.675 2018.83C775.745 2025.87 788.705 2033.2 802.025 2039.78C814.155 2045.77 826.505 2051.28 838.595 2057.38C859.865 2068.1 879.375 2081.43 888.635 2104.3C891.635 2111.7 882.235 2116.74 877.765 2110.12C872.925 2102.99 867.315 2096.35 860.925 2090.57C860.515 2091.42 859.495 2092.04 858.555 2091.68C849.135 2088.07 840.135 2083.39 830.845 2079.43C825.895 2077.31 820.825 2075.47 815.845 2073.4C810.575 2071.21 807.415 2067.98 803.985 2063.55C803.005 2062.28 802.835 2060.49 803.535 2059.16C781.075 2048.98 758.815 2038.59 736.915 2027.09C725.735 2021.22 714.435 2015.65 703.345 2009.78C698.405 2010.25 693.575 2008.26 688.995 2006.58C680.505 2003.46 672.335 1999.33 664.595 1994.67C648.655 1985.07 634.785 1972.22 621.985 1958.83C611.375 1947.74 601.505 1936.01 591.905 1924.07C591.525 1923.97 591.165 1923.83 590.815 1923.65C585.215 1920.63 579.545 1918.1 574.585 1914.07C568.845 1909.41 563.745 1904.22 558.675 1898.85C549.115 1888.73 540.085 1878.13 531.375 1867.28C513.285 1844.74 496.935 1820.88 481.555 1796.43C479.535 1793.22 477.535 1790 475.555 1786.76C459.585 1764.85 445.585 1741.35 433.305 1717.23C431.995 1714.65 430.735 1712.07 429.505 1709.46C420.175 1700.58 415.755 1685.96 410.595 1674.68C404.335 1660.99 398.775 1646.82 394.345 1632.43C390.695 1620.57 387.895 1608.41 385.575 1596.21C384.205 1597.52 381.835 1597.56 380.715 1595.5C379.855 1593.93 379.225 1592.36 378.565 1590.7C377.695 1588.51 375.525 1586.95 374.475 1584.88C372.125 1580.25 370.935 1575.59 370.135 1570.49C368.565 1560.4 367.595 1550.19 367.005 1540.01C365.975 1522.39 366.865 1504.28 371.495 1487.17C371.755 1486.12 372.045 1485.06 372.385 1484.01C373.055 1481.98 374.145 1480.49 375.465 1479.46C372.295 1477.24 369.175 1474.95 366.135 1472.54C360.235 1467.85 354.385 1461.73 350.165 1454.99C345.625 1452.77 341.175 1450.36 336.795 1447.84C328.285 1442.97 320.115 1437.52 311.975 1432.05C295.515 1420.99 279.915 1408.59 265.065 1395.44C250.135 1382.22 235.985 1368.1 222.765 1353.17C213.115 1342.28 202.335 1330.69 195.675 1317.38C188.415 1307.46 181.265 1297.46 174.095 1287.46C169.215 1280.65 164.325 1273.85 159.365 1267.1C158.965 1267.16 158.545 1267.14 158.155 1266.98C155.605 1266 152.295 1263.56 150.325 1261.79C149.875 1261.39 146.715 1259.65 145.445 1258.47C143.605 1256.77 141.875 1254.96 140.085 1253.21C132.615 1245.89 125.665 1237.78 118.835 1229.86C112.485 1222.5 106.275 1214.96 101.355 1206.55C99.5149 1203.39 98.2849 1200.04 97.8649 1196.41C97.7149 1195.08 97.6948 1194.03 98.0548 1192.79C96.7448 1193.06 95.4548 1193.27 94.2148 1193.43C87.7648 1194.24 79.4948 1195.08 72.8048 1192.82C71.5248 1192.68 70.2449 1192.52 68.9749 1192.3C60.7249 1190.89 53.5248 1187.46 47.1748 1182.01C39.3448 1175.3 32.6649 1166.35 26.7249 1157.96C23.7949 1153.82 21.0548 1149.17 19.1648 1144.46C18.1148 1141.85 16.3048 1137.72 16.2748 1134.33C13.4248 1131.66 16.4649 1127.32 20.1349 1129.06L20.1449 1129.08ZM400.615 1509.73C400.615 1509.73 400.645 1509.71 400.665 1509.7C400.635 1509.68 400.615 1509.65 400.585 1509.63C400.595 1509.67 400.615 1509.7 400.615 1509.73V1509.73Z" fill="#C8B0C3"/>
<path d="M556.406 1166.96C549.036 1168.02 542.495 1168.98 535.065 1167.58C532.515 1167.1 530.085 1166.41 527.695 1165.61C526.235 1165.88 524.676 1165.98 523.396 1166.05C518.176 1166.34 513.265 1165.35 508.375 1163.54C500.775 1160.72 488.155 1152.5 488.505 1143.16C488.625 1139.84 491.146 1137.37 494.166 1137.05C493.346 1133.76 493.465 1130.37 495.305 1127.12C496.015 1125.88 497.446 1125.62 498.716 1125.88C505.556 1127.25 509.056 1134.17 512.586 1139.5C515.526 1143.93 519.085 1148.48 522.995 1152.09C526.665 1155.48 532.085 1156.89 536.815 1158.18C543.615 1160.03 549.886 1162.5 556.466 1164.95C557.356 1165.28 557.485 1166.81 556.385 1166.96L556.406 1166.96Z" fill="#C8B0C3"/>
<path d="M1046.76 1579.58C1038.65 1586.77 1027.63 1590.4 1017.24 1592.59C1006.1 1594.94 994.526 1595.74 983.156 1595.46C978.116 1595.34 973.086 1594.86 968.106 1594.11C962.006 1593.18 955.806 1592.47 950.966 1588.4C950.126 1587.69 949.536 1586.72 949.136 1585.65C945.116 1583.25 942.996 1577.65 941.986 1573.37C940.866 1568.64 941.046 1559.9 945.126 1556.49C945.776 1555.95 946.606 1555.54 947.466 1555.47C947.366 1555.06 947.266 1554.66 947.176 1554.26C944.646 1543.12 944.346 1531.44 943.716 1520.08C943.386 1514.12 942.936 1508.75 942.456 1503.2C942.286 1501.3 941.666 1497.58 941.526 1495.06C941.366 1492.08 941.846 1489.36 941.806 1486.42C941.716 1480.33 949.376 1479.93 952.226 1484.02C955.456 1488.65 957.616 1492.85 958.726 1498.5C959.816 1504.09 960.316 1509.76 960.786 1515.43C961.676 1526.03 961.886 1535.09 963.866 1545.29C965.706 1554.74 968.226 1561.32 974.506 1567.58C976.946 1570.01 981.116 1572.31 985.246 1573.77C989.826 1575.38 994.606 1575.72 998.636 1577.68C1002.79 1577.53 1006.93 1577.2 1011.04 1576.63C1019.89 1575.41 1029.14 1573.34 1037.45 1570C1040.82 1568.65 1044.91 1567.2 1047.78 1564.97C1050.93 1562.53 1053.01 1559.02 1054.9 1555.58C1056.29 1553.05 1060.99 1554.33 1060.49 1557.33C1059.08 1565.78 1053.08 1573.99 1046.76 1579.59V1579.58Z" fill="#C8B0C3"/>
<path fill-rule="evenodd" clip-rule="evenodd" d="M747.175 1699.73C747.205 1699.79 747.235 1699.85 747.265 1699.92C747.285 1699.93 747.245 1699.9 747.215 1699.87L747.295 1699.94C747.295 1699.94 747.245 1700.01 747.215 1700.04C747.215 1699.98 747.195 1699.91 747.185 1699.84C747.185 1699.8 747.185 1699.76 747.185 1699.72L747.175 1699.73Z" fill="#1A1714"/>
<path fill-rule="evenodd" clip-rule="evenodd" d="M738.236 1652.94C736.456 1637.23 735.846 1621.4 734.266 1605.66C732.766 1590.74 730.536 1575.88 728.896 1560.98C727.396 1547.29 726.726 1533.51 724.786 1519.89C723.376 1510.02 719.976 1500.44 718.366 1490.58C716.026 1476.26 714.486 1461.82 712.616 1447.43C713.286 1447.35 713.956 1447.27 714.626 1447.2C730.546 1530.72 744.926 1614.43 747.176 1699.73C740.086 1684.91 740.016 1668.73 738.236 1652.94V1652.94Z" fill="#1A1714"/>
<path fill-rule="evenodd" clip-rule="evenodd" d="M557.146 1140.88C553.146 1140.91 549.346 1139.93 546.016 1138.08C537.196 1133.07 530.796 1121.74 536.296 1112.28C537.106 1111.07 539.716 1113.71 540.106 1115.73C541.286 1121.79 541.456 1128.05 547.296 1131.11C559.786 1136.01 571.126 1129.61 577.486 1118.68C579.236 1115.82 580.526 1112.77 581.296 1109.61C583.586 1100.13 581.076 1089.66 571.756 1080.92C568.666 1078.02 564.646 1076.22 560.366 1076.55C557.856 1076.75 541.756 1085.03 548.656 1077.4C553.656 1071.88 563.806 1070.04 570.656 1071.77C580.836 1074.34 586.006 1081.47 588.806 1091.22C592.826 1105.21 587.656 1116.83 580.436 1128.18C574.976 1136.76 567.576 1140.81 557.146 1140.89V1140.88Z" fill="#1A1714"/>
<path d="M0.825256 1106.21C1.89526 1093.99 11.2353 1089.3 20.9953 1085.23C25.2653 1083.51 28.2853 1084.32 32.7453 1083.75C37.3553 1083.16 41.7653 1081.5 46.2253 1080.28C48.8053 1079.57 59.8653 1077.92 61.6153 1080.79C57.9353 1074.75 50.8252 1066.74 49.0352 1059.93C47.5052 1054.1 52.4752 1053.46 56.3052 1050.77C63.7852 1045.54 76.7453 1046.9 84.4753 1051.92C98.7153 1061.14 109.645 1073.71 120.355 1086.43C124.705 1091.6 128.005 1097.87 130.825 1104.08C137.425 1118.6 149.015 1128.71 160.665 1138.66C172.035 1148.35 183.875 1157.51 195.815 1166.48C206.195 1174.26 216.915 1181.6 227.665 1188.86C243.665 1199.66 259.765 1210.33 275.945 1220.83C283.025 1225.43 290.385 1229.6 297.735 1233.75C298.135 1233.97 298.585 1234.13 299.045 1234.24C297.515 1227.51 297.475 1220.42 299.315 1213.15C299.975 1210.53 300.525 1207.22 299.525 1204.95C297.685 1200.8 294.325 1197.35 292.155 1193.3C289.725 1188.75 287.345 1184.17 285.015 1179.56C282.675 1174.95 280.385 1170.32 278.165 1165.69C275.685 1160.93 273.395 1156.11 271.285 1151.22C261.305 1127.03 254.175 1101.16 251.675 1074.64C250.925 1067.96 250.305 1061.28 249.755 1054.63C249.335 1048.99 249.015 1043.4 248.875 1037.83C248.745 1031.4 248.985 1024.94 249.525 1018.49C250.065 1012.04 250.905 1005.6 251.975 999.205C253.605 989.325 256.075 979.675 259.145 970.245C263.925 957.225 269.065 944.665 274.955 932.435C276.915 928.355 278.965 924.315 281.115 920.285C285.715 909.685 292.185 900.175 299.525 891.255C303.205 886.795 307.115 882.485 311.125 878.265C331.095 855.495 355.625 836.045 380.525 819.265C384.675 816.335 388.935 813.495 393.275 810.805C406.315 802.755 420.145 796.105 435.765 792.705C430.005 774.315 443.905 754.255 462.035 753.085C472.605 752.415 481.765 755.735 490.155 761.865C494.675 765.165 498.875 769.805 503.965 771.295C520.385 776.035 537.285 779.095 553.745 783.765C576.395 790.205 599.425 795.925 621.115 804.865C625.575 806.715 629.895 808.805 634.085 811.105C638.265 813.395 642.305 815.895 646.255 818.555C662.475 828.715 675.715 842.905 689.645 855.995C692.735 859.035 695.665 862.255 698.465 865.585C701.275 868.925 703.945 872.375 706.515 875.875C711.125 882.135 715.935 888.325 720.475 894.645C730.295 907.585 736.785 922.145 741.955 937.365C743.675 942.445 745.255 947.595 746.765 952.775C755.565 978.345 758.655 1005 758.535 1032.12C758.595 1037.41 758.565 1042.72 758.485 1048.01C758.405 1052.65 758.235 1057.29 757.985 1061.93C757.395 1068.03 756.885 1074.26 756.285 1080.54C752.075 1111.14 745.255 1140.78 729.505 1166.88C726.645 1171.81 724.005 1176.86 721.525 1181.75C719.045 1186.65 716.715 1191.38 714.495 1195.65C726.095 1193.4 738.355 1190.91 750.645 1188.64C754.935 1187.85 759.235 1187.12 763.535 1186.49C767.835 1185.86 772.135 1185.32 776.455 1184.92C780.785 1184.53 785.115 1184.27 789.485 1184.2C793.855 1184.12 798.245 1184.22 802.685 1184.54C833.705 1186.84 860.895 1197.73 884.115 1217.95C900.605 1232.29 906.985 1252.64 911.945 1272.98C916.065 1290.01 918.285 1307.52 921.235 1324.86C924.135 1341.93 927.015 1359.02 929.715 1376.14C932.935 1396.47 932.625 1417.16 938.495 1437.3C940.775 1445.14 941.315 1453.49 941.735 1461.87C941.965 1466.2 942.155 1470.54 942.545 1474.82C942.715 1476.76 942.895 1478.71 943.065 1480.65C943.945 1490.61 944.735 1500.58 945.495 1510.56C946.215 1519.94 947.045 1529.29 947.275 1538.66C947.635 1553.67 947.335 1568.68 947.765 1583.66C947.775 1584.35 947.805 1585.06 947.825 1585.74C947.935 1589.29 948.015 1592.82 948.015 1596.35C948.045 1614.57 946.225 1632.53 939.295 1649.79C929.265 1674.79 917.985 1695.05 893.355 1708.36C888.675 1710.88 882.725 1712.91 876.275 1714.87C873.165 1715.81 869.955 1716.74 866.695 1717.7C854.865 1721.21 842.595 1725.2 834.025 1732.06C825.385 1734.94 816.665 1737.61 808.075 1740.63C807.955 1740.68 807.835 1740.71 807.715 1740.76C806.145 1741.13 804.635 1741.6 803.165 1742.14C803.165 1742.07 803.155 1741.99 803.145 1741.92C803.015 1740.91 802.895 1739.9 802.785 1738.87C787.255 1743 772.185 1747 757.245 1750.96C754.205 1750.08 751.065 1749.57 747.865 1749.45C738.815 1749.11 731.655 1751.84 724.685 1756.32C724.815 1756.22 724.955 1756.12 725.075 1756.04C722.245 1758 719.315 1759.72 716.265 1761.22C714.655 1761.65 713.015 1762.01 711.375 1762.31C709.655 1762.35 707.925 1762.34 706.185 1762.3C702.045 1762.18 698.035 1762.71 694.215 1763.8C685.435 1764.44 677.115 1765.07 668.815 1764.88C664.505 1764.8 659.925 1761.76 656.065 1759.17C648.105 1753.88 640.495 1747.99 632.775 1742.34C629.965 1740.29 627.155 1738.29 624.475 1736.1C615.105 1728.48 605.685 1720.93 596.405 1713.2C589.875 1708.09 583.335 1702.93 577.545 1697.05C570.355 1689.73 563.835 1681.71 556.465 1674.5C548.235 1666.47 540.225 1658.19 531.965 1650.18C526.195 1644.58 520.145 1639.28 514.295 1633.77C511.275 1630.9 508.235 1628 505.545 1624.86C498.095 1616.19 490.765 1607.41 483.515 1598.58C479.385 1593.57 475.585 1588.31 471.505 1583.26C459.655 1568.61 445.375 1554.33 437.405 1537.17C435.865 1533.84 434.945 1530.43 433.265 1527.22C428.125 1517.29 419.085 1508.01 410.525 1501.05C403.915 1495.69 397.035 1490.66 390.125 1485.66C386.225 1483.33 383.385 1479.75 378.955 1478.55C373.295 1486.89 370.205 1497.96 371.685 1507.79C371.685 1512.96 372.135 1518.22 372.745 1523.46C373.345 1528.69 374.105 1533.94 374.775 1539.06C375.435 1544.06 376.155 1549.06 376.905 1554.04C377.665 1559.01 378.465 1563.97 379.285 1568.87C380.105 1573.09 381.005 1577.3 381.945 1581.5C382.895 1585.7 383.905 1589.9 384.965 1594.07C387.665 1606.71 391.445 1618.82 396.015 1630.52C400.585 1642.22 405.965 1653.54 411.875 1664.59C429.725 1698.81 450.615 1731.09 469.615 1764.52C476.025 1775.79 482.225 1787.19 488.015 1798.83C472.315 1781.41 458.775 1762.59 446.385 1743.06C431.455 1719.56 418.145 1695.02 404.635 1670.66C400.045 1661.75 395.755 1652.71 391.765 1643.54C383.785 1625.18 377.005 1606.3 371.625 1586.91C370.555 1582.56 369.545 1578.2 368.565 1573.82C367.805 1568.07 366.975 1562.32 366.115 1556.58C365.255 1550.85 364.385 1545.1 363.575 1539.36C362.515 1533.93 361.965 1528.14 361.605 1522.23C360.945 1511.57 361.775 1498.69 359.855 1487.07C356.675 1455.5 318.765 1449.26 296.415 1434.63C291.695 1431.55 287.095 1428.3 282.615 1424.92C269.185 1414.78 256.825 1403.34 245.335 1391.04C236.965 1382.07 228.575 1372.52 221.115 1362.64C220.045 1361.23 219.005 1359.81 217.985 1358.38C216.085 1356.06 214.375 1353.66 212.705 1351.27C211.875 1350.07 211.055 1348.87 210.245 1347.69C203.155 1338.22 196.545 1328.5 189.085 1319.48C186.605 1316.47 184.025 1313.54 181.305 1310.72C173.565 1300.67 166.005 1291.89 158.485 1282.01C157.395 1280.54 156.285 1279.09 155.155 1277.66C148.395 1269.05 141.055 1260.97 134.015 1252.68C133.135 1251.59 132.255 1250.49 131.375 1249.38C127.855 1244.96 124.295 1240.46 120.585 1235.92C119.315 1234.35 118.015 1232.79 116.685 1231.25C114.025 1228.17 111.225 1225.18 108.215 1222.32C107.025 1221.01 105.805 1219.73 104.535 1218.47C103.265 1217.22 101.955 1215.99 100.595 1214.8C99.3553 1213.63 98.0852 1212.5 96.7852 1211.4C91.5652 1207.04 85.7852 1203.38 79.3052 1200.87C74.4652 1198.99 68.1652 1201.24 62.6552 1200.57C57.3552 1199.95 51.5352 1199.09 47.1552 1196.37C41.5652 1192.91 37.4653 1187.38 34.2153 1181.3C32.5653 1178.19 29.4753 1175.37 26.3753 1173.66C23.0153 1171.84 20.5253 1170.66 19.7153 1166.2C18.5153 1159.51 16.2553 1152.93 13.7453 1146.57C11.9853 1142.11 9.36528 1137.91 6.59528 1133.93C0.705276 1125.45 -0.0647925 1115.95 0.775208 1106.21H0.825256ZM721.335 1149.46C730.785 1131.02 734.115 1110.45 739.195 1090.72C740.255 1085.65 741.265 1080.58 742.205 1075.5C743.145 1070.42 744.005 1065.33 744.795 1060.23C745.685 1054.33 745.775 1048.31 745.705 1042.25C745.625 1036.2 745.365 1030.13 745.585 1024.1C746.345 1006.36 741.805 988.365 737.625 971.875C736.495 967.505 735.255 963.255 733.935 959.085C730.505 946.525 724.105 935.195 720.135 922.685C717.665 917.535 715.015 912.465 712.235 907.485C709.455 902.515 706.555 897.605 703.555 892.745C701.015 888.645 698.375 884.575 695.565 880.625C692.765 876.675 689.815 872.825 686.665 869.125C667.225 847.715 643.705 829.225 618.045 816.385C612.325 813.355 606.465 810.555 600.565 808.015C577.505 798.055 553.685 790.465 526.855 788.935C529.125 796.015 530.955 803.105 533.645 809.845C541.395 829.305 549.975 848.445 557.295 868.055C560.275 876.065 584.275 941.665 573.335 945.875C572.295 943.495 571.035 941.205 570.305 938.745C567.605 929.595 564.955 920.415 562.495 911.195C555.755 885.765 543.485 862.445 533.835 838.155C528.045 823.555 518.725 810.255 510.285 796.805C505.675 789.475 500.195 782.435 494.005 776.405C487.755 770.335 480.675 765.195 471.525 762.995C461.095 760.465 444.835 771.145 443.275 781.215C442.665 785.165 443.975 790.595 446.485 793.595C453.165 801.465 460.905 808.435 468.315 815.665C480.025 827.105 488.955 840.465 496.975 854.665C508.025 874.265 515.345 895.285 520.615 916.895C525.775 937.965 530.095 959.405 532.575 980.935C534.555 998.395 533.345 1016.24 533.275 1033.91C533.275 1037.44 531.995 1040.98 531.225 1044.84C537.985 1042.55 545.095 1041.34 552.235 1041.35C567.485 1041.35 582.595 1046.99 594.085 1057.02C599.295 1061.58 603.785 1067.04 606.985 1073.2C608.505 1076.13 609.735 1079.21 610.585 1082.39C611.005 1083.94 611.385 1085.54 611.575 1087.13C611.745 1088.53 610.845 1091.01 609.115 1089.18C608.085 1088.1 607.425 1085.81 606.605 1084.49C604.485 1081.13 601.975 1078.04 599.285 1075.16C594.675 1070.22 589.345 1065.41 583.335 1062.22C577.155 1058.97 570.545 1056.53 564.355 1053.3C554.775 1048.26 546.555 1050.09 536.835 1054.68C520.415 1062.46 513.985 1076.52 510.175 1092.04C506.035 1108.91 511.115 1124.82 520.945 1138.78C525.515 1145.25 531.255 1151.04 537.165 1156.38C541.315 1160.14 546.325 1162.92 551.825 1164.11C554.485 1164.68 557.225 1164.9 559.935 1164.8C561.345 1164.75 566.305 1163.56 567.345 1164.78C568.805 1166.48 560.255 1167.35 559.185 1167.45C555.685 1167.77 552.135 1167.79 548.625 1167.52C542.395 1167.04 535.745 1165.75 530.375 1162.38C517.415 1154.24 505.435 1145 500.475 1129.98C447.025 1177.48 383.915 1200.03 313.385 1207.44C313.135 1211.07 312.055 1215.61 312.695 1219.88C314.725 1233.53 319.895 1245.36 328.965 1253.8C331.805 1255.46 334.785 1256.89 337.855 1258C338.605 1258.38 339.345 1258.75 340.095 1259.11C341.565 1259.93 343.065 1260.74 344.565 1261.5C346.915 1262.7 349.325 1263.87 351.765 1265.01C352.045 1265.13 352.325 1265.26 352.605 1265.38C360.185 1266.43 368.605 1265.54 375.875 1263.71C389.815 1260.2 403.095 1253.84 416.465 1248.21C424.805 1244.67 432.835 1240.37 440.865 1236.13C448.955 1231.87 456.825 1227.3 464.785 1222.85C465.545 1222.42 466.295 1221.79 467.115 1221.67C469.835 1221.31 472.585 1221.16 475.315 1220.92C473.815 1223.51 472.955 1227.15 470.715 1228.52C455.515 1237.77 440.505 1247.51 424.525 1255.19C410.165 1262.1 394.645 1266.61 379.645 1272.18C378.405 1272.65 377.145 1273.1 375.825 1273.59C402.775 1283.05 428.195 1297.04 457.895 1291.11C469.865 1288.72 481.075 1278.32 491.715 1272.49C502.195 1266.74 513.155 1261.57 524.425 1257.67C534.845 1254.05 545.955 1252.31 556.825 1249.98C564.415 1248.35 572.505 1248.2 579.625 1245.42C586.785 1242.65 592.985 1237.39 599.695 1233.34C604.045 1230.7 608.295 1227.4 613.065 1225.93C638.925 1217.97 664.945 1210.5 690.895 1202.73C692.325 1202.3 693.865 1200.98 694.625 1199.65C700.025 1190.31 705.375 1180.93 710.475 1171.41C714.335 1164.23 718.115 1156.95 721.345 1149.46H721.335ZM530.305 1271.56C535.935 1272.63 541.605 1272.65 547.355 1274.6C553.275 1276.6 558.935 1279.27 564.865 1281.22C566.855 1275.5 568.975 1269.33 571.575 1261.75L551.515 1265.66C546.635 1266.61 533.265 1266.93 530.295 1271.55L530.305 1271.56ZM639.235 1638.57C641.635 1657.25 643.475 1676.06 647.325 1694.44C650.305 1708.64 655.515 1722.45 660.675 1736.08C664.095 1745.09 673.085 1747.69 681.495 1747.89C697.355 1748.24 713.195 1747.64 728.905 1744.15C739.045 1741.89 739.765 1737.9 741.265 1729.75C741.265 1729.73 741.275 1729.69 741.265 1729.66C742.855 1720.92 739.385 1708.26 745.805 1701.66C749.465 1706.68 749.105 1714.16 750.745 1720.63C752.855 1728.81 765.505 1735.09 773.615 1732.98C788.685 1729.03 803.945 1725.71 818.895 1721.39C837.865 1715.93 857.075 1710.85 875.305 1703.48C886.945 1698.78 901.575 1691.67 909.755 1681.84C911.665 1679.55 913.385 1677.12 915.045 1674.64C915.015 1674.62 914.985 1674.6 914.955 1674.58C916.175 1672.87 917.345 1671.09 918.425 1669.23C925.985 1656.19 930.585 1641.9 933.105 1627.11C935.045 1615.77 936.495 1604.28 937.025 1592.81C937.475 1583.29 936.165 1573.7 935.845 1564.15C935.455 1551.98 935.505 1539.82 934.995 1527.66C934.585 1518.04 933.545 1508.39 932.925 1498.75C932.255 1488.8 932.215 1478.76 931.065 1468.86C929.395 1454.31 927.075 1439.86 924.875 1425.37C919.435 1389.69 911.645 1354.4 906.915 1318.72C905.425 1307.58 904.865 1296.22 902.385 1285.32C899.815 1273.95 896.055 1262.76 891.735 1251.94C883.695 1231.78 866.855 1220.74 848.085 1212.07C841.625 1209.1 835.285 1205.49 828.485 1203.72C821.205 1201.84 813.255 1202.61 805.945 1200.79C782.225 1194.86 759.685 1200.53 737.115 1206.73C726.375 1209.7 715.405 1212.06 704.895 1215.7C695.685 1218.88 686.855 1223.28 678.035 1227.51C669.815 1231.45 668.825 1233.32 670.885 1242.54C676.565 1268.04 682.315 1293.52 688.435 1318.9C693.695 1340.76 699.525 1362.48 705.045 1384.27C705.335 1385.38 705.185 1386.62 705.265 1388.52C694.935 1377.25 694.585 1363.31 691.065 1350.49C688.415 1340.85 685.005 1331.41 681.995 1321.88C681.265 1319.59 679.985 1317.22 680.135 1314.96C680.735 1305.61 676.365 1297.54 673.935 1288.99C671.915 1281.85 670.315 1274.58 667.935 1267.6C665.415 1260.2 662.675 1252.8 659.145 1245.87C653.395 1234.67 641.155 1231.72 628.565 1235.56C617.515 1238.92 606.515 1242.59 598.545 1250.59C586.195 1262.97 574.315 1276.58 574.365 1295.56C574.395 1304.57 576.225 1313.79 578.705 1322.52C582.505 1335.91 587.655 1348.91 592.055 1362.13C594.345 1368.94 596.545 1375.81 598.285 1382.78C603.085 1401.89 608.295 1420.93 612.085 1440.23C615.305 1456.51 616.565 1473.16 619.125 1489.57C621.845 1506.87 625.475 1524.06 627.975 1541.39C630.555 1559.1 632.265 1576.92 634.315 1594.69C635.985 1609.31 637.365 1623.99 639.245 1638.59L639.235 1638.57ZM444.025 1529.88C453.335 1542.51 462.485 1555.28 472.375 1567.44C485.895 1584.04 499.915 1600.23 514.005 1616.35C524.755 1628.64 536.935 1639.82 548.565 1651.43C558.675 1661.53 569.105 1671.34 580.135 1680.42C596.845 1694.18 612.525 1709.19 628.645 1723.66C629.395 1723.46 630.145 1723.28 630.885 1723.09C631.185 1718.86 631.795 1714.62 631.725 1710.38C631.655 1706.27 630.695 1702.15 630.445 1698.04C629.945 1690.01 625.155 1685.07 619.105 1680.5C604.215 1669.28 588.485 1659.37 574.535 1646.66C570.725 1643.21 566.955 1639.75 563.235 1636.26C561.915 1635.14 560.585 1634.02 559.245 1632.91C548.385 1623.76 537.595 1614.5 526.955 1605.1C516.755 1596.1 506.615 1586.99 496.705 1577.67C488.285 1569.78 480.165 1561.56 472.065 1553.34C466.395 1547.58 460.745 1541.78 455.175 1535.95C452.695 1533.36 443.965 1520.62 440.415 1522.29C440.885 1525.41 442.165 1527.33 444.035 1529.9L444.025 1529.88ZM14.6652 1125.79C19.2652 1133.02 22.4352 1140.47 23.7852 1149.07C24.6752 1154.68 24.6053 1162.09 33.3553 1163.11C34.6153 1163.25 35.6853 1165.63 36.7653 1167.05C41.6253 1173.47 44.2752 1181.03 51.5252 1186.29C60.5252 1192.84 70.7753 1187.43 79.8553 1191.89C82.7453 1193.31 88.2353 1188.93 92.7053 1187.86C97.0053 1186.83 100.805 1181.18 106.785 1186.32C102.605 1190.23 98.7453 1193.82 95.3253 1197.02C102.555 1203.78 110.435 1210.01 116.945 1217.44C118.045 1218.69 119.135 1219.94 120.225 1221.2C121.315 1222.46 122.405 1223.72 123.485 1224.98C127.075 1229.4 131.135 1233.68 134.845 1238.04C135.775 1239.13 136.675 1240.22 137.545 1241.33C139.915 1244.77 142.835 1247.92 145.785 1251.31C146.955 1252.66 148.145 1254.03 149.325 1255.43C150.735 1256.7 151.875 1257.97 152.975 1259.27C154.075 1260.57 155.115 1261.92 156.355 1263.37C157.345 1264.51 158.335 1265.65 159.305 1266.79C160.285 1267.93 161.255 1269.08 162.225 1270.24C167.055 1276 171.705 1281.9 176.145 1288.06C177.265 1289.39 178.345 1290.73 179.405 1292.1C182.555 1296.2 185.475 1300.42 188.625 1304.61C189.675 1306.01 190.755 1307.4 191.875 1308.78C197.835 1317.97 205.415 1326.15 211.995 1335.46C213.305 1337.07 214.615 1338.67 215.935 1340.28C226.475 1353.11 237.225 1365.75 247.805 1378.54C249.605 1380.71 250.735 1383.54 252.785 1385.36C261.935 1393.51 271.665 1401.02 280.465 1409.51C285.935 1414.77 291.715 1419.51 297.855 1423.7C315.655 1433.13 331.345 1443.7 348.445 1452.86C356.015 1454.88 362.885 1460.66 370.365 1463.95C376.225 1465.66 381.575 1468.14 386.635 1471.05C391.685 1473.95 396.445 1477.29 401.145 1480.7C404.785 1483.58 408.295 1486.65 411.665 1489.92C421.715 1499.63 430.895 1509.96 442.595 1517.93C449.215 1522.41 455.785 1525.92 461.755 1531.33C477.665 1545.76 493.495 1560.28 509.375 1574.75C520.715 1585.04 532.025 1595.24 543.075 1605.72C554.085 1616.14 566.565 1624.83 578.035 1634.73C581.275 1637.53 584.545 1640.3 587.805 1643.08C599.155 1651.61 609.985 1660.88 621.135 1669.69C622.575 1670.82 624.285 1671.61 626.815 1673.16C626.515 1666.32 626.285 1660.69 626.015 1655.06C625.535 1645.2 625.135 1635.32 624.495 1625.46C623.725 1613.79 622.865 1602.13 621.855 1590.48C621.045 1581.06 620.115 1571.66 619.025 1562.27C616.905 1543.87 615.255 1525.4 612.255 1507.13C608.585 1484.69 603.225 1462.54 599.595 1440.11C592.895 1398.8 576.085 1360.06 567.785 1319.36C566.705 1314.06 569.845 1295.81 563.545 1293C558.485 1290.78 554.185 1288.52 549.635 1287.01C545.105 1285.51 540.345 1284.07 535.625 1283.83C522.645 1283.19 509.905 1285.78 498.235 1291.07C486.725 1296.3 476.005 1304.2 463.845 1307.57C452.575 1310.7 440.575 1307.92 429.235 1306.64C415.865 1305.13 402.575 1301.7 390.015 1296.84C374.865 1290.99 360.435 1282.05 345.915 1274.84C340.915 1272.37 335.965 1269.84 330.995 1267.31C330.025 1266.82 329.045 1266.33 328.075 1265.84C326.355 1265.2 324.695 1264.47 323.105 1263.58C321.355 1262.61 319.645 1261.57 317.965 1260.47C310.785 1255.84 304.065 1250.41 296.855 1245.78C272.975 1230.42 248.755 1215.59 225.035 1200.01C211.605 1191.19 198.905 1181.28 185.895 1171.83C178.355 1166.35 170.505 1161.25 163.455 1155.21C154.665 1147.68 146.905 1138.94 138.065 1131.48C129.595 1124.33 123.535 1115.85 118.905 1105.86C116.095 1099.83 112.305 1094.06 108.035 1088.94C100.645 1080.07 93.4353 1071.26 83.2353 1064.76C72.6753 1058.05 70.5053 1056.56 59.1953 1062.81C61.5253 1066.39 63.5753 1070.17 66.2353 1073.46C69.4553 1077.43 71.8552 1082.63 78.2852 1082.67C79.5952 1082.68 80.9053 1083.86 82.2153 1084.5C81.1553 1085.6 80.2852 1087.27 79.0252 1087.65C76.3252 1088.48 73.4353 1088.94 70.6153 1089.01C66.6953 1089.12 62.7253 1088.25 58.8653 1088.68C47.4853 1089.96 36.1453 1091.5 24.8453 1093.28C18.2253 1094.33 13.1253 1098.61 11.4653 1104.72C9.52527 1111.81 10.5553 1119.42 14.6453 1125.83L14.6652 1125.79Z" fill="#1A1714"/>
<path d="M415.626 1153.4C421.906 1150.86 427.806 1147.94 433.496 1144.68C441.766 1140.35 449.126 1135 455.606 1128.82C458.856 1125.73 461.886 1122.43 464.726 1118.95C467.996 1114.89 471.006 1110.69 473.746 1106.35C476.476 1102.01 478.926 1097.56 481.076 1092.97C483.656 1087.34 485.996 1081.6 488.046 1075.76C490.096 1069.94 491.876 1064.01 493.366 1058.03C500.146 1034.39 500.476 1009.16 496.106 985.085C495.566 979.165 494.746 973.285 493.676 967.455C492.926 961.085 492.106 954.715 491.176 948.315C490.316 942.455 489.786 936.555 488.886 930.695C488.426 927.755 487.876 924.805 487.146 921.915C486.846 920.675 484.796 916.825 485.666 915.655C487.046 913.775 490.326 919.675 490.876 920.525C492.496 923.025 493.956 925.615 495.276 928.275C497.876 933.505 499.916 939.005 501.486 944.625C503.236 950.345 504.606 956.075 505.846 961.525C507.046 966.825 508.216 972.145 509.276 977.515C513.836 1002.36 519.956 1028.43 514.806 1054.39C513.886 1059.36 512.566 1064.29 510.816 1069.11C509.216 1073.91 507.256 1078.59 504.896 1083.14C503.216 1087.02 501.356 1090.91 499.346 1094.8C497.336 1098.69 495.166 1102.58 492.876 1106.49C490.446 1110.74 487.806 1114.84 484.856 1118.72C481.896 1122.6 478.636 1126.25 474.976 1129.62C470.076 1133.48 464.676 1136.72 458.896 1139.48C453.126 1142.24 446.976 1144.53 440.666 1146.51C436.696 1148.18 432.656 1149.75 428.566 1151.18C424.466 1152.61 420.326 1153.91 416.166 1155.02C415.236 1155.27 414.726 1153.77 415.606 1153.41L415.626 1153.4Z" fill="white"/>
<path d="M462.256 854.295C452.506 838.155 443.106 822.155 427.906 810.855C422.786 808.415 416.786 807.795 409.396 810.085C385.996 819.645 364.916 835.285 345.776 852.725C342.136 856.055 338.596 859.505 335.146 863.035C324.816 873.655 315.356 885.015 306.916 896.775C304.226 900.715 301.646 904.735 299.186 908.835C294.246 917.025 289.776 925.515 285.786 934.305C270.556 967.905 264.006 1004.94 264.586 1041.72C265.176 1078.75 272.776 1115.6 285.776 1150.24C286.836 1153.05 293.396 1173.05 296.136 1172.29C298.016 1171.77 288.866 1146.09 288.086 1143.41C285.056 1133.02 282.456 1122.5 280.376 1111.88C276.226 1090.64 274.156 1068.97 274.786 1047.32C274.956 1041.64 275.296 1035.96 275.836 1030.3C278.176 1005.7 284.066 981.405 293.276 958.465C294.886 954.455 300.056 934.815 307.096 936.595C312.436 937.945 310.086 948.625 308.966 952.085C304.656 965.315 300.506 978.435 297.866 992.135C296.746 997.945 291.806 1006.29 294.366 1012.07C296.706 1017.35 298.746 1008.32 299.056 1006.91C300.186 1001.8 301.496 996.715 302.976 991.695C306.346 980.335 310.466 969.245 315.226 958.395C320.026 947.465 325.946 937.575 331.986 927.325C334.936 922.315 338.016 917.435 341.156 912.745C346.926 904.555 352.756 896.745 359.066 889.415C362.226 885.755 365.506 882.205 368.956 878.795C372.416 875.385 376.076 872.065 380.016 868.845C385.366 863.975 391.456 858.515 397.526 853.245C401.366 850.825 404.866 846.945 408.636 843.955C422.116 838.095 434.906 843.005 445.356 852.275C450.096 856.485 454.326 861.235 458.456 866.045C460.536 868.465 462.586 870.915 464.666 873.325C465.706 874.535 467.756 878.395 469.766 877.905C472.966 877.125 469.426 868.425 468.756 866.615C466.916 862.225 464.346 858.085 462.236 854.275L462.256 854.295Z" fill="white"/>
<path fill-rule="evenodd" clip-rule="evenodd" d="M935.277 1455.21C935.767 1459.28 936.257 1463.34 936.777 1467.4C937.137 1470.26 937.387 1473.02 937.437 1475.71C939.267 1477.42 941.157 1479.07 943.077 1480.66C948.557 1485.17 954.417 1489.21 960.497 1492.73C978.887 1503.41 999.127 1510.43 1017.68 1520.8C1027.64 1526.37 1037.24 1532.36 1047.32 1537.71C1054.8 1541.68 1060.29 1545.51 1059.32 1554.65C1058.47 1562.59 1054.81 1570.23 1049.62 1575.03C1044.42 1579.85 1037.46 1582.82 1030.31 1584.8C1012.08 1589.85 992.917 1589.62 974.257 1587.59C965.397 1586.63 956.607 1584.63 947.767 1583.69C947.307 1583.64 946.837 1583.58 946.367 1583.55C938.897 1582.86 941.057 1592.55 941.087 1597.91C943.317 1597.14 945.637 1596.65 948.017 1596.39C960.907 1594.98 975.447 1600.21 987.587 1601.78C1006.25 1604.2 1025.72 1603.38 1043.41 1596.52C1061.29 1589.59 1071.74 1575.58 1073.53 1556.47C1075.71 1533.32 1051.83 1527.29 1036.25 1517.36C1016.39 1504.69 994.467 1496.24 973.757 1485.18C964.477 1480.22 955.747 1474.34 947.777 1467.47C945.687 1465.68 943.687 1463.82 941.737 1461.91C939.517 1459.75 937.377 1457.5 935.257 1455.24L935.277 1455.21Z" fill="#1A1714"/>
<path fill-rule="evenodd" clip-rule="evenodd" d="M446.406 1743.72C446.406 1743.93 446.366 1744.12 446.346 1744.32C448.536 1748.41 450.506 1752.63 452.286 1757.01C498.996 1834.84 541.776 1891.54 589.336 1938.92C599.006 1949.14 607.056 1957.26 614.676 1964.47C622.626 1971.98 630.796 1979.17 638.976 1985.82C646.856 1993.15 655.296 1999.59 667.116 2007.31C689.276 2018.99 712.436 2029.51 734.856 2039.68C789.206 2064.35 845.436 2089.85 889.296 2133.08C890.226 2134.03 891.136 2135.02 892.056 2136C892.856 2138.95 893.686 2141.89 894.516 2144.76C895.546 2148.35 896.616 2152.07 897.566 2155.75C898.056 2157.61 898.516 2159.46 898.996 2161.3C900.876 2168.68 902.816 2176.32 905.326 2183.64C912.356 2204.15 924.436 2217.23 942.246 2223.63C949.526 2226.24 957.306 2227.98 964.836 2229.67C966.226 2229.98 967.616 2230.29 969.006 2230.6C977.216 2232.49 986.926 2234.52 996.716 2235.46C999.186 2235.69 1001.59 2235.86 1003.84 2235.94C1021.96 2236.62 1034.62 2232.6 1042.53 2223.69C1058.47 2205.71 1053.42 2177.99 1048.99 2163.06C1042.73 2142.01 1031.63 2122.83 1020.89 2104.3C1018.66 2100.45 1016.42 2096.61 1014.24 2092.74C1007.48 2080.8 1002.14 2069.75 997.896 2058.95C995.896 2053.83 994.096 2048.52 992.356 2043.39C991.586 2041.13 990.816 2038.86 990.026 2036.6C985.126 2022.55 980.046 2008.92 972.796 1996.87C975.126 1998.27 977.556 1999.42 980.066 2000.62C981.066 2001.1 982.086 2001.58 983.116 2002.1C990.596 2005.79 996.536 2009.14 1001.83 2012.66C1006.76 2015.95 1013.11 2020.44 1018.44 2026.03C1019.03 2026.65 1019.59 2027.32 1020.13 2028C1021.05 2031.34 1022.06 2034.77 1023.24 2038.17C1027.11 2049.37 1032.88 2059.71 1038.44 2069.7C1042.65 2077.27 1047.01 2085.11 1050.53 2093.26C1052.65 2098.19 1054.65 2103.29 1056.59 2108.23C1059.82 2116.46 1063.16 2124.96 1067.17 2132.99C1072.55 2143.74 1079.44 2150.8 1087.71 2154.01C1091.05 2155.3 1094.57 2156.02 1098.21 2156.16C1115.02 2156.79 1131.01 2144.78 1139.05 2137.55C1149.48 2128.18 1167.75 2108.86 1172.86 2084.76C1177.02 2065.19 1172.51 2045.07 1159.1 2023.23C1155.41 2017.22 1151.3 2011.28 1147.33 2005.54C1139.14 1993.7 1130.66 1981.46 1125.39 1967.91C1122.08 1959.45 1120.08 1950.34 1118.14 1941.53C1116.25 1932.92 1114.3 1924.03 1111.12 1915.62C1103.2 1894.64 1092.66 1883.02 1078.87 1880.09C1076.49 1879.58 1074.05 1879.28 1071.6 1879.19C1064.83 1878.93 1057.67 1880.28 1050.32 1883.21C1048.4 1883.97 1046.6 1884.85 1044.89 1885.82C1042.44 1884.64 1039.94 1883.58 1037.48 1882.55C1034.8 1881.43 1032.05 1880.27 1029.44 1878.98C1022.84 1875.72 1016.17 1871.92 1009.08 1867.36C1001.96 1862.77 994.916 1857.79 988.106 1852.98C982.836 1849.26 977.396 1845.41 971.936 1841.76C958.246 1832.61 938.286 1820.71 916.556 1817.44C915.976 1816.17 915.226 1815 914.496 1813.88C913.936 1813.04 913.376 1812.17 912.906 1811.29C912.296 1810.16 911.756 1808.98 911.226 1807.84C910.576 1806.42 909.896 1804.95 909.086 1803.53C906.106 1798.29 903.666 1793.04 901.846 1787.94C899.076 1780.18 897.006 1772.06 895.006 1764.22C894.116 1760.73 893.196 1757.11 892.226 1753.56C888.916 1741.51 885.456 1729.85 879.456 1719.73C878.456 1718.05 877.406 1716.43 876.306 1714.9C875.286 1713.48 874.226 1712.12 873.136 1710.82C870.556 1712.6 867.546 1713.78 864.406 1714.33C865.196 1715.4 865.966 1716.53 866.726 1717.73C868.836 1721.03 870.796 1724.75 872.586 1728.86C876.866 1738.63 879.356 1749.21 881.766 1759.44L882.766 1763.67C885.386 1774.72 888.096 1786.13 892.436 1796.87L892.566 1797.21C894.656 1802.39 897.026 1808.25 900.736 1812.5C901.916 1813.83 903.196 1815.25 904.566 1816.59C897.146 1816.67 889.866 1817.89 882.896 1820.26C881.516 1820.72 880.686 1822.04 880.856 1823.45C881.036 1824.79 882.086 1825.77 883.496 1825.88C898.286 1827.02 915.356 1828.7 930.846 1834.15C945.496 1839.32 958.686 1847.46 969.656 1854.75C972.886 1856.89 976.096 1859.07 979.296 1861.25C988.426 1867.44 997.856 1873.86 1007.68 1879.33C1015.15 1883.49 1025.58 1889.29 1036.23 1891.94C1031.3 1896.23 1027.04 1901.28 1022.66 1906.49C1021.99 1907.28 1021.33 1908.08 1020.65 1908.87C1019.96 1909.7 1019.79 1910.73 1020.2 1911.64C1020.58 1912.52 1021.44 1913.11 1022.39 1913.14C1022.99 1913.16 1023.59 1912.97 1024.11 1912.58C1025.8 1911.33 1027.47 1910.06 1029.13 1908.8C1039.86 1900.64 1050 1892.94 1063.9 1890.92C1066.07 1890.61 1068.19 1890.48 1070.19 1890.56C1095.15 1891.5 1101.8 1922.81 1107.13 1947.97C1108.57 1954.8 1109.95 1961.25 1111.56 1966.36C1116.78 1982.92 1126.47 1997.36 1135.84 2011.32C1138.38 2015.09 1141 2019 1143.49 2022.89C1154.94 2040.73 1164.86 2060.11 1159.98 2080.86C1155.77 2098.72 1143.48 2116.98 1126.23 2130.95C1120.45 2135.63 1109.09 2143.44 1097.95 2143.02C1091.89 2142.78 1086.75 2140.06 1082.68 2134.94C1079.04 2130.35 1076.71 2124.75 1074.45 2119.31L1073.71 2117.55C1071.73 2112.81 1069.79 2107.96 1067.92 2103.26C1067.27 2101.63 1066.62 2100 1065.96 2098.37C1060.8 2085.52 1054.92 2071.93 1047.06 2059.72C1040.02 2048.79 1034.74 2035.47 1030.91 2018.98C1030.33 2016.52 1029.84 2013.96 1029.36 2011.48C1028.47 2006.88 1027.54 2002.1 1026.07 1997.6C1024.32 1992.26 1022.58 1986.81 1020.91 1981.55L1019.58 1977.38C1019.05 1975.7 1017.67 1974.62 1016 1974.55C1014.81 1974.51 1013.64 1975 1012.88 1975.87C1012.1 1976.75 1011.8 1977.92 1012.01 1979.17C1012.79 1983.84 1013.29 1988.63 1013.79 1993.26C1014.36 1998.68 1014.96 2004.29 1016 2009.78C1013.56 2007.48 1010.94 2005.23 1008.09 2003.01C1001.12 1997.56 994.316 1993.36 987.306 1990.14C982.776 1988.08 979.256 1987.1 975.876 1986.97C973.346 1986.88 970.986 1987.26 968.626 1988.16C968.176 1988.34 967.806 1988.6 967.516 1988.93C967.006 1988.24 966.496 1987.55 965.976 1986.88C955.736 1973.83 942.256 1966.34 928.006 1965.81C925.486 1965.72 922.916 1965.84 920.366 1966.17C917.396 1966.57 914.616 1967.18 911.976 1968C909.506 1966.3 906.936 1964.75 904.416 1963.23C901.936 1961.74 899.366 1960.19 896.986 1958.54C890.906 1954.37 884.866 1949.65 878.506 1944.11C872.126 1938.55 865.866 1932.61 859.826 1926.88C855.146 1922.44 850.316 1917.85 845.436 1913.45C833.506 1902.69 816.856 1889.25 797.406 1882.51C798.636 1876.08 796.956 1869.05 796.176 1866.31C794.266 1859.67 791.326 1853.38 788.486 1847.3C787.346 1844.87 786.166 1842.36 785.086 1839.87C781.296 1831.22 779.716 1821.97 780.186 1811.66C783.156 1803.59 788.536 1796.37 794.106 1788.9L795.736 1786.72C800.966 1779.67 805.906 1772.68 808.986 1764.68C811.516 1758.11 814.266 1748.52 808.936 1741.38C808.696 1741.07 808.436 1740.81 808.126 1740.61C807.666 1740.31 807.136 1740.14 806.556 1740.11C805.266 1740.06 803.936 1740.8 803.186 1741.91C803.036 1742.12 802.916 1742.34 802.826 1742.58C801.786 1745.09 801.456 1747.72 801.146 1750.27C800.956 1751.81 800.746 1753.39 800.406 1754.9C799.446 1758.98 798.006 1762.79 796.126 1766.22C792.866 1772.17 788.756 1777.74 784.796 1783.12C783.766 1784.52 782.736 1785.93 781.716 1787.34C775.256 1796.26 768.726 1807.15 769.016 1818.12C768.936 1825.65 769.976 1832.24 772.216 1838.17C773.956 1842.81 776.186 1847.28 778.346 1851.62C780.116 1855.16 781.956 1858.85 783.486 1862.56C785.226 1866.79 787.096 1871.69 787.166 1876.45C787.196 1877.5 787.106 1878.57 787.006 1879.64C783.286 1878.88 779.486 1878.39 775.606 1878.24C770.546 1878.05 765.436 1878.42 760.426 1879.36C758.996 1879.61 757.986 1880.8 757.956 1882.22C757.926 1883.57 758.836 1884.69 760.206 1885C774.676 1888.25 791.346 1892.36 805.876 1900C819.636 1907.21 831.516 1917.18 841.326 1925.96C844.216 1928.55 847.076 1931.17 849.936 1933.79C858.076 1941.23 866.486 1948.93 875.416 1955.77C882.436 1961.13 891.956 1968.42 902.246 1972.52C898.386 1975.02 895.006 1978.21 892.096 1982.11C883.826 1993.17 880.576 2003.3 882.146 2013.07C882.336 2014.28 883.336 2015.12 884.616 2015.17C885.886 2015.22 886.996 2014.45 887.316 2013.31C889.836 2004.39 894.816 1992.26 904.186 1985.07C910.576 1980.16 918.456 1977.74 926.976 1978.06C928.316 1978.11 929.676 1978.22 931.016 1978.42C944.416 1980.29 955.596 1990.48 965.166 2009.53C970.906 2020.97 975.126 2033.28 979.206 2045.16C980.716 2049.59 982.286 2054.14 983.916 2058.61C991.396 2079.18 1002.28 2098.18 1012.81 2116.56C1014.16 2118.92 1015.52 2121.27 1016.87 2123.65C1029.68 2146.16 1042.07 2170.25 1040.63 2195.38C1040.07 2205.02 1037.27 2212.11 1032.3 2216.48C1026.54 2221.53 1018.95 2223.05 1013.61 2223.44C1010.38 2223.68 1006.96 2223.73 1003.49 2223.6C988.936 2223.05 974.016 2219.29 960.856 2215.97C959.956 2215.74 959.066 2215.52 958.166 2215.3C949.456 2213.14 940.466 2210.91 933.026 2205.46C925.856 2200.23 920.276 2192.48 916.896 2183.07C914.896 2177.54 913.456 2171.62 912.126 2165.78C911.756 2163.54 911.316 2161.46 910.946 2159.67C909.486 2152.74 907.666 2145.77 905.916 2139.04L905.226 2136.38C904.566 2133.83 903.886 2131.29 903.226 2128.74C901.896 2123.66 900.506 2118.4 899.206 2113.21C898.866 2111.82 898.526 2110.42 898.196 2109C896.806 2103.1 895.366 2096.99 892.676 2091.66C892.176 2090.67 891.296 2090.08 890.246 2090.04C888.626 2089.98 887.176 2091.26 886.986 2092.87C886.196 2099.67 887.746 2107.16 889.116 2113.76L889.206 2114.24C881.566 2107.11 873.096 2100.83 865.586 2095.51C810.066 2057.47 751.676 2031.37 701.886 2010.86C688.446 2005.1 676.136 1997.2 665.646 1990.24C656.636 1984.24 647.586 1977.26 637.166 1968.3C628.126 1960.68 619.136 1952.34 610.446 1943.51C561.636 1894.84 523.346 1840.57 482.816 1783.12C478.496 1777 474.106 1770.77 469.676 1764.52C463.216 1755.4 456.646 1746.19 450.016 1737.02L449.876 1736.84L449.676 1736.73C448.756 1736.22 447.686 1735.91 446.646 1735.61C445.736 1735.35 444.896 1735.09 444.186 1734.73C445.606 1737.21 446.426 1740.05 446.436 1743.04C446.436 1743.26 446.436 1743.48 446.426 1743.69L446.406 1743.72Z" fill="#1A1714"/>
<path d="M904.155 1663.01C904.165 1662.96 904.195 1662.91 904.215 1662.86C904.075 1662.77 903.925 1662.68 903.785 1662.58C903.915 1662.72 904.035 1662.86 904.155 1663.01Z" fill="#1A1714"/>
</g>
<defs>
<linearGradient id="paint0_linear_1433_37097" x1="77.2563" y1="1092.78" x2="77.2563" y2="1347.91" gradientUnits="userSpaceOnUse">
<stop offset="0.541667" stop-color="#EBB9AE"/>
<stop offset="1" stop-color="#D57BFF"/>
</linearGradient>
<clipPath id="clip0_1433_37097">
<rect width="1174" height="2236" fill="white" transform="matrix(-1 0 0 1 1174.35 0)"/>
</clipPath>
</defs>
</svg>
