<svg width="1790" height="2236" viewBox="0 0 1790 2236" fill="none" xmlns="http://www.w3.org/2000/svg">
<g clip-path="url(#clip0_1433_37098)">
<path fill-rule="evenodd" clip-rule="evenodd" d="M571.373 3.65912C572.053 2.87912 572.633 2.09912 573.183 1.21912C573.713 0.379118 574.823 -0.0708823 575.783 0.0091177C576.913 0.0991177 577.613 0.769118 578.183 1.67912C578.273 1.81912 578.353 1.94912 578.433 2.08912C578.443 2.10333 578.453 2.11866 578.463 2.13497L578.493 2.18081C578.52 2.22274 578.55 2.2694 578.583 2.31912C578.76 2.57115 578.979 2.80463 579.195 3.03535L579.196 3.03591L579.197 3.03658L579.197 3.03695C579.298 3.1444 579.398 3.25126 579.493 3.35912C582.043 6.27912 580.183 10.9991 576.463 11.6791C574.663 12.0091 572.763 11.3191 571.593 9.90912C570.233 8.26912 569.873 5.37912 571.363 3.65912H571.373ZM311.392 19.4091C317.222 19.4091 316.442 28.4091 310.672 28.4091C304.902 28.4091 305.622 19.4091 311.392 19.4091ZM663.403 129.449C665.003 128.119 667.103 127.459 669.173 127.619C670.133 127.699 670.962 127.959 671.752 128.329L672.323 127.879C674.753 125.939 678.463 129.119 676.413 131.679L675.812 132.429C676.343 133.619 676.652 134.829 676.532 136.279C676.362 138.419 675.313 140.449 673.653 141.819C670.293 144.609 665.143 144.139 662.343 140.769C659.552 137.409 660.023 132.259 663.393 129.459L663.403 129.449ZM360.818 344.678L360.722 344.689V344.729C358.962 344.939 357.802 346.839 358.102 348.509C358.372 349.989 359.582 350.989 361.042 351.169L362.302 351.319H362.342C362.832 351.609 363.362 351.809 363.932 351.949C365.582 354.079 368.252 355.479 370.882 355.689C374.262 355.959 377.632 354.389 379.602 351.619C381.622 348.779 381.962 344.999 380.492 341.849C379.492 339.709 377.372 337.419 374.992 336.809L374.735 336.743C372.582 336.19 372.153 336.08 369.842 336.359C369.362 336.409 368.412 336.739 367.862 336.939C367.772 336.929 367.682 336.917 367.592 336.904C367.533 336.896 367.474 336.888 367.415 336.88C367.384 336.876 367.353 336.873 367.322 336.869C363.232 336.479 360.272 341.039 361.882 344.539L361.858 344.544C361.819 344.552 361.785 344.559 361.752 344.559C361.612 344.58 361.469 344.599 361.327 344.617L361.167 344.636L360.989 344.658L360.818 344.678ZM663.523 480.349C672.843 480.349 671.593 494.729 662.373 494.729C653.153 494.729 654.303 480.349 663.523 480.349ZM562.313 539.359C561.573 540.409 561.153 541.569 561.043 542.839L561.063 542.829C560.823 545.799 562.683 549.029 565.623 549.929L565.89 550.01C566.103 550.075 566.317 550.139 566.531 550.204C567.216 550.41 567.904 550.617 568.583 550.839C568.883 550.999 569.173 551.149 569.413 551.219C571.693 551.919 573.773 551.959 575.993 550.989C577.443 550.349 578.923 549.439 579.753 548.039C581.123 545.719 581.994 542.519 580.484 539.989C579.254 537.949 578.083 536.709 575.863 535.739C575.773 535.699 575.68 535.659 575.587 535.619C575.495 535.579 575.403 535.539 575.313 535.499C572.933 534.458 570.937 535.157 568.788 535.91L568.734 535.929C568.069 536.138 567.414 536.336 566.759 536.534L566.743 536.539C564.923 537.099 563.453 537.749 562.313 539.359ZM714.183 714.709C714.477 714.445 714.774 714.183 715.07 713.922C715.266 713.749 715.462 713.576 715.657 713.403C715.759 713.312 715.861 713.221 715.963 713.129C717.333 711.919 719.953 711.649 721.383 712.929C721.923 713.409 722.463 713.899 723.003 714.379C727.773 718.649 726.483 725.679 720.103 727.409C720.092 727.409 720.078 727.412 720.064 727.417L720.06 727.418L720.051 727.421C720.044 727.424 720.038 727.426 720.033 727.429C717.533 728.099 715.573 727.429 714.253 726.069C710.773 723.479 710.933 717.579 714.183 714.709ZM792.022 899.039C801.672 899.039 800.372 913.919 790.822 913.919C781.272 913.919 782.472 899.039 792.022 899.039ZM599.993 914.669C604.033 913.929 607.633 916.099 609.313 919.489C610.383 920.119 611.173 921.159 611.413 922.449C611.723 924.149 610.873 926.099 609.383 927.019C609.183 927.439 608.953 927.859 608.653 928.279C607.343 930.119 605.333 931.399 603.113 931.799C598.443 932.649 593.833 929.449 592.983 924.789C592.133 920.119 595.333 915.509 599.993 914.659V914.669ZM725.152 997.639C720.022 997.639 715.452 1000.85 715.012 1006.27C714.622 1011.08 718.512 1016.41 723.642 1016.41C728.772 1016.41 733.342 1013.2 733.782 1007.78C734.172 1002.98 730.282 997.639 725.152 997.639ZM741.21 618.294L741.38 618.267C741.541 618.241 741.703 618.215 741.862 618.189C743.022 616.639 744.932 615.829 746.932 615.879H747.022C750.142 615.959 752.522 619.069 752.282 622.059C752.012 625.429 749.222 627.239 746.102 627.319H746.012C744.512 627.359 742.762 626.309 741.812 624.989C741.659 624.964 741.506 624.94 741.354 624.915C741.198 624.89 741.044 624.864 740.892 624.839C739.432 624.609 738.232 623.699 737.952 622.179C737.642 620.459 738.822 618.679 740.572 618.399L740.736 618.371L740.959 618.335L741.21 618.294ZM471.254 687.939C479.444 687.939 478.344 700.569 470.244 700.569C462.144 700.569 463.154 687.939 471.254 687.939ZM588.162 650.289L589.152 650.109C589.752 649.369 590.502 648.769 591.422 648.339C592.852 647.669 595.022 647.369 596.502 648.119C596.52 648.125 596.535 648.135 596.55 648.144C596.56 648.15 596.57 648.155 596.582 648.159C598.732 649.249 600.362 650.679 600.822 653.179C601.372 656.179 599.762 658.979 597.122 660.339C597.104 660.345 597.089 660.356 597.075 660.365C597.067 660.37 597.06 660.375 597.052 660.379C594.432 661.719 590.922 660.829 589.082 658.569L588.602 658.479C586.752 658.149 585.222 657.049 584.862 655.099C584.452 652.889 585.972 650.689 588.192 650.289H588.162ZM652.812 640.709C653.652 639.529 654.942 638.709 656.362 638.449C660.032 637.779 662.982 640.779 662.922 644.319C663.752 644.729 664.352 645.209 665.012 645.929C665.022 645.941 665.031 645.952 665.039 645.962L665.057 645.982C665.069 645.995 665.08 646.007 665.091 646.017L665.111 646.038L665.112 646.039C666.102 647.059 666.712 648.259 666.582 649.779C666.462 651.299 665.422 653.149 663.882 653.659C662.202 654.219 660.792 654.639 658.972 654.039C657.912 653.689 656.882 653.159 655.992 652.499C653.622 650.739 652.072 647.879 651.872 644.939C651.772 643.379 651.872 642.039 652.812 640.709ZM517.523 803.369C515.643 804.639 514.523 807.319 514.343 809.499L514.333 809.479C514.143 811.779 514.883 814.099 516.353 815.869C518.813 818.849 523.423 820.069 526.943 818.249L527.043 818.199C529.893 816.729 531.893 814.119 532.153 810.849C532.313 808.929 531.803 806.679 530.623 805.059C530.608 805.029 530.593 804.996 530.578 804.964L530.555 804.914C530.547 804.899 530.54 804.884 530.533 804.869L530.489 804.7L530.421 804.438C530.378 804.276 530.335 804.114 530.293 803.949C529.593 801.249 527.653 799.149 524.743 798.919C522.303 798.729 519.403 800.219 518.573 802.659C518.462 802.732 518.349 802.808 518.233 802.887L518.055 803.008L518.038 803.02L517.827 803.164C517.77 803.203 517.712 803.242 517.653 803.282L517.523 803.369ZM373.553 639.449C373.623 638.969 373.693 638.489 373.753 638.009C374.023 636.069 375.293 634.469 377.293 634.099C379.543 633.689 381.993 635.249 382.323 637.579L382.503 638.869C382.533 639.099 382.573 639.329 382.603 639.559C384.043 641.189 384.483 643.529 383.853 645.779C383.853 645.791 383.849 645.804 383.846 645.815L383.841 645.827C383.837 645.839 383.833 645.85 383.833 645.859C383.113 648.459 380.133 650.079 377.583 649.879C374.653 649.639 372.783 647.549 372.043 644.859C372.043 644.844 372.038 644.829 372.033 644.814C372.028 644.799 372.023 644.784 372.023 644.769C371.543 643.019 372.263 640.869 373.563 639.439L373.553 639.449ZM333.832 949.869C333.499 950.413 333.155 950.952 332.811 951.489L332.6 951.821L332.422 952.099H332.432C330.872 954.559 330.442 957.449 331.702 960.149C332.912 962.739 335.472 964.529 338.332 964.759C341.122 964.989 343.902 963.689 345.522 961.409C347.012 959.299 347.722 955.699 346.252 953.359C345.722 952.529 345.192 951.699 344.682 950.859C344.584 950.695 344.487 950.529 344.391 950.363L344.384 950.351C343.848 949.427 343.31 948.499 342.372 947.899C341.352 947.249 340.612 946.919 339.402 946.799H339.322C337.082 946.569 334.952 948.039 333.832 949.869ZM471.152 1100.49C477.792 1100.49 476.902 1110.74 470.332 1110.74C463.762 1110.74 464.582 1100.49 471.152 1100.49ZM948.413 413.799C947.413 406.459 936.923 407.619 935.993 414.419L936.003 414.429C935.623 417.169 935.853 420.849 938.593 422.399C940.163 423.779 942.403 424.309 944.863 423.009C945.773 422.609 946.603 421.949 947.283 420.989C947.423 420.779 947.553 420.549 947.673 420.319C948.693 418.449 948.733 416.149 948.413 413.799ZM1052.58 546.029C1052.89 545.918 1053.21 545.816 1053.54 545.713C1053.88 545.604 1054.23 545.493 1054.57 545.369C1055.47 544.229 1056.84 543.409 1058.22 543.159C1060.38 542.769 1062.38 543.619 1063.82 545.199L1063.86 545.239C1064.86 546.329 1065.31 547.989 1065.19 549.439C1065.05 551.159 1064.22 552.259 1063.1 553.469C1063.08 553.489 1063.07 553.509 1063.05 553.519C1061.68 554.989 1059.02 555.169 1057.25 554.529C1056.16 554.129 1055.36 553.499 1054.76 552.719L1054.01 552.449L1054 552.445C1053.77 552.363 1053.54 552.281 1053.32 552.202C1053.16 552.146 1053 552.092 1052.84 552.039C1050.34 551.159 1049.81 547.009 1052.58 546.029ZM1020.64 602.409C1023.79 602.409 1023.37 607.269 1020.25 607.269C1017.13 607.269 1017.52 602.409 1020.64 602.409ZM903.503 494.149C909.413 494.149 908.623 503.269 902.773 503.269C896.923 503.269 897.653 494.149 903.503 494.149ZM208.598 299.901L208.283 299.969L208.303 299.979C205.004 300.689 202.683 303.789 203.303 307.199C203.594 308.779 204.504 310.219 205.813 311.149C206.744 311.809 207.774 312.179 208.914 312.279C209.331 312.368 209.756 312.471 210.186 312.575C211.977 313.008 213.847 313.461 215.614 313.009C218.694 312.209 221.094 309.969 221.364 306.649C221.594 303.759 219.744 300.249 216.753 299.479C215.073 299.039 213.734 298.799 212.013 299.169C211.735 299.229 211.459 299.288 211.184 299.348L210.874 299.415L210.344 299.529C210.058 299.587 209.774 299.647 209.49 299.707C209.198 299.77 208.906 299.833 208.613 299.897L208.598 299.901ZM534.374 507.889H534.364ZM534.364 507.889C533.844 509.109 533.164 510.189 532.394 511.269ZM532.394 511.269C530.924 513.339 533.634 515.709 535.573 514.219ZM535.573 514.219C538.884 511.679 542.634 508.039 542.053 503.509ZM542.053 503.509C541.534 499.439 537.184 498.209 533.664 498.539ZM533.664 498.539C530.204 498.869 530.954 503.719 533.954 504.239ZM533.954 504.239L533.984 504.245ZM533.984 504.245L534.002 504.249ZM534.002 504.249L534.032 504.255ZM534.032 504.255L534.088 504.265ZM534.088 504.265L534.097 504.267ZM534.097 504.267L534.105 504.268ZM534.105 504.268L534.113 504.27ZM534.113 504.27C534.164 504.279 534.215 504.289 534.267 504.299ZM534.267 504.299C534.309 504.308 534.351 504.318 534.394 504.329ZM534.394 504.329C534.409 504.371 534.425 504.413 534.441 504.454ZM534.441 504.454L534.469 504.529ZM534.469 504.529L534.471 504.532ZM534.471 504.532C534.583 504.825 534.68 505.077 534.664 505.289ZM534.664 505.289C534.639 505.561 534.635 505.836 534.631 506.111ZM650.124 293.259C648.884 294.199 647.914 295.709 647.784 297.299H647.794C647.644 299.179 648.864 301.019 650.294 302.109C651.354 303.669 652.534 304.869 654.474 305.579C655.914 306.099 657.384 306.229 658.884 305.959C662.624 305.269 665.504 302.089 665.814 298.299C666.114 294.539 663.804 290.949 660.264 289.659C656.914 288.439 652.404 289.519 650.464 292.709L650.174 293.179C650.154 293.209 650.144 293.229 650.124 293.259ZM472.153 220.189L473.803 219.949C473.939 219.819 474.082 219.699 474.23 219.586C474.333 219.508 474.437 219.433 474.543 219.359C474.747 218.963 475.005 218.567 475.255 218.185L475.255 218.184C475.434 217.91 475.607 217.643 475.753 217.389C476.363 216.359 477.753 215.829 478.893 215.929C480.234 216.039 481.133 216.839 481.793 217.939C482.393 218.949 482.833 219.789 483.183 220.939C483.234 221.119 483.273 221.319 483.303 221.519C483.573 222.069 483.753 222.649 483.833 223.229C484.073 224.849 483.773 226.439 482.813 227.799C481.823 229.189 480.554 229.759 478.984 230.229C478.314 230.429 477.563 230.409 476.873 230.369C476.753 230.369 476.623 230.339 476.503 230.309C476.425 230.296 476.343 230.275 476.263 230.256C476.219 230.246 476.176 230.236 476.133 230.229L476.127 230.229L476.117 230.23L476.094 230.231C476.052 230.233 475.991 230.236 475.903 230.229C475.044 230.229 474.172 230.099 473.312 229.97C473.081 229.935 472.852 229.901 472.623 229.869C470.433 229.559 468.614 228.119 468.203 225.869C467.744 223.329 469.503 220.549 472.143 220.189H472.153ZM144.253 396.379C144.653 394.789 145.734 393.289 147.703 392.189C149.513 391.189 151.523 391.199 153.523 391.209C162.553 391.249 161.293 405.059 152.403 405.099C150.203 405.109 148.553 404.569 146.663 403.519C143.683 401.879 143.243 398.929 144.243 396.369L144.253 396.379ZM254.875 551.192L254.572 551.239L254.562 551.229C252.742 551.519 251.512 553.379 251.842 555.159C252.132 556.739 253.382 557.689 254.902 557.929C255.334 558 255.766 558.068 256.198 558.136L256.208 558.137L256.219 558.139L256.229 558.141L256.239 558.142L256.281 558.149C256.742 558.222 257.202 558.294 257.662 558.369C257.963 558.419 258.262 558.459 258.562 558.509C260.692 559.219 262.443 558.689 263.943 557.009C265.162 555.649 264.902 553.159 263.752 551.859C262.127 550.024 260.174 550.099 258.07 550.803C259.073 550.466 258.733 550.54 258.33 550.627C258.181 550.659 258.024 550.693 257.922 550.709L257.072 550.839C256.343 550.962 255.606 551.078 254.875 551.192ZM463.303 417.559C464.823 415.419 468.243 414.609 470.383 416.359C470.824 416.716 471.262 417.076 471.7 417.436L471.728 417.459C471.975 417.662 472.221 417.864 472.468 418.066C472.669 418.231 472.871 418.395 473.073 418.559C473.343 418.779 473.623 419.009 473.893 419.229C473.932 419.242 473.97 419.259 474.006 419.275L474.01 419.277C474.029 419.285 474.046 419.292 474.063 419.299C474.11 419.318 474.157 419.337 474.204 419.356L474.269 419.382L474.443 419.454L474.622 419.528C474.69 419.555 474.757 419.583 474.823 419.609C477.433 420.689 479.453 423.389 479.063 426.329C478.703 429.049 476.793 431.649 473.903 432.029C470.593 432.469 467.783 430.839 466.513 427.749C466.475 427.659 466.438 427.569 466.402 427.48L466.397 427.468L466.382 427.433L466.379 427.425L466.376 427.416L466.362 427.383L466.308 427.25C466.286 427.197 466.265 427.145 466.243 427.094L466.215 427.028L466.193 426.979L466.19 426.975C466.091 426.856 465.992 426.738 465.893 426.609C465.103 425.649 464.323 424.689 463.543 423.729C462.103 421.969 461.983 419.409 463.313 417.549L463.303 417.559ZM233.414 731.619C242.864 731.619 241.594 746.199 232.244 746.199C222.894 746.199 224.064 731.619 233.414 731.619ZM149.612 904.899C158.912 904.899 157.662 919.239 148.462 919.239C139.262 919.239 140.412 904.899 149.612 904.899ZM567.283 411.059C567.658 410.969 568.033 410.877 568.408 410.784C568.783 410.692 569.158 410.599 569.533 410.509C571.363 410.059 572.933 409.759 574.813 410.479C578.433 411.869 579.203 417.659 575.194 419.199C573.604 419.809 572.444 420.019 570.734 419.599C570.56 419.557 570.387 419.515 570.215 419.473L569.86 419.387L569.555 419.313C569.372 419.268 569.188 419.224 569.003 419.179C568.552 419.071 568.101 418.959 567.652 418.848C567.314 418.764 566.978 418.681 566.644 418.599C564.974 418.189 563.943 416.199 564.073 414.599C564.223 412.759 565.563 411.479 567.283 411.049V411.059ZM418.132 851.939C424.892 851.939 423.982 862.359 417.292 862.359C410.602 862.359 411.442 851.939 418.132 851.939ZM210.633 251.089C213.013 251.089 212.693 254.769 210.343 254.769C207.993 254.769 208.283 251.089 210.633 251.089ZM534.654 345.549C537.694 345.549 537.284 350.239 534.274 350.239C531.264 350.239 531.644 345.549 534.654 345.549ZM894.849 329.994C893.921 329.967 892.994 329.939 892.064 329.909V329.919C890.464 329.869 890.304 332.409 891.864 332.359L892.345 332.344L892.8 332.33C893.422 332.311 894.043 332.292 894.665 332.274C895.597 332.247 896.529 332.219 897.464 332.189C898.794 332.149 899.024 330.119 897.634 330.079C897.278 330.068 896.922 330.057 896.566 330.046C895.993 330.028 895.421 330.011 894.849 329.994ZM819.612 277.619C823.812 277.619 823.252 284.099 819.092 284.099C814.932 284.099 815.452 277.619 819.612 277.619ZM791.843 202.979C798.663 202.979 797.743 213.489 791.003 213.489C784.263 213.489 785.103 202.979 791.843 202.979ZM501.212 590.489C505.342 590.489 504.782 596.859 500.702 596.859C496.622 596.859 497.132 590.489 501.212 590.489ZM680.093 555.339C686.333 555.339 685.493 564.959 679.323 564.959C673.153 564.959 673.923 555.339 680.093 555.339ZM886.572 730.969C889.612 730.969 889.202 735.659 886.192 735.659C883.182 735.659 883.562 730.969 886.572 730.969ZM808.333 630.819C810.863 630.819 810.523 634.719 808.023 634.719C805.523 634.719 805.833 630.819 808.333 630.819ZM858.632 624.949C861.522 624.949 861.132 629.409 858.272 629.409C855.412 629.409 855.772 624.949 858.632 624.949ZM920.402 710.239C928.602 710.239 927.502 722.879 919.392 722.879C911.282 722.879 912.292 710.239 920.402 710.239ZM979.642 712.699C980.362 710.709 982.142 709.189 984.222 708.809C986.272 708.429 988.602 709.229 989.882 710.919C991.602 713.199 991.622 715.939 990.132 718.299L990.012 718.479C989.932 719.329 989.642 720.099 989.152 720.799C988.442 721.809 987.332 722.509 986.122 722.729C983.552 723.199 981.072 721.439 980.582 718.889C980.542 718.699 980.502 718.499 980.472 718.309C980.426 718.235 980.38 718.161 980.333 718.087L980.279 718.001L980.24 717.94C980.196 717.872 980.153 717.805 980.11 717.738L980.041 717.63L979.982 717.539C979.122 716.169 979.112 714.159 979.642 712.689V712.699ZM1004.15 845.189C1008.33 845.189 1007.77 851.629 1003.63 851.629C999.492 851.629 1000.01 845.189 1004.15 845.189ZM944.513 808.499C947.973 808.499 947.503 813.839 944.083 813.839C940.663 813.839 941.093 808.499 944.513 808.499ZM1071.01 758.149C1072.13 758.149 1071.98 759.889 1070.87 759.889C1069.76 759.889 1069.9 758.149 1071.01 758.149ZM780.643 554.989C784.403 554.989 783.893 560.789 780.173 560.789C776.453 560.789 776.923 554.989 780.643 554.989ZM747.124 804.039C747.334 801.479 744.984 799.349 742.454 799.809V799.829C740.164 800.249 739.083 802.289 739.254 804.449L739.314 805.189C739.344 805.449 739.364 805.719 739.384 805.989C739.451 806.772 739.855 807.364 740.283 807.991L740.344 808.079C740.694 808.599 740.984 808.989 741.464 809.419C742.064 809.949 742.884 810.039 743.624 809.949C744.832 809.799 745.479 808.851 746.099 807.942L746.158 807.855L746.224 807.759C746.917 806.745 747.002 805.629 747.09 804.473C747.1 804.329 747.111 804.184 747.124 804.039ZM1193.08 929.879C1195.4 929.459 1197.69 931.049 1198.12 933.369C1198.46 935.239 1197.5 937.059 1195.93 937.929V937.969C1195.84 938.899 1195.16 939.679 1194.23 939.849C1193.19 940.039 1191.92 939.309 1191.82 938.179C1191.82 938.099 1191.81 938.019 1191.8 937.94V937.939C1190.68 937.319 1189.83 936.219 1189.59 934.919C1189.17 932.599 1190.76 930.309 1193.08 929.879ZM1122.26 830.839C1122.85 828.939 1121.68 826.869 1119.6 826.699L1119.61 826.689C1117.8 826.549 1115.72 828.379 1116.32 830.329L1116.42 830.647L1116.5 830.908L1116.59 831.182C1116.64 831.368 1116.7 831.554 1116.76 831.74L1116.97 832.419C1117.12 832.9 1117.27 833.381 1117.41 833.859C1117.68 834.719 1118.23 835.399 1119.2 835.479C1120.05 835.549 1120.96 835.019 1121.22 834.179L1121.28 833.984L1121.35 833.778L1121.47 833.388C1121.56 833.073 1121.66 832.758 1121.76 832.442L1122.01 831.644L1122.03 831.572L1122.26 830.839ZM1042.51 898.029C1042.45 897.629 1042.47 897.279 1042.57 896.979C1043.2 894.539 1047.81 895.189 1047.23 897.949C1047.23 898.759 1047.06 899.389 1046.8 900.009L1046.79 900.076C1046.78 900.109 1046.77 900.142 1046.77 900.175L1046.75 900.257L1046.74 900.322L1046.74 900.327C1046.71 900.45 1046.69 900.571 1046.66 900.689C1046.26 902.599 1043.55 902.989 1043.1 900.869C1043.09 900.791 1043.07 900.713 1043.05 900.636C1043.04 900.563 1043.02 900.49 1043.01 900.418L1043 900.397C1042.97 900.239 1042.94 900.08 1042.9 899.919C1042.68 899.319 1042.55 898.739 1042.52 898.019L1042.51 898.029ZM1248.86 827.109C1249.73 824.949 1247.67 822.659 1245.45 823.069L1245.44 823.059C1243.43 823.429 1242.5 825.539 1243.23 827.349C1243.34 827.615 1243.45 827.881 1243.55 828.146L1243.86 828.914L1243.88 828.972L1243.89 828.995L1244.18 829.7L1244.34 830.103L1244.49 830.489C1245.05 831.899 1247.04 831.629 1247.55 830.359C1247.62 830.2 1247.68 830.041 1247.75 829.882C1247.81 829.711 1247.88 829.541 1247.95 829.37L1248.2 828.751L1248.2 828.747L1248.21 828.736C1248.42 828.193 1248.64 827.65 1248.86 827.109ZM1145.71 431.429C1150.31 431.429 1149.69 438.519 1145.14 438.519C1140.59 438.519 1141.16 431.429 1145.71 431.429ZM1384.01 559.129C1387.23 559.129 1386.8 564.099 1383.61 564.099C1380.42 564.099 1380.82 559.129 1384.01 559.129ZM497.683 203.439C503.293 203.439 502.543 212.099 496.983 212.099C491.423 212.099 492.123 203.439 497.683 203.439ZM259.292 464.259C264.792 464.259 264.053 472.729 258.613 472.729C253.173 472.729 253.853 464.259 259.292 464.259ZM82.5934 650.299C82.5972 650.292 82.6024 650.283 82.6074 650.274L82.6174 650.258L82.6234 650.249L82.6334 650.259C82.7235 650.109 82.9935 650.209 82.9335 650.379C82.9166 650.42 82.902 650.46 82.8888 650.501C82.8632 650.581 82.8433 650.663 82.8234 650.749C82.8734 650.769 82.9034 650.819 82.8934 650.879C82.8616 651.031 82.8488 651.183 82.8361 651.335C82.8254 651.463 82.8148 651.589 82.7932 651.713C82.7758 651.814 82.7511 651.912 82.7135 652.009L82.7188 652.012L82.7235 652.015L82.7266 652.018L82.7285 652.02C82.7307 652.022 82.7319 652.024 82.7327 652.026C82.7335 652.028 82.7335 652.029 82.7335 652.029C82.8436 652.289 82.8334 652.559 82.7933 652.839C82.8037 652.862 82.8136 652.885 82.8232 652.909C82.837 652.942 82.8503 652.976 82.8636 653.01C82.8861 653.067 82.9086 653.124 82.9335 653.179C83.2635 654.019 83.6034 654.839 84.0433 655.629C84.8033 656.979 85.7634 658.269 87.0533 659.239L87.2633 659.389C87.5034 659.509 87.7335 659.629 87.9735 659.749C90.6436 661.089 92.7234 661.769 95.8134 661.869C95.9115 661.871 96.0123 661.87 96.114 661.869H96.1151H96.1162H96.1173H96.1184H96.1198C96.4623 661.864 96.8164 661.859 97.1234 661.989H97.1434C97.1643 661.997 97.1818 662.013 97.1949 662.032C97.2134 662.058 97.2235 662.09 97.2235 662.119C97.2319 662.153 97.2297 662.186 97.2163 662.215C97.1978 662.256 97.1573 662.288 97.0934 662.299C97.0034 662.339 96.9135 662.359 96.8234 662.379C96.8162 662.39 96.8076 662.402 96.7972 662.413C96.7894 662.422 96.7806 662.43 96.7705 662.436C96.7572 662.444 96.7417 662.449 96.7235 662.449C96.5619 662.482 96.402 662.507 96.2423 662.526C96.0167 662.552 95.7917 662.568 95.5634 662.579C92.6835 662.759 89.5735 663.829 87.4435 665.689C86.3435 666.649 85.5333 667.999 85.2633 669.379C85.1475 669.98 85.1754 670.615 85.2034 671.251V671.252V671.252V671.253V671.254V671.255V671.256V671.257V671.258V671.259C85.2454 672.218 85.2876 673.181 84.8434 674.039C84.7957 674.129 84.7014 674.151 84.6163 674.13C84.559 674.116 84.5057 674.083 84.4735 674.039C84.4136 673.939 84.3534 673.839 84.3033 673.739C84.313 673.797 84.3228 673.853 84.3324 673.909C84.3428 673.968 84.3531 674.027 84.3634 674.089C84.3834 674.179 84.2435 674.219 84.2135 674.129C83.7235 672.829 83.3634 671.499 83.0634 670.149C82.9034 669.729 82.7236 669.319 82.4835 668.919C81.7036 667.569 80.6134 666.409 79.1134 665.709C77.9236 665.151 76.6442 664.813 75.363 664.475C75.1663 664.423 74.9694 664.371 74.7728 664.318C74.6101 664.275 74.4476 664.23 74.2855 664.185L74.1691 664.152L74.0741 664.125L73.9135 664.079C73.3997 663.931 72.8453 663.716 72.2887 663.499C71.491 663.189 70.6884 662.877 69.9933 662.759C69.9539 662.755 69.9144 662.748 69.875 662.741C69.8246 662.732 69.7742 662.72 69.7235 662.709C69.7036 662.709 69.7136 662.689 69.7235 662.689H69.8834C69.866 662.636 69.8895 662.58 69.9341 662.553C69.9656 662.533 70.0077 662.528 70.0533 662.549C70.0685 662.554 70.0811 662.559 70.0936 662.564C70.1061 662.569 70.1185 662.574 70.1334 662.579C70.5835 662.599 71.0734 662.549 71.5533 662.459C71.6134 662.369 71.7135 662.319 71.8534 662.319H72.1334C72.5735 662.209 72.9934 662.059 73.3634 661.899C73.5891 661.803 73.819 661.706 74.0515 661.608C76.4257 660.61 79.0792 659.494 80.4635 657.399C81.0829 656.461 81.4615 654.785 81.7356 653.571C81.7625 653.453 81.7883 653.338 81.8134 653.229C81.8204 653.194 81.8423 653.159 81.8684 653.131C81.8795 653.119 81.8915 653.108 81.9034 653.099C81.8235 652.239 81.8735 651.289 82.2035 650.489C82.2635 650.319 82.4435 650.269 82.5934 650.299ZM85.0533 668.239V668.259C85.057 668.252 85.0607 668.245 85.0638 668.237C85.0693 668.225 85.0734 668.212 85.0734 668.199C85.0635 668.209 85.0533 668.229 85.0533 668.239ZM86.7715 665.48L86.7433 665.509H86.7533L86.7864 665.476L86.8265 665.437C86.8424 665.421 86.8585 665.406 86.8751 665.39L86.8925 665.374L86.9108 665.358L86.9435 665.329L86.9242 665.339L86.917 665.342L86.9062 665.346L86.8999 665.348L86.896 665.349L86.8934 665.349C86.8676 665.375 86.8414 665.404 86.8154 665.432L86.8077 665.441L86.7715 665.48ZM91.7562 661.914C91.7371 661.919 91.7186 661.924 91.7003 661.929L91.6842 661.933L91.6619 661.939L91.6416 661.944L91.6283 661.946L91.6134 661.949C91.6134 661.919 91.5934 661.889 91.5734 661.869C91.595 661.875 91.6156 661.88 91.6359 661.885L91.6737 661.894L91.6796 661.895L91.7158 661.904L91.7433 661.911L91.7562 661.914ZM81.2335 660.549H81.3334V660.539H81.2833C81.2634 660.549 81.2535 660.549 81.2335 660.549ZM81.2035 657.879C81.2235 657.869 81.2533 657.849 81.2533 657.849L81.2472 657.838L81.2433 657.831L81.2426 657.83C81.2402 657.826 81.2382 657.823 81.2367 657.82C81.2354 657.817 81.2344 657.815 81.2339 657.813L81.2335 657.809L81.2249 657.825C81.215 657.843 81.2035 657.864 81.2035 657.879ZM257.791 819.56C257.784 819.57 257.777 819.581 257.773 819.589C257.573 819.549 257.333 819.609 257.243 819.839C256.803 820.909 256.733 822.179 256.843 823.329C256.783 823.369 256.743 823.429 256.723 823.499L256.668 823.738L256.611 823.991L256.608 824.005L256.607 824.005C256.238 825.631 255.734 827.844 254.913 829.089C253.065 831.888 249.543 833.375 246.384 834.708L246.383 834.708C246.055 834.846 245.731 834.983 245.413 835.119C244.913 835.329 244.353 835.529 243.763 835.689H243.393C243.203 835.689 243.073 835.759 242.993 835.869C242.353 835.989 241.703 836.059 241.093 836.029C241.076 836.017 241.055 836.009 241.032 836C241.017 835.994 241 835.987 240.983 835.979C240.833 835.909 240.713 836.049 240.763 836.159C240.711 836.159 240.66 836.159 240.608 836.163C240.59 836.165 240.572 836.167 240.553 836.169C240.549 836.169 240.546 836.17 240.544 836.171L240.541 836.173C240.538 836.176 240.537 836.182 240.54 836.187C240.542 836.191 240.547 836.196 240.553 836.199C240.585 836.207 240.616 836.214 240.648 836.221C240.684 836.229 240.721 836.236 240.758 836.242L240.801 836.25L240.913 836.269C241.851 836.43 242.945 836.855 244.028 837.276C244.759 837.56 245.484 837.842 246.153 838.039C246.785 838.223 247.422 838.392 248.06 838.561C249.784 839.018 251.507 839.474 253.113 840.219C255.113 841.159 256.573 842.719 257.623 844.519C257.943 845.059 258.183 845.609 258.393 846.159C258.793 847.959 259.283 849.749 259.933 851.489C259.973 851.609 260.153 851.559 260.133 851.439C260.129 851.42 260.126 851.4 260.122 851.381C260.117 851.352 260.112 851.323 260.107 851.294L260.094 851.214L260.081 851.134C260.073 851.082 260.063 851.03 260.053 850.979C260.123 851.119 260.193 851.249 260.283 851.379C260.393 851.529 260.673 851.579 260.773 851.379C261.367 850.234 261.31 848.949 261.253 847.668C261.215 846.812 261.177 845.958 261.333 845.149C261.693 843.309 262.773 841.499 264.253 840.209C267.103 837.719 271.273 836.289 275.133 836.049C275.663 836.019 276.163 835.979 276.683 835.879C276.753 835.869 276.793 835.829 276.813 835.779C276.874 835.769 276.937 835.754 276.999 835.736C277.06 835.719 277.119 835.699 277.173 835.679C277.323 835.659 277.373 835.549 277.343 835.439C277.343 835.369 277.303 835.299 277.233 835.269C277.233 835.269 277.213 835.269 277.203 835.259H277.193C276.791 835.088 276.333 835.094 275.886 835.1H275.885H275.884H275.883H275.882H275.881H275.88C275.729 835.102 275.579 835.104 275.433 835.099C271.293 834.959 268.513 834.059 264.943 832.259C264.623 832.099 264.313 831.939 263.993 831.769C263.942 831.729 263.888 831.689 263.834 831.65C263.793 831.619 263.752 831.589 263.713 831.559C261.993 830.259 260.703 828.539 259.683 826.729C259.093 825.679 258.643 824.569 258.193 823.459C258.163 823.385 258.131 823.31 258.099 823.235C258.066 823.16 258.033 823.084 258.003 823.009C258.053 822.639 258.073 822.269 257.913 821.919C257.913 821.909 257.903 821.899 257.893 821.889C257.999 821.6 258.026 821.301 258.052 821.001C258.061 820.89 258.071 820.779 258.085 820.669C258.091 820.616 258.099 820.563 258.108 820.511C258.115 820.467 258.124 820.423 258.133 820.379C258.153 820.299 258.103 820.229 258.043 820.199C258.083 820.029 258.123 819.869 258.183 819.709C258.273 819.479 257.903 819.349 257.773 819.539L257.813 819.529C257.813 819.529 257.802 819.544 257.791 819.56ZM261.063 843.629V843.609C261.063 843.589 261.083 843.569 261.093 843.549C261.093 843.564 261.089 843.576 261.083 843.588C261.076 843.601 261.068 843.614 261.063 843.629ZM263.423 839.84L263.442 839.817C263.455 839.803 263.467 839.789 263.48 839.775C263.494 839.759 263.508 839.744 263.523 839.729C263.536 839.729 263.549 839.725 263.562 839.719L263.573 839.714L263.583 839.709C263.538 839.749 263.495 839.789 263.453 839.83C263.41 839.869 263.368 839.909 263.323 839.949C263.358 839.914 263.39 839.877 263.423 839.84ZM270.073 835.129C270.038 835.139 270.001 835.147 269.964 835.154L269.934 835.16L269.908 835.166C269.897 835.168 269.885 835.171 269.874 835.173L269.853 835.179C269.848 835.158 269.84 835.137 269.831 835.117C269.822 835.097 269.813 835.078 269.803 835.059L270.073 835.119V835.129ZM256.073 833.309H255.943C255.963 833.309 255.983 833.309 256.013 833.289H256.073V833.309ZM255.928 829.714C255.919 829.72 255.91 829.726 255.903 829.729L255.933 829.639C255.938 829.649 255.943 829.657 255.948 829.664L255.955 829.674L255.959 829.682L255.963 829.689C255.963 829.689 255.946 829.702 255.928 829.714ZM1065.34 992.489C1065.36 992.489 1065.39 992.509 1065.39 992.509H1065.37C1065.51 992.589 1065.42 992.809 1065.25 992.759C1065.13 992.729 1065.01 992.699 1064.89 992.679C1064.87 992.709 1064.82 992.729 1064.76 992.729C1064.61 992.705 1064.47 992.697 1064.32 992.689C1064.09 992.677 1063.87 992.665 1063.65 992.599C1063.65 992.601 1063.65 992.603 1063.65 992.604L1063.64 992.606L1063.64 992.607C1063.64 992.609 1063.63 992.609 1063.63 992.609C1063.37 992.709 1063.1 992.699 1062.83 992.669L1062.5 992.789C1061.69 993.069 1060.89 993.349 1060.12 993.709C1058.8 994.329 1057.56 995.119 1056.62 996.159C1056.6 996.188 1056.57 996.215 1056.55 996.242L1056.55 996.244C1056.52 996.272 1056.5 996.299 1056.47 996.329C1056.41 996.424 1056.35 996.519 1056.29 996.613C1056.24 996.709 1056.18 996.804 1056.12 996.899C1054.84 999.049 1054.21 1000.73 1054.15 1003.2C1054.15 1003.29 1054.15 1003.38 1054.16 1003.47C1054.16 1003.73 1054.17 1004.01 1054.05 1004.25V1004.27C1054.02 1004.31 1053.97 1004.34 1053.92 1004.34C1053.85 1004.36 1053.77 1004.33 1053.75 1004.24C1053.73 1004.2 1053.71 1004.16 1053.7 1004.12L1053.69 1004.09C1053.69 1004.08 1053.68 1004.07 1053.68 1004.05L1053.68 1004.05L1053.67 1004.03L1053.66 1004.02C1053.63 1004 1053.6 1003.98 1053.6 1003.95C1053.52 1003.64 1053.49 1003.33 1053.46 1003.02C1053.25 1000.71 1052.15 998.229 1050.3 996.549C1049.34 995.679 1048 995.049 1046.65 994.849C1046.06 994.765 1045.43 994.795 1044.81 994.824H1044.81C1043.87 994.868 1042.92 994.912 1042.07 994.569C1041.93 994.519 1041.96 994.339 1042.07 994.279C1042.16 994.229 1042.26 994.179 1042.36 994.139C1042.31 994.144 1042.26 994.151 1042.21 994.159C1042.14 994.168 1042.08 994.178 1042.02 994.189C1041.93 994.199 1041.89 994.099 1041.98 994.069C1043.25 993.669 1044.55 993.369 1045.87 993.109C1046.28 992.969 1046.68 992.819 1047.07 992.629C1048.38 991.979 1049.51 991.099 1050.17 989.889C1050.71 988.917 1051.03 987.869 1051.35 986.825L1051.35 986.823C1051.46 986.45 1051.58 986.078 1051.7 985.709C1051.84 985.304 1052.04 984.865 1052.24 984.423L1052.24 984.421C1052.54 983.772 1052.84 983.118 1052.94 982.559C1052.95 982.479 1052.97 982.409 1052.99 982.339C1052.99 982.337 1052.99 982.336 1052.99 982.335L1053 982.335C1053 982.335 1053 982.335 1053 982.335C1053.01 982.335 1053.01 982.339 1053.01 982.339C1053.02 982.389 1053.02 982.429 1053.02 982.469C1053.1 982.439 1053.21 982.509 1053.16 982.599L1053.13 982.659C1053.11 983.029 1053.16 983.409 1053.26 983.799C1053.29 983.815 1053.31 983.834 1053.33 983.855C1053.37 983.902 1053.4 983.964 1053.4 984.039V984.259C1053.52 984.609 1053.67 984.939 1053.83 985.239C1053.94 985.427 1054.04 985.618 1054.14 985.812C1055.16 987.692 1056.29 989.79 1058.35 990.869C1059.28 991.35 1060.92 991.634 1062.12 991.839L1062.12 991.84L1062.12 991.84L1062.12 991.84L1062.12 991.84L1062.31 991.873L1062.46 991.899C1062.47 991.901 1062.48 991.904 1062.49 991.907C1062.5 991.91 1062.51 991.915 1062.52 991.92C1062.54 991.927 1062.55 991.935 1062.56 991.944C1062.57 991.952 1062.58 991.961 1062.59 991.969C1063.43 991.889 1064.36 991.929 1065.15 992.179C1065.32 992.229 1065.37 992.369 1065.34 992.489ZM1047.78 994.659H1047.76V994.669C1047.78 994.679 1047.8 994.679 1047.82 994.679C1047.81 994.669 1047.79 994.659 1047.78 994.659ZM1050.56 996.038C1050.53 996.019 1050.51 995.999 1050.48 995.979V995.989L1050.66 996.139C1050.65 996.129 1050.64 996.109 1050.64 996.099C1050.62 996.079 1050.59 996.059 1050.56 996.039L1050.56 996.038ZM1054.04 999.849C1054.05 999.867 1054.06 999.894 1054.06 999.919C1054.07 999.951 1054.08 999.979 1054.08 999.979C1054.09 999.954 1054.09 999.927 1054.1 999.899C1054.11 999.872 1054.12 999.844 1054.12 999.819L1054.11 999.826C1054.1 999.83 1054.09 999.834 1054.09 999.838C1054.08 999.841 1054.07 999.844 1054.06 999.846C1054.06 999.848 1054.05 999.849 1054.04 999.849ZM1055.27 991.509V991.589H1055.28V991.549C1055.27 991.539 1055.27 991.519 1055.27 991.509ZM1057.89 991.449C1057.9 991.459 1057.92 991.489 1057.92 991.489C1057.93 991.485 1057.94 991.481 1057.94 991.478C1057.95 991.473 1057.96 991.469 1057.96 991.469L1057.94 991.463L1057.94 991.461C1057.92 991.455 1057.91 991.449 1057.89 991.449ZM1151.38 954.902C1151.37 954.895 1151.36 954.887 1151.35 954.879C1151.38 954.679 1151.33 954.449 1151.15 954.359C1150.33 953.939 1149.37 953.879 1148.5 954.009C1148.49 953.979 1148.47 953.953 1148.44 953.934C1148.42 953.916 1148.4 953.904 1148.37 953.899C1148.26 953.868 1148.14 953.836 1148.02 953.803C1146.78 953.461 1145.08 952.991 1144.11 952.189C1141.97 950.403 1140.8 946.932 1139.75 943.818L1139.75 943.817L1139.75 943.813L1139.74 943.775C1139.64 943.469 1139.53 943.166 1139.43 942.869C1139.26 942.379 1139.11 941.819 1138.98 941.249V940.879C1138.98 940.689 1138.92 940.559 1138.84 940.489C1138.74 939.859 1138.69 939.209 1138.7 938.609L1138.71 938.593L1138.71 938.584L1138.72 938.554L1138.72 938.527L1138.73 938.515L1138.73 938.499C1138.78 938.349 1138.67 938.229 1138.59 938.279C1138.59 938.209 1138.59 938.139 1138.58 938.069C1138.58 938.049 1138.56 938.049 1138.56 938.069C1138.54 938.189 1138.52 938.309 1138.51 938.429C1138.4 939.352 1138.09 940.428 1137.79 941.496L1137.79 941.497C1137.57 942.233 1137.37 942.965 1137.22 943.639C1137.09 944.266 1136.97 944.899 1136.85 945.532L1136.85 945.533C1136.52 947.245 1136.19 948.961 1135.64 950.559C1134.95 952.549 1133.78 954.019 1132.42 955.079C1132.01 955.399 1131.6 955.649 1131.18 955.869C1129.82 956.289 1128.46 956.799 1127.15 957.459C1127.06 957.499 1127.1 957.679 1127.19 957.659C1127.26 957.643 1127.32 957.626 1127.39 957.61C1127.44 957.596 1127.49 957.583 1127.54 957.569C1127.44 957.639 1127.34 957.719 1127.24 957.809C1127.13 957.919 1127.09 958.199 1127.24 958.299C1128.12 958.868 1129.09 958.795 1130.06 958.722C1130.71 958.674 1131.36 958.625 1131.98 958.769C1133.38 959.099 1134.77 960.149 1135.76 961.589C1137.68 964.379 1138.81 968.479 1139.03 972.299C1139.06 972.819 1139.09 973.319 1139.17 973.829C1139.17 973.869 1139.19 973.904 1139.21 973.929C1139.22 973.942 1139.23 973.952 1139.24 973.959C1139.26 974.079 1139.28 974.199 1139.32 974.309V974.319C1139.34 974.469 1139.42 974.509 1139.5 974.489C1139.51 974.489 1139.52 974.488 1139.53 974.486C1139.54 974.482 1139.56 974.474 1139.57 974.464C1139.6 974.445 1139.62 974.416 1139.63 974.379V974.349V974.339C1139.76 973.949 1139.75 973.498 1139.74 973.06C1139.73 972.983 1139.73 972.906 1139.73 972.83C1139.73 972.752 1139.73 972.675 1139.73 972.599C1139.79 968.509 1140.45 965.739 1141.77 962.179L1141.85 961.982L1141.89 961.864L1141.95 961.709L1142 961.594C1142.04 961.475 1142.09 961.357 1142.13 961.239C1142.16 961.194 1142.18 961.147 1142.21 961.1C1142.23 961.052 1142.26 961.004 1142.28 960.959C1143.25 959.239 1144.54 957.939 1145.91 956.899C1146.71 956.299 1147.54 955.839 1148.38 955.389C1148.46 955.352 1148.53 955.312 1148.59 955.272L1148.6 955.271C1148.64 955.246 1148.68 955.222 1148.72 955.199C1149 955.249 1149.28 955.259 1149.55 955.099C1149.55 955.099 1149.55 955.098 1149.56 955.096C1149.56 955.094 1149.56 955.093 1149.56 955.091C1149.57 955.087 1149.57 955.083 1149.57 955.079C1149.71 955.144 1149.86 955.177 1150 955.198C1150.09 955.21 1150.18 955.218 1150.27 955.227L1150.27 955.227L1150.27 955.227L1150.28 955.227C1150.43 955.241 1150.58 955.254 1150.72 955.289C1150.78 955.309 1150.83 955.259 1150.86 955.199C1150.92 955.218 1150.98 955.237 1151.04 955.257C1151.11 955.279 1151.17 955.303 1151.24 955.329C1151.41 955.409 1151.51 955.049 1151.36 954.919H1151.4C1151.4 954.919 1151.39 954.912 1151.38 954.902ZM1133.14 958.479H1133.16C1133.17 958.479 1133.19 958.499 1133.2 958.509C1133.19 958.509 1133.18 958.504 1133.17 958.499C1133.16 958.494 1133.15 958.489 1133.14 958.489V958.479ZM1136.03 960.733L1136.02 960.717L1136.04 960.744L1136.06 960.782L1136.09 960.821C1136.11 960.849 1136.13 960.879 1136.15 960.909C1136.15 960.897 1136.14 960.885 1136.14 960.873L1136.14 960.869L1136.13 960.864C1136.13 960.859 1136.13 960.854 1136.13 960.849C1136.12 960.838 1136.11 960.826 1136.1 960.814C1136.08 960.794 1136.06 960.774 1136.05 960.754L1136.03 960.733ZM1139.69 967.279C1139.69 967.244 1139.68 967.207 1139.67 967.169C1139.67 967.152 1139.67 967.134 1139.66 967.117L1139.66 967.093C1139.66 967.082 1139.65 967.07 1139.65 967.059C1139.68 967.049 1139.71 967.03 1139.74 967.01L1139.74 967.009C1139.73 967.062 1139.72 967.116 1139.72 967.169C1139.71 967.195 1139.71 967.221 1139.71 967.247L1139.7 967.279H1139.69ZM1140.92 953.399V953.27C1140.92 953.29 1140.92 953.31 1140.93 953.339V953.399H1140.92ZM1143.67 953.239C1143.67 953.239 1143.65 953.199 1143.64 953.169L1143.65 953.174L1143.66 953.178L1143.68 953.184C1143.69 953.189 1143.7 953.194 1143.71 953.199C1143.7 953.209 1143.69 953.219 1143.67 953.229V953.239ZM329.732 785.809C329.742 785.839 329.772 785.879 329.772 785.879V785.859C329.902 786.059 330.282 785.919 330.192 785.689C330.132 785.529 330.082 785.349 330.042 785.179C330.102 785.139 330.152 785.079 330.132 784.989C330.088 784.781 330.07 784.571 330.051 784.36C330.024 784.044 329.996 783.729 329.882 783.429C329.892 783.419 329.902 783.409 329.902 783.399C330.062 783.039 330.052 782.649 329.992 782.269C330.022 782.189 330.055 782.111 330.087 782.033C330.12 781.956 330.152 781.879 330.182 781.799C330.642 780.649 331.112 779.499 331.722 778.409C332.772 776.539 334.112 774.759 335.892 773.409C335.942 773.374 335.989 773.339 336.037 773.304L336.049 773.295L336.068 773.281L336.102 773.256C336.128 773.237 336.155 773.218 336.182 773.199C336.428 773.08 336.668 772.955 336.911 772.829C336.995 772.786 337.078 772.742 337.162 772.699C340.852 770.839 343.732 769.899 348.012 769.759C348.158 769.754 348.308 769.755 348.46 769.756C348.931 769.76 349.416 769.763 349.832 769.589H349.842C349.846 769.585 349.852 769.583 349.857 769.581C349.86 769.581 349.863 769.58 349.865 769.58C349.869 769.579 349.872 769.579 349.872 769.579C349.952 769.549 349.992 769.469 349.992 769.399C350.001 769.348 349.995 769.297 349.972 769.255C349.944 769.207 349.892 769.17 349.812 769.159H349.802C349.682 769.109 349.562 769.069 349.432 769.049C349.402 768.999 349.362 768.959 349.292 768.949C348.762 768.849 348.232 768.809 347.692 768.779C343.702 768.529 339.392 767.049 336.442 764.479C334.912 763.159 333.792 761.289 333.422 759.379C333.262 758.544 333.3 757.66 333.339 756.774C333.396 755.445 333.454 754.111 332.842 752.929C332.742 752.719 332.442 752.769 332.332 752.929C332.292 752.987 332.254 753.047 332.217 753.108C332.173 753.184 332.131 753.262 332.092 753.339C332.104 753.246 332.119 753.153 332.135 753.06C332.147 752.993 332.16 752.926 332.172 752.859C332.192 752.729 332.012 752.689 331.962 752.809C331.292 754.599 330.792 756.459 330.372 758.319C330.152 758.899 329.902 759.459 329.572 760.019C328.482 761.889 326.972 763.499 324.902 764.469C323.245 765.25 321.455 765.722 319.672 766.192C319.475 766.244 319.278 766.296 319.082 766.348C318.785 766.427 318.489 766.507 318.194 766.589C318.03 766.635 317.866 766.682 317.702 766.729C316.999 766.933 316.238 767.23 315.472 767.528C314.364 767.959 313.246 768.394 312.282 768.559C312.229 768.568 312.174 768.577 312.119 768.586C312.049 768.599 311.979 768.612 311.912 768.629C311.892 768.629 311.892 768.659 311.912 768.659C311.992 768.669 312.062 768.669 312.132 768.669C312.082 768.779 312.212 768.929 312.362 768.859C312.372 768.854 312.382 768.849 312.391 768.844C312.418 768.83 312.442 768.817 312.472 768.809C313.102 768.779 313.782 768.839 314.442 768.969C314.522 769.079 314.662 769.159 314.852 769.159H315.242C315.852 769.319 316.432 769.529 316.952 769.749C317.258 769.88 317.57 770.01 317.886 770.143C321.175 771.523 324.857 773.068 326.782 775.979C327.634 777.276 328.158 779.583 328.539 781.262C328.578 781.435 328.616 781.601 328.652 781.759C328.657 781.801 328.674 781.838 328.697 781.869C328.717 781.897 328.743 781.92 328.772 781.939C328.652 783.129 328.732 784.439 329.182 785.549C329.282 785.789 329.522 785.849 329.732 785.809ZM333.132 760.969V760.949C333.142 760.979 333.162 760.999 333.162 761.029C333.159 761.023 333.154 761.016 333.15 761.009C333.141 760.996 333.132 760.982 333.132 760.969ZM335.485 764.786L335.462 764.759L335.454 764.751C335.543 764.84 335.633 764.92 335.722 764.999L335.721 764.998C335.71 764.993 335.7 764.988 335.69 764.985C335.684 764.982 335.678 764.981 335.672 764.98C335.669 764.979 335.666 764.979 335.662 764.979L335.639 764.956L335.613 764.929L335.587 764.901C335.556 764.866 335.525 764.831 335.492 764.793L335.485 764.786ZM342.325 769.71C342.363 769.719 342.401 769.729 342.442 769.739C342.425 769.745 342.408 769.75 342.391 769.755L342.365 769.762L342.349 769.766C342.325 769.773 342.301 769.778 342.276 769.784L342.231 769.794L342.162 769.809C342.182 769.769 342.202 769.729 342.212 769.689C342.251 769.694 342.288 769.701 342.325 769.71ZM327.842 771.619H327.972V771.629H327.912C327.899 771.622 327.88 771.62 327.864 771.619C327.856 771.619 327.848 771.619 327.842 771.619ZM327.792 775.319C327.822 775.329 327.862 775.359 327.862 775.359H327.852C327.847 775.369 327.842 775.377 327.837 775.384C327.832 775.392 327.827 775.399 327.822 775.409L327.792 775.319ZM108.73 1081.74C108.713 1081.75 108.695 1081.75 108.682 1081.76C108.732 1081.98 108.642 1082.24 108.332 1082.34C106.872 1082.81 105.162 1082.87 103.602 1082.73C103.542 1082.79 103.462 1082.84 103.372 1082.86C103.174 1082.89 102.967 1082.93 102.751 1082.97L102.706 1082.97C100.504 1083.35 97.4919 1083.87 95.7817 1084.77C91.9659 1086.76 89.8837 1090.63 88.0156 1094.1L87.9805 1094.16L87.8043 1094.49L87.6791 1094.72L87.5674 1094.93L87.4419 1095.16C87.142 1095.71 86.8618 1096.33 86.6418 1096.97V1097.38C86.6418 1097.41 86.6399 1097.43 86.6362 1097.46C86.6327 1097.48 86.6274 1097.51 86.6208 1097.53C86.6064 1097.58 86.5851 1097.62 86.5583 1097.66C86.5326 1097.7 86.5018 1097.73 86.4673 1097.76C86.4552 1097.77 86.4426 1097.78 86.4296 1097.79L86.4133 1097.8L86.4017 1097.81L86.3818 1097.82C86.2019 1098.53 86.1018 1099.25 86.1318 1099.92L86.1919 1100.04C86.2819 1100.2 86.0919 1100.34 85.9419 1100.28C85.9419 1100.36 85.9319 1100.44 85.9219 1100.51C85.9219 1100.53 85.8918 1100.54 85.8818 1100.51C85.8533 1100.42 85.8348 1100.32 85.8158 1100.23C85.8081 1100.19 85.8003 1100.15 85.7917 1100.11C85.5964 1099.08 85.0471 1097.88 84.5027 1096.69C84.1274 1095.87 83.7546 1095.05 83.5017 1094.3C83.2582 1093.58 83.0369 1092.86 82.8156 1092.14C82.2371 1090.24 81.6583 1088.35 80.6819 1086.58C79.4519 1084.36 77.3719 1082.72 74.9519 1081.53C74.2319 1081.17 73.4917 1080.9 72.7417 1080.65C70.3118 1080.18 67.9019 1079.61 65.5718 1078.87C65.4117 1078.82 65.4719 1078.62 65.6418 1078.65C65.6901 1078.66 65.7383 1078.66 65.7865 1078.67L65.9146 1078.69L65.9572 1078.7C66.062 1078.72 66.1669 1078.73 66.2717 1078.75L66.1967 1078.72C66.1571 1078.7 66.1183 1078.68 66.0801 1078.66C66.0309 1078.64 65.9827 1078.62 65.9351 1078.59C65.8699 1078.56 65.8058 1078.53 65.7417 1078.49C65.5417 1078.37 65.4817 1078.05 65.7417 1077.95C67.3054 1077.31 69.0502 1077.39 70.7886 1077.48C71.9406 1077.53 73.0898 1077.58 74.1819 1077.43C76.6819 1077.06 79.1519 1075.9 80.9119 1074.29C84.3219 1071.18 86.3417 1066.61 86.7417 1062.35C86.7603 1062.13 86.7802 1061.92 86.8049 1061.71C86.8176 1061.6 86.8315 1061.5 86.8472 1061.39C86.8838 1061.14 86.9299 1060.89 86.9917 1060.64C86.9993 1060.61 87.011 1060.59 87.0259 1060.57C87.0507 1060.53 87.0844 1060.51 87.1218 1060.49C87.1519 1060.35 87.2018 1060.22 87.2717 1060.09V1060.08C87.3018 1059.92 87.4518 1059.87 87.5918 1059.89C87.6918 1059.89 87.7819 1059.94 87.8218 1060.02C87.8218 1060.02 87.8218 1060.03 87.8223 1060.03C87.8226 1060.03 87.8232 1060.04 87.8243 1060.04C87.8258 1060.04 87.8281 1060.05 87.8318 1060.05V1060.06C88.0586 1060.51 88.0396 1061.02 88.0211 1061.52C88.0184 1061.59 88.0159 1061.66 88.0139 1061.74C88.0129 1061.78 88.0121 1061.82 88.0116 1061.85C88.0114 1061.88 88.0111 1061.91 88.0112 1061.94L88.0117 1062C88.1217 1066.57 89.2919 1069.66 91.6519 1073.62C91.7562 1073.79 91.863 1073.97 91.9698 1074.14C92.078 1074.32 92.1862 1074.49 92.2917 1074.67C92.3805 1074.78 92.4694 1074.88 92.5581 1074.98L92.5618 1074.98C94.2917 1076.9 96.5918 1078.35 99.0217 1079.5C100.442 1080.17 101.922 1080.69 103.422 1081.19C103.494 1081.21 103.565 1081.24 103.635 1081.26C103.698 1081.29 103.759 1081.31 103.82 1081.33C103.891 1081.35 103.961 1081.38 104.032 1081.4C104.532 1081.35 105.032 1081.34 105.502 1081.51C105.507 1081.51 105.512 1081.51 105.516 1081.51L105.519 1081.51L105.522 1081.52L105.529 1081.52C105.533 1081.53 105.538 1081.53 105.542 1081.53C105.938 1081.41 106.352 1081.39 106.767 1081.36C106.859 1081.36 106.95 1081.35 107.041 1081.35C107.226 1081.34 107.41 1081.32 107.592 1081.29C107.64 1081.28 107.685 1081.29 107.724 1081.3C107.773 1081.32 107.814 1081.35 107.842 1081.39L107.909 1081.38L107.951 1081.37L107.987 1081.36C108.045 1081.35 108.103 1081.34 108.16 1081.33C108.278 1081.3 108.395 1081.27 108.512 1081.24C108.822 1081.15 108.992 1081.55 108.732 1081.69L108.772 1081.72C108.772 1081.72 108.752 1081.73 108.73 1081.74ZM76.2417 1077.76H76.2717C76.2809 1077.76 76.2892 1077.75 76.2971 1077.75L76.3118 1077.74L76.3264 1077.74C76.3344 1077.74 76.3427 1077.73 76.3518 1077.73C76.3265 1077.73 76.3052 1077.74 76.2827 1077.75C76.2698 1077.75 76.2563 1077.76 76.2417 1077.76ZM81.446 1075.17C81.4092 1075.2 81.3723 1075.24 81.3354 1075.27L81.5618 1075.11L81.5918 1075.05C81.5432 1075.09 81.4946 1075.13 81.446 1075.17ZM87.9019 1067.94C87.8818 1068.02 87.8518 1068.1 87.8218 1068.18C87.8594 1068.19 87.897 1068.2 87.9387 1068.21L87.9819 1068.23C87.9744 1068.2 87.9674 1068.18 87.9608 1068.15L87.9419 1068.08L87.9233 1068.01L87.9141 1067.97L87.9083 1067.95L87.9019 1067.93V1067.94ZM90.0918 1083.41V1083.55C90.0918 1083.53 90.0942 1083.52 90.098 1083.51C90.0997 1083.5 90.1019 1083.5 90.1042 1083.49L90.105 1083.49L90.1057 1083.49L90.1118 1083.47C90.1118 1083.45 90.1118 1083.43 90.1018 1083.4L90.0918 1083.41ZM94.9611 1083.63L94.9481 1083.64C94.9421 1083.65 94.9365 1083.65 94.9319 1083.66L95.0518 1083.63L95.0323 1083.62C95.0276 1083.62 95.0228 1083.61 95.0181 1083.61C95.0133 1083.61 95.0085 1083.6 95.0038 1083.6C94.9998 1083.6 94.9957 1083.59 94.9917 1083.59L94.9821 1083.6L94.9611 1083.63ZM1265.92 603.669C1265.94 603.649 1265.99 603.629 1265.99 603.629V603.589C1266.21 603.479 1266.07 603.159 1265.82 603.229C1265.64 603.279 1265.46 603.319 1265.28 603.349C1265.24 603.299 1265.17 603.259 1265.08 603.269C1264.87 603.3 1264.66 603.311 1264.45 603.323C1264.1 603.342 1263.76 603.36 1263.43 603.459C1263.43 603.453 1263.43 603.448 1263.42 603.445C1263.42 603.444 1263.42 603.443 1263.42 603.442C1263.42 603.442 1263.42 603.441 1263.41 603.441C1263.41 603.44 1263.41 603.44 1263.41 603.439C1263.41 603.439 1263.4 603.439 1263.4 603.439C1263.02 603.299 1262.62 603.309 1262.22 603.349C1262.17 603.333 1262.12 603.315 1262.07 603.296C1262.04 603.286 1262.01 603.275 1261.98 603.264C1261.93 603.246 1261.88 603.228 1261.83 603.211C1261.8 603.2 1261.76 603.189 1261.73 603.179C1260.52 602.769 1259.33 602.359 1258.19 601.819C1256.24 600.899 1254.39 599.729 1253 598.189C1252.92 598.109 1252.85 598.029 1252.78 597.939C1252.68 597.781 1252.59 597.625 1252.49 597.471C1252.42 597.343 1252.34 597.216 1252.26 597.089C1250.37 593.899 1249.42 591.419 1249.34 587.749C1249.34 587.622 1249.34 587.493 1249.35 587.364C1249.36 586.961 1249.37 586.552 1249.19 586.189V586.179C1249.19 586.175 1249.19 586.169 1249.18 586.163C1249.18 586.161 1249.18 586.159 1249.18 586.157L1249.18 586.154L1249.18 586.149C1249.14 586.089 1249.07 586.049 1248.99 586.049C1248.87 586.029 1248.76 586.069 1248.73 586.199C1248.7 586.252 1248.68 586.308 1248.66 586.365C1248.64 586.416 1248.63 586.468 1248.61 586.519C1248.58 586.531 1248.55 586.549 1248.53 586.574C1248.52 586.592 1248.51 586.614 1248.5 586.639C1248.38 587.099 1248.33 587.549 1248.29 588.019C1247.97 591.439 1246.35 595.119 1243.6 597.619C1242.18 598.919 1240.2 599.859 1238.19 600.149C1237.31 600.277 1236.38 600.232 1235.45 600.188H1235.45C1234.05 600.12 1232.66 600.053 1231.4 600.569C1231.19 600.659 1231.24 600.909 1231.4 601.009C1231.54 601.089 1231.68 601.159 1231.83 601.219C1231.75 601.203 1231.66 601.19 1231.57 601.177L1231.56 601.175L1231.55 601.173L1231.51 601.167L1231.46 601.161C1231.44 601.157 1231.41 601.153 1231.39 601.148C1231.37 601.145 1231.35 601.142 1231.33 601.139C1231.19 601.119 1231.14 601.279 1231.27 601.319C1233.15 601.919 1235.09 602.369 1237.04 602.749C1237.65 602.949 1238.24 603.169 1238.82 603.459C1240.76 604.419 1242.43 605.729 1243.42 607.519C1244.22 608.956 1244.69 610.5 1245.16 612.041L1245.16 612.042L1245.16 612.043L1245.16 612.044L1245.16 612.045C1245.33 612.605 1245.51 613.165 1245.69 613.719C1245.9 614.323 1246.19 614.978 1246.5 615.638C1246.93 616.595 1247.37 617.56 1247.53 618.389C1247.55 618.499 1247.57 618.599 1247.6 618.709C1247.6 618.729 1247.63 618.719 1247.63 618.709L1247.64 618.683C1247.64 618.624 1247.65 618.572 1247.65 618.519C1247.77 618.569 1247.92 618.459 1247.85 618.329C1247.85 618.325 1247.85 618.321 1247.84 618.318L1247.84 618.31C1247.84 618.305 1247.83 618.299 1247.83 618.294L1247.83 618.284L1247.82 618.267C1247.81 618.258 1247.81 618.248 1247.8 618.239C1247.78 617.709 1247.86 617.129 1248 616.559C1248.12 616.489 1248.21 616.379 1248.21 616.209V615.879C1248.39 615.359 1248.61 614.859 1248.85 614.419C1248.99 614.161 1249.13 613.898 1249.28 613.632C1250.78 610.829 1252.46 607.686 1255.55 606.069C1256.89 605.368 1259.25 604.959 1261.01 604.652C1261.23 604.613 1261.45 604.575 1261.65 604.539C1261.73 604.529 1261.79 604.489 1261.84 604.439C1263.09 604.559 1264.47 604.509 1265.64 604.129C1265.89 604.059 1265.96 603.849 1265.92 603.669ZM1239.86 600.439H1239.84V600.429C1239.85 600.429 1239.85 600.428 1239.86 600.427C1239.86 600.425 1239.87 600.423 1239.87 600.421C1239.88 600.418 1239.89 600.414 1239.9 600.412C1239.91 600.41 1239.91 600.409 1239.92 600.409C1239.92 600.412 1239.91 600.417 1239.9 600.421C1239.89 600.43 1239.88 600.439 1239.86 600.439ZM1244.01 598.384L1244.03 598.371C1244.07 598.335 1244.11 598.298 1244.15 598.259C1244.15 598.269 1244.14 598.276 1244.13 598.284C1244.13 598.291 1244.12 598.299 1244.12 598.309C1244.09 598.332 1244.05 598.358 1244.01 598.384ZM1249.19 592.649C1249.2 592.617 1249.21 592.584 1249.22 592.549L1249.28 592.789C1249.27 592.787 1249.26 592.784 1249.26 592.78C1249.25 592.777 1249.24 592.774 1249.23 592.771C1249.21 592.76 1249.19 592.749 1249.16 592.749C1249.17 592.729 1249.17 592.71 1249.18 592.691L1249.19 592.649ZM1251 605.05C1250.99 605.07 1250.98 605.089 1250.98 605.109V604.989L1251 604.999V605.049L1251 605.05ZM1254.87 605.189C1254.89 605.169 1254.92 605.129 1254.92 605.129C1254.93 605.139 1254.95 605.149 1254.97 605.159C1254.96 605.162 1254.95 605.165 1254.95 605.169C1254.92 605.179 1254.89 605.189 1254.87 605.189ZM369.733 431.119C364.763 431.119 364.763 438.819 369.733 438.819C374.703 438.819 374.693 431.119 369.733 431.119ZM1132.1 556.399C1132.95 555.359 1133.99 554.869 1135.27 554.549C1135.72 554.439 1136.63 554.449 1137.14 554.549C1138.32 554.769 1139.07 555.319 1139.85 556.169C1140.58 556.979 1140.75 558.599 1139.97 559.449C1139.86 559.569 1139.75 559.679 1139.64 559.799C1139.95 559.459 1138.89 560.579 1139.01 560.479C1138.46 560.939 1137.82 561.139 1137.14 561.239L1137.05 561.839C1136.88 563.099 1136.04 564.149 1134.75 564.379C1133.29 564.649 1131.68 563.629 1131.48 562.109C1131.46 561.97 1131.44 561.83 1131.42 561.687L1131.42 561.685C1131.18 559.914 1130.89 557.87 1132.1 556.399ZM3.91309 934.939C-1.05688 934.939 -1.05688 942.639 3.91309 942.639C8.88318 942.639 8.88318 934.939 3.91309 934.939ZM831.642 355.419C830.382 355.519 829.072 356.509 828.372 357.499C827.572 358.619 827.252 360.049 827.502 361.399C827.922 363.659 829.852 365.419 832.152 365.599C834.362 365.769 837.002 365.869 838.652 364.089C839.552 363.119 840.222 362.229 840.332 360.849C840.422 359.689 840.062 358.359 839.262 357.479L839.042 357.239C837.962 356.059 836.902 355.679 835.412 355.389C834.582 355.229 833.972 355.239 833.052 355.309C832.817 355.329 832.582 355.347 832.347 355.364C832.112 355.382 831.877 355.399 831.642 355.419ZM765.983 492.679C763.943 492.509 761.913 493.459 760.723 495.129V495.139C759.903 496.299 759.293 498.179 759.733 499.599L759.744 499.636L759.744 499.638L759.745 499.64C760.017 500.553 760.159 501.03 760.593 501.739C760.729 501.958 760.807 502.217 760.885 502.473C760.902 502.528 760.919 502.582 760.936 502.636C760.945 502.664 760.953 502.692 760.963 502.719L761.373 503.949C762.002 505.869 764.492 506.859 766.332 506.519C767.882 506.229 769.302 505.099 769.812 503.579C769.894 503.344 769.971 503.103 770.049 502.862L770.05 502.86C770.154 502.537 770.258 502.213 770.372 501.899C770.643 501.459 770.902 501.009 771.042 500.559C771.662 498.549 771.412 496.449 770.042 494.789C769.032 493.579 767.553 492.809 765.983 492.679ZM1104.8 598.259C1110.4 598.259 1109.65 606.899 1104.11 606.899C1098.57 606.899 1099.26 598.259 1104.8 598.259ZM1305.89 658.449C1310.72 658.449 1310.07 665.899 1305.29 665.899C1300.51 665.899 1301.11 658.449 1305.89 658.449ZM1350.64 752.429C1354.11 752.429 1353.65 757.789 1350.21 757.789C1346.77 757.789 1347.2 752.429 1350.64 752.429ZM1521.07 755.189C1524.59 755.189 1524.12 760.629 1520.63 760.629C1517.14 760.629 1517.58 755.189 1521.07 755.189ZM1512.81 848.629C1518.33 848.629 1517.59 857.149 1512.13 857.149C1506.67 857.149 1507.35 848.629 1512.81 848.629ZM1602.11 905.699C1606.1 905.699 1605.56 911.849 1601.62 911.849C1597.68 911.849 1598.17 905.699 1602.11 905.699ZM1570.26 938.789C1573.81 938.789 1573.34 944.269 1569.82 944.269C1566.3 944.269 1566.74 938.789 1570.26 938.789ZM1661.56 994.409C1661.63 994.351 1661.69 994.292 1661.76 994.232L1661.76 994.226C1662.2 993.823 1662.67 993.398 1663.21 993.199C1663.6 993.057 1663.99 992.922 1664.37 992.783C1664.48 992.745 1664.58 992.707 1664.68 992.669C1666.03 992.179 1667.28 991.989 1668.67 992.499C1670.4 993.129 1671.69 994.659 1672.02 996.469C1672.73 1000.38 1668.81 1003.66 1665.09 1002.31C1663.09 1001.59 1660.47 1000.4 1660.04 998.029C1659.77 996.529 1660.49 995.359 1661.55 994.409H1661.56ZM1674.51 1010.14C1677.31 1010.14 1676.94 1014.46 1674.16 1014.46C1671.38 1014.46 1671.73 1010.14 1674.51 1010.14ZM1741.76 1037.32C1747.95 1037.32 1747.12 1046.86 1740.99 1046.86C1734.86 1046.86 1735.63 1037.32 1741.76 1037.32ZM1708.07 1058.12C1711.44 1058.12 1710.98 1063.31 1707.65 1063.31C1704.32 1063.31 1704.74 1058.12 1708.07 1058.12ZM1751.91 1069.81C1752.04 1069.68 1752.2 1069.61 1752.37 1069.57C1753.48 1068.55 1754.59 1067.52 1755.69 1066.49C1756.44 1065.69 1757.85 1066.99 1757.1 1067.8C1757.05 1067.85 1757.01 1067.9 1756.95 1067.96L1756.93 1067.99C1756.82 1068.11 1756.71 1068.23 1756.6 1068.35L1756.4 1068.56L1756.26 1068.72C1756.03 1068.96 1755.81 1069.2 1755.58 1069.45C1755.39 1069.65 1755.2 1069.85 1755.02 1070.06C1754.83 1070.26 1754.64 1070.46 1754.45 1070.66L1754 1071.15L1753.98 1071.17C1753.89 1071.42 1753.74 1071.64 1753.56 1071.82C1753.06 1072.32 1752.15 1072.16 1751.74 1071.65C1751.26 1071.07 1751.41 1070.33 1751.91 1069.83V1069.81ZM1767.02 1055.7C1764.03 1055.7 1762.59 1058.48 1762.98 1060.74C1761.49 1061.67 1761.62 1064.43 1763.75 1064.43C1764.57 1064.43 1765.16 1064.03 1765.5 1063.48C1765.77 1063.54 1766.07 1063.57 1766.39 1063.57C1771.43 1063.57 1772.12 1055.7 1767.02 1055.7ZM1729.12 1052.42C1728.65 1052.45 1728.18 1052.47 1727.71 1052.49V1052.47C1726.86 1052.51 1726.11 1052.97 1726.03 1053.9C1725.96 1054.73 1726.61 1055.54 1727.46 1055.58C1728.37 1055.63 1729.29 1055.67 1730.21 1055.71L1730.24 1055.71C1731.15 1055.75 1731.97 1055.11 1732.05 1054.17C1732.12 1053.34 1731.43 1052.32 1730.51 1052.36C1730.07 1052.38 1729.62 1052.4 1729.18 1052.42L1729.15 1052.42L1729.12 1052.42ZM1708.37 1027.51C1713.8 1027.51 1713.07 1035.88 1707.7 1035.88C1702.33 1035.88 1703 1027.51 1708.37 1027.51ZM1761.45 1035.94C1766.81 1035.94 1766.09 1044.21 1760.79 1044.21C1755.49 1044.21 1756.15 1035.94 1761.45 1035.94ZM1722.23 1006.5C1725.92 1006.5 1725.43 1012.19 1721.77 1012.19C1718.11 1012.19 1718.57 1006.5 1722.23 1006.5ZM1658.09 940.779C1663.67 940.779 1662.92 949.389 1657.4 949.389C1651.88 949.389 1652.57 940.779 1658.09 940.779ZM1702.57 985.439C1704.59 985.439 1704.32 988.559 1702.32 988.559C1700.32 988.559 1700.57 985.439 1702.57 985.439ZM1699.84 951.069C1702.95 951.069 1702.53 955.869 1699.46 955.869C1696.39 955.869 1696.77 951.069 1699.84 951.069ZM1649.62 1031.31C1653.75 1031.31 1653.19 1037.68 1649.11 1037.68C1645.03 1037.68 1645.54 1031.31 1649.62 1031.31ZM1683.02 1044C1685.19 1044 1684.89 1047.34 1682.75 1047.34C1680.61 1047.34 1680.88 1044 1683.02 1044ZM1652.36 1057.07C1655.69 1057.07 1655.24 1062.2 1651.95 1062.2C1648.66 1062.2 1649.07 1057.07 1652.36 1057.07ZM1747.4 1053.71C1751.46 1053.71 1750.91 1059.96 1746.9 1059.96C1742.89 1059.96 1743.39 1053.71 1747.4 1053.71ZM1786.51 1067.63C1790.64 1067.63 1790.08 1074 1786 1074C1781.92 1074 1782.43 1067.63 1786.51 1067.63ZM1607.69 967.329C1611.45 967.329 1610.95 973.139 1607.22 973.139C1603.49 973.139 1603.96 967.329 1607.69 967.329ZM1621.61 1007.06C1622.22 1007.11 1622.8 1007.41 1623.19 1007.88C1623.76 1008.56 1623.76 1009.31 1623.58 1010.13C1623.54 1010.32 1623.5 1010.52 1623.46 1010.71L1623.46 1010.71C1623.32 1011.38 1623.18 1012.05 1622.95 1012.69C1622.51 1013.93 1620.45 1014.2 1619.96 1012.82C1619.66 1011.95 1619.46 1011.05 1619.26 1010.15L1619.26 1010.15C1619.23 1010.02 1619.2 1009.88 1619.17 1009.75C1618.84 1008.29 1620.18 1006.94 1621.61 1007.05V1007.06ZM1532.13 991.189C1533.93 991.189 1533.69 993.969 1531.91 993.969C1530.13 993.969 1530.35 991.189 1532.13 991.189ZM1671.91 1029.19C1675.17 1029.19 1674.73 1034.21 1671.51 1034.21C1668.29 1034.21 1668.69 1029.19 1671.91 1029.19ZM1692.77 1015.05C1692.86 1014.08 1691.95 1013.28 1691 1013.45H1690.99C1690.13 1013.61 1689.71 1014.38 1689.78 1015.2C1689.85 1016.01 1689.92 1016.81 1689.99 1017.61C1690.03 1018.07 1690.26 1018.4 1690.59 1018.68C1690.58 1018.66 1690.57 1018.64 1690.57 1018.63C1690.74 1018.77 1690.93 1018.87 1691.18 1018.89C1691.47 1018.92 1691.78 1018.81 1692.02 1018.62L1692.03 1018.61C1692.11 1018.55 1692.17 1018.48 1692.23 1018.4C1692.24 1018.39 1692.25 1018.38 1692.25 1018.37C1692.26 1018.36 1692.27 1018.35 1692.27 1018.34C1692.28 1018.32 1692.29 1018.31 1692.29 1018.3L1692.3 1018.28C1692.31 1018.27 1692.32 1018.26 1692.32 1018.25L1692.33 1018.23C1692.46 1018 1692.54 1017.75 1692.56 1017.48L1692.77 1015.05ZM1719.44 1041.05C1720.36 1039.76 1722.52 1039.19 1723.82 1040.31C1723.93 1040.4 1724.03 1040.49 1724.13 1040.58L1724.36 1040.77C1724.54 1040.93 1724.71 1041.08 1724.89 1041.24C1725.56 1041.82 1726.09 1042.49 1726.63 1043.17L1726.63 1043.17L1726.73 1043.29L1726.82 1043.42C1727.66 1044.49 1727.76 1045.98 1726.96 1047.11C1726.04 1048.4 1724.03 1048.85 1722.74 1047.82C1722.58 1047.69 1722.41 1047.56 1722.24 1047.43L1722.24 1047.43L1722.23 1047.43C1721.63 1046.97 1721.01 1046.5 1720.52 1045.94C1720.21 1045.58 1719.9 1045.22 1719.58 1044.86C1718.66 1043.8 1718.64 1042.16 1719.44 1041.04V1041.05ZM1599.33 1020.9C1599.11 1020.95 1598.88 1021 1598.66 1021.04V1021.02C1597.43 1021.27 1596.57 1022.45 1596.8 1023.71C1597 1024.82 1597.86 1025.39 1598.89 1025.6C1599.04 1025.63 1599.18 1025.66 1599.32 1025.69L1599.32 1025.69C1599.35 1025.71 1599.37 1025.73 1599.39 1025.75L1599.4 1025.76C1599.45 1025.81 1599.5 1025.85 1599.55 1025.9C1599.61 1025.95 1599.66 1025.99 1599.72 1026.04C1600.43 1026.54 1601.41 1026.81 1602.27 1026.61H1602.3C1603.77 1026.27 1604.91 1025.13 1605.04 1023.58C1605.14 1022.23 1604.27 1020.48 1602.84 1020.16H1602.81C1601.89 1019.95 1601.12 1019.86 1600.24 1020.27C1599.92 1020.41 1599.61 1020.64 1599.33 1020.9ZM1620.78 1042.1C1622.05 1041.87 1623.39 1042.35 1624.21 1043.35C1624.94 1044.23 1625.39 1045.81 1624.83 1046.9C1624.69 1047.17 1624.56 1047.44 1624.42 1047.72L1624.42 1047.72L1624.42 1047.72L1624.42 1047.72C1624.07 1048.43 1623.72 1049.14 1623.26 1049.76C1622.44 1050.88 1620.57 1051.09 1619.69 1049.89C1619.2 1049.21 1618.81 1048.47 1618.42 1047.72C1618.33 1047.54 1618.24 1047.37 1618.14 1047.19C1617.04 1045.11 1618.56 1042.5 1620.77 1042.1H1620.78ZM1549.32 974.769C1557.92 974.769 1556.77 988.039 1548.26 988.039C1539.75 988.039 1540.81 974.769 1549.32 974.769ZM1557.54 1031.28C1557.73 1028.94 1559.51 1026.98 1561.82 1026.56C1564.13 1026.14 1566.5 1027.37 1567.49 1029.49C1568.5 1031.66 1567.87 1034.17 1566.09 1035.72C1565.64 1036.11 1565.2 1036.51 1564.77 1036.91L1564.76 1036.91C1563.82 1037.76 1561.91 1037.96 1560.93 1037.05C1560.53 1036.68 1560.13 1036.32 1559.72 1035.96C1558.97 1035.42 1558.4 1034.74 1558.01 1033.91C1557.62 1033.07 1557.47 1032.2 1557.53 1031.28H1557.54ZM1585.22 988.319C1587.13 988.319 1586.87 991.259 1584.98 991.259C1583.09 991.259 1583.33 988.319 1585.22 988.319ZM1635.63 970.069C1639.46 970.069 1638.95 975.979 1635.16 975.979C1631.37 975.979 1631.84 970.069 1635.63 970.069ZM1632.78 906.469C1635.77 906.469 1635.36 911.079 1632.41 911.079C1629.46 911.079 1629.83 906.469 1632.78 906.469ZM1428.91 844.049C1433.13 844.049 1432.56 850.559 1428.39 850.559C1424.22 850.559 1424.74 844.049 1428.91 844.049ZM1552.13 869.396C1552.13 869.368 1552.13 869.34 1552.14 869.312C1552.14 869.273 1552.14 869.235 1552.14 869.197L1552.14 869.089C1552.15 868.959 1552.15 868.829 1552.15 868.699C1552.13 868.019 1552.54 867.449 1553.09 867.079C1553.51 866.789 1554.03 866.619 1554.55 866.659C1555.09 866.699 1555.52 866.919 1555.84 867.229C1556.33 867.679 1556.61 868.339 1556.59 869.059C1556.59 869.084 1556.59 869.11 1556.59 869.135L1556.59 869.172L1556.6 869.223L1556.6 869.264C1556.6 869.325 1556.6 869.386 1556.6 869.447C1556.61 869.579 1556.61 869.713 1556.61 869.849C1556.61 869.898 1556.61 869.946 1556.6 869.993C1556.6 870.06 1556.59 870.124 1556.57 870.189V870.19C1556.57 870.87 1556.57 871.549 1556.48 872.209C1556.36 873.159 1555.71 873.949 1554.74 874.129C1553.65 874.329 1552.41 873.569 1552.27 872.419C1552.17 871.629 1552.16 870.819 1552.16 870.009C1552.13 869.839 1552.11 869.669 1552.12 869.499L1552.13 869.479C1552.13 869.452 1552.13 869.424 1552.13 869.396ZM1596.44 848.089C1599.04 848.089 1598.69 852.099 1596.12 852.099C1593.55 852.099 1593.87 848.089 1596.44 848.089ZM1442.94 977.379C1448.16 977.379 1447.46 985.429 1442.29 985.429C1437.12 985.429 1437.77 977.379 1442.94 977.379ZM1501.76 902.909C1509.36 902.909 1508.34 914.639 1500.82 914.639C1493.3 914.639 1494.24 902.909 1501.76 902.909ZM1498.78 989.029C1499.73 989.109 1500.63 989.569 1501.23 990.299C1502.1 991.349 1502.13 992.529 1501.84 993.789C1501.76 994.119 1501.69 994.439 1501.61 994.769C1501.45 995.439 1500.69 996.589 1500.11 997.049C1499.25 997.719 1497.95 997.869 1497.05 997.159C1496.21 996.499 1495.51 995.309 1495.27 994.329L1495.22 994.117L1495.14 993.764C1495.09 993.577 1495.05 993.389 1495 993.199C1494.46 990.939 1496.59 988.839 1498.79 989.019L1498.78 989.029ZM1397.98 933.149C1398.96 933.149 1398.83 934.669 1397.86 934.669C1396.89 934.669 1397.01 933.149 1397.98 933.149ZM1462.38 934.229C1465.6 934.229 1465.16 939.189 1461.98 939.189C1458.8 939.189 1459.2 934.229 1462.38 934.229ZM1384.03 1030.76C1385.24 1030.76 1385.08 1032.64 1383.88 1032.64C1382.68 1032.64 1382.83 1030.76 1384.03 1030.76ZM1476.23 1036.23C1477.6 1036.23 1477.42 1038.34 1476.06 1038.34C1474.7 1038.34 1474.87 1036.23 1476.23 1036.23ZM1476.38 1028.74C1480.21 1028.74 1479.7 1034.65 1475.91 1034.65C1472.12 1034.65 1472.59 1028.74 1476.38 1028.74ZM1358.99 1018.28C1361.9 1018.28 1361.51 1022.77 1358.63 1022.77C1355.75 1022.77 1356.11 1018.28 1358.99 1018.28ZM1510.19 952.138C1509.78 952.209 1509.37 952.28 1508.96 952.349V952.369C1506.83 952.739 1505.37 954.869 1505.76 956.989C1505.95 958.009 1506.53 958.919 1507.37 959.519C1507.97 959.939 1508.63 960.179 1509.36 960.239C1509.92 960.338 1510.48 960.433 1511.04 960.529C1511.39 960.588 1511.73 960.648 1512.08 960.709C1513.6 960.969 1515.19 960.009 1516.06 958.849C1516.07 958.846 1516.07 958.842 1516.07 958.839C1516.08 958.832 1516.09 958.826 1516.09 958.819C1517.31 957.199 1517.06 955.009 1515.89 953.469C1515.88 953.459 1515.86 953.439 1515.86 953.429C1514.91 952.169 1513.15 951.629 1511.64 951.889C1511.16 951.97 1510.67 952.054 1510.19 952.138ZM1341.14 973.319C1342.01 972.039 1343.47 971.229 1345.14 971.369C1347.57 971.569 1349.44 973.759 1349.24 976.189C1349.04 978.619 1346.85 980.489 1344.42 980.289C1343.23 980.189 1342.1 979.609 1341.34 978.689C1341.26 978.584 1341.19 978.479 1341.12 978.374C1341.1 978.339 1341.08 978.304 1341.05 978.269C1340.22 977.929 1339.59 977.279 1339.42 976.309C1339.19 975.039 1339.95 973.749 1341.14 973.329V973.319ZM1406.52 908.829C1410.07 908.829 1409.59 914.299 1406.08 914.299C1402.57 914.299 1403.01 908.829 1406.52 908.829ZM1470.77 881.059C1474.1 881.059 1473.65 886.189 1470.36 886.189C1467.07 886.189 1467.48 881.059 1470.77 881.059ZM1543.37 906.649C1546.12 906.649 1545.75 910.889 1543.03 910.889C1540.31 910.889 1540.65 906.649 1543.37 906.649ZM1300.42 877.259C1305.06 877.259 1304.43 884.409 1299.85 884.409C1295.27 884.409 1295.84 877.259 1300.42 877.259ZM1358.29 919.759C1367.2 919.759 1366 933.499 1357.19 933.499C1348.38 933.499 1349.48 919.759 1358.29 919.759ZM1268.65 785.029C1273.56 785.029 1272.9 792.599 1268.04 792.599C1263.18 792.599 1263.79 785.029 1268.65 785.029ZM1361.73 856.269C1366.02 856.269 1365.45 862.889 1361.2 862.889C1356.95 862.889 1357.48 856.269 1361.73 856.269ZM1410.12 763.569C1413.87 763.569 1413.37 769.359 1409.65 769.359C1405.93 769.359 1406.4 763.569 1410.12 763.569ZM1448.75 787.239C1449.88 787.259 1450.91 787.709 1451.75 788.399L1451.76 788.4C1451.93 788.46 1452.11 788.52 1452.3 788.579C1453.7 789.039 1454.74 790.359 1455.01 791.779C1455.32 793.469 1454.42 795.779 1452.64 796.349C1452.59 796.365 1452.55 796.381 1452.5 796.397C1452.43 796.42 1452.36 796.442 1452.29 796.464C1452.17 796.502 1452.06 796.539 1451.94 796.579C1450.84 797.509 1449.38 797.799 1447.91 797.829C1446.55 797.859 1445.08 796.929 1444.24 795.919C1443.36 794.859 1442.92 793.469 1443.03 792.099C1443.27 789.079 1445.86 787.159 1448.76 787.219L1448.75 787.239ZM1241.65 973.229C1241.76 972.309 1242.14 971.375 1242.49 970.521L1242.49 970.518C1242.54 970.379 1242.6 970.243 1242.65 970.109C1243.11 968.929 1244.1 968.059 1245.36 967.829C1246.53 967.619 1247.87 968.059 1248.68 968.969C1251.98 968.469 1255.19 970.609 1255.8 973.949C1256.1 975.579 1255.72 977.289 1254.76 978.639C1253.59 980.289 1251.3 981.549 1249.23 981.219C1249.09 981.196 1248.94 981.175 1248.78 981.154C1248.67 981.139 1248.55 981.124 1248.43 981.109H1248.43C1247.51 980.988 1246.48 980.855 1245.76 980.509C1244.1 979.719 1242.78 978.779 1241.9 977.089C1241.29 975.909 1241.26 974.509 1241.65 973.249V973.229ZM1168.78 870.119C1168.21 870.259 1167.63 870.379 1167.06 870.509V870.499C1165.29 870.899 1163.91 872.289 1163.76 874.149C1163.63 875.759 1164.68 877.869 1166.4 878.259L1167.99 878.619C1168.39 878.709 1168.74 878.819 1169.11 878.989C1170.41 879.599 1171.99 879.249 1173.2 878.629C1175.04 877.689 1176.15 875.739 1175.77 873.659C1175.45 871.919 1174.32 870.929 1172.83 870.169C1171.51 869.499 1170.1 869.609 1168.78 870.119ZM1309.62 796.149C1314.61 796.149 1313.94 803.839 1309 803.839C1304.06 803.839 1304.68 796.149 1309.62 796.149ZM1112.34 898.829C1119.4 898.829 1118.45 909.729 1111.47 909.729C1104.49 909.729 1105.36 898.829 1112.34 898.829ZM1194.08 1014.42C1194.59 1013.28 1195.48 1012.42 1196.88 1012.17C1198.73 1011.83 1200.47 1012.88 1201.18 1014.53C1202.5 1015.44 1203.47 1016.81 1203.78 1018.51C1204.4 1021.89 1202.08 1025.22 1198.71 1025.83C1195.33 1026.45 1192 1024.13 1191.39 1020.76C1190.93 1018.25 1192.1 1015.78 1194.09 1014.43L1194.08 1014.42ZM1250.06 896.299C1255.59 896.299 1254.84 904.819 1249.38 904.819C1243.92 904.819 1244.6 896.299 1250.06 896.299ZM1118.48 720.719C1121.12 720.239 1123.72 722.049 1124.2 724.679C1124.52 726.409 1123.86 728.059 1122.64 729.149L1122.61 729.479C1122.46 730.939 1121.4 732.159 1119.94 732.429C1118.3 732.729 1116.32 731.569 1116.15 729.799C1116.14 729.691 1116.13 729.586 1116.12 729.481C1116.11 729.381 1116.1 729.281 1116.09 729.179C1115.3 728.479 1114.73 727.559 1114.52 726.429C1114.04 723.789 1115.85 721.189 1118.48 720.709V720.719ZM978 775.123C977.78 775.147 977.57 775.17 977.373 775.189C976.023 775.319 975.143 776.829 975.373 778.079C975.573 779.189 976.513 780.009 977.623 780.119C977.962 780.152 978.298 780.185 978.634 780.218C978.913 780.245 979.192 780.272 979.473 780.299C980.123 780.369 980.733 780.329 981.373 780.199C982.793 779.909 983.923 778.729 983.643 777.199C983.162 774.553 980.128 774.888 978 775.123ZM1242.52 726.089C1246.58 726.089 1246.04 732.359 1242.02 732.359C1238 732.359 1238.5 726.089 1242.52 726.089ZM1379.84 806.419C1379.29 805.419 1378.1 804.389 1376.84 804.419H1376.85C1375.16 804.459 1373.4 805.499 1373.35 807.399C1373.32 808.549 1373.79 810.039 1374.89 810.639C1375.06 810.724 1375.22 810.813 1375.38 810.901L1375.38 810.903C1375.45 810.939 1375.51 810.975 1375.57 811.01C1375.61 811.03 1375.65 811.05 1375.68 811.069C1376.42 811.471 1377.11 812.027 1377.78 812.573L1377.78 812.573C1378.06 812.801 1378.34 813.027 1378.62 813.239C1379.73 814.079 1381.38 813.749 1382.17 812.639C1382.85 811.679 1382.74 810.459 1382.05 809.539L1380.72 807.769C1380.64 807.654 1380.55 807.539 1380.46 807.424C1380.38 807.309 1380.29 807.194 1380.2 807.079L1379.84 806.419ZM1212.77 662.169C1217.6 662.169 1216.95 669.619 1212.17 669.619C1207.39 669.619 1207.99 662.169 1212.77 662.169ZM1160.49 801.649C1163.17 801.649 1162.81 805.779 1160.16 805.779C1157.51 805.779 1157.84 801.649 1160.49 801.649ZM1046.3 694.872C1045.35 695.386 1044.42 695.889 1043.41 696.309L1043.4 696.299C1041.99 696.889 1041.2 698.549 1041.47 700.029C1041.7 701.269 1042.55 702.169 1043.68 702.649C1043.77 702.687 1043.87 702.724 1043.96 702.761C1044.21 702.862 1044.46 702.962 1044.7 703.079L1044.79 703.125L1044.91 703.191L1044.91 703.193C1045.06 703.271 1045.2 703.348 1045.34 703.429C1045.44 703.489 1045.53 703.539 1045.63 703.589C1046.4 704.129 1047.25 704.439 1048.18 704.519C1049.08 704.589 1049.93 704.439 1050.75 704.059C1052.4 703.289 1053.53 701.659 1053.68 699.839C1053.97 696.179 1049.87 692.929 1046.43 694.799L1046.3 694.872ZM943.293 894.999C946.783 894.359 950.353 897.359 949.933 900.999C949.913 901.159 949.893 901.32 949.874 901.48L949.848 901.704L949.846 901.718C949.82 901.949 949.793 902.179 949.763 902.409C949.755 902.488 949.747 902.568 949.739 902.647C949.709 902.951 949.679 903.256 949.623 903.549C949.273 905.499 948.403 907.059 946.563 907.959C946.113 908.179 945.773 908.329 945.183 908.429C943.363 908.759 941.373 907.939 940.203 906.529C939.353 905.509 939.083 904.339 938.933 903.089C938.873 902.579 938.813 902.059 938.753 901.549C938.393 898.489 940.133 895.569 943.293 894.989V894.999ZM1170.06 797.489L1169.91 797.589V797.579C1168.24 798.689 1168.53 801.489 1170.09 802.519C1171.16 803.229 1172.27 803.959 1173.6 803.929C1175.01 803.899 1176.4 803.709 1177.51 802.719C1178.37 801.969 1179.04 800.979 1179.34 799.869C1179.63 798.749 1179.73 797.879 1179.62 796.729C1179.58 796.319 1179.54 795.899 1179.49 795.489C1179.23 793.139 1176.65 791.599 1174.45 791.999C1172.5 792.359 1171.13 793.979 1170.91 795.919L1170.9 796.062L1170.88 796.181C1170.85 796.461 1170.82 796.737 1170.78 797.019C1170.54 797.169 1170.31 797.326 1170.06 797.489ZM1067.71 808.609C1075.85 808.609 1074.76 821.169 1066.7 821.169C1058.64 821.169 1059.65 808.609 1067.71 808.609ZM945.943 640.279C944.063 641.829 942.883 644.119 942.683 646.549C942.493 648.899 943.253 651.279 944.753 653.089C946.203 654.839 948.573 656.349 951.023 656.349C953.473 656.349 955.633 655.879 957.563 654.279C959.443 652.729 960.623 650.439 960.823 648.009C961.013 645.659 960.253 643.279 958.753 641.469C957.303 639.719 954.933 638.209 952.483 638.209C950.033 638.209 947.873 638.679 945.943 640.279ZM819.773 799.229C819.973 796.809 821.153 794.519 823.023 792.959C824.953 791.359 827.113 790.889 829.553 790.889C831.993 790.889 834.373 792.399 835.823 794.149C837.323 795.959 838.083 798.329 837.893 800.679C837.693 803.099 836.513 805.389 834.643 806.949C832.713 808.549 830.553 809.019 828.113 809.019C825.673 809.019 823.293 807.519 821.853 805.769C820.353 803.959 819.593 801.589 819.783 799.239L819.773 799.229ZM998.532 909.449C996.042 910.279 994.142 912.179 993.922 914.949C993.712 917.529 995.372 920.649 998.032 921.339C998.093 921.356 998.156 921.369 998.221 921.383C998.274 921.394 998.328 921.406 998.382 921.419C998.572 921.579 998.762 921.719 998.942 921.819C1000.11 922.639 1001.41 923.119 1002.84 923.239C1004.21 923.339 1005.52 923.109 1006.77 922.529C1009.3 921.349 1011.03 918.849 1011.26 916.069C1011.48 913.359 1010.22 910.659 1008 909.079C1005.84 907.549 1002.57 907.059 1000.17 908.369C999.572 908.689 999.032 909.049 998.532 909.449ZM931.672 1005.4C929.532 1004.82 928.032 1002.98 927.612 1000.89L927.61 1000.88L927.6 1000.84C927.595 1000.82 927.589 1000.79 927.584 1000.77C927.58 1000.75 927.576 1000.72 927.572 1000.7C927.568 1000.68 927.565 1000.66 927.562 1000.64C927.562 1000.58 927.542 1000.52 927.532 1000.45C927.202 998.369 927.902 996.199 929.972 995.059C930.092 994.959 930.21 994.859 930.327 994.759C930.393 994.703 930.459 994.647 930.525 994.591C930.577 994.547 930.63 994.503 930.682 994.459C931.892 993.429 934.062 993.189 935.332 994.289C935.517 994.444 935.7 994.602 935.882 994.759C936.065 994.917 936.247 995.074 936.432 995.229L936.512 995.309C938.832 997.029 939.282 1000.23 938.052 1002.61C938.04 1002.63 938.029 1002.66 938.019 1002.68C938.007 1002.71 937.996 1002.74 937.984 1002.76C937.98 1002.77 937.976 1002.77 937.972 1002.78C937.932 1002.86 937.882 1002.94 937.832 1003.01C936.982 1004.49 935.462 1005.53 933.352 1005.58H932.802H932.662C932.622 1005.58 932.582 1005.56 932.542 1005.56C932.253 1005.53 931.972 1005.48 931.692 1005.41H931.662L931.672 1005.4ZM702.354 865.169C701.414 865.099 700.314 865.869 700.334 866.889L700.344 866.899C700.349 867.257 700.356 867.615 700.364 867.973C700.371 868.335 700.379 868.697 700.384 869.059C700.387 869.179 700.387 869.302 700.387 869.426C700.388 870.078 700.389 870.767 700.834 871.279C700.861 871.309 700.888 871.34 700.915 871.37C700.941 871.402 700.968 871.433 700.994 871.465C701.018 871.493 701.042 871.522 701.066 871.55C701.083 871.569 701.099 871.588 701.116 871.607C701.128 871.621 701.141 871.635 701.154 871.649C701.774 872.369 702.744 872.239 703.324 871.569L703.664 871.169C704.039 870.734 704.036 870.065 704.033 869.487C704.033 869.435 704.033 869.384 704.033 869.334C704.033 869.289 704.033 869.243 704.034 869.199C704.044 868.529 704.064 867.859 704.074 867.189C704.094 866.169 703.414 865.259 702.354 865.169ZM870.192 668.539C876.432 668.539 875.592 678.159 869.422 678.159C863.252 678.159 864.022 668.539 870.192 668.539ZM597.532 795.499C597.577 795.288 597.62 795.076 597.663 794.865L597.663 794.864C597.705 794.655 597.748 794.447 597.792 794.239C597.862 793.439 598.132 792.709 598.592 792.049C599.252 791.119 600.262 790.479 601.382 790.279C603.772 789.839 606.002 791.469 606.482 793.809C606.517 793.988 606.554 794.167 606.591 794.347L606.595 794.364L606.652 794.641C606.679 794.776 606.706 794.912 606.732 795.049C606.892 795.809 606.852 796.519 606.732 797.259L606.642 797.799C606.462 798.869 606.282 799.289 605.762 800.239C605.052 801.539 603.212 802.189 601.822 802.079C600.172 801.949 598.952 800.949 598.182 799.549C597.672 798.629 597.342 796.499 597.542 795.509L597.532 795.499ZM797.954 698.929C796.544 698.709 794.504 699.329 793.424 700.109H793.434C791.324 701.639 791.704 704.959 793.664 706.379C795.394 707.639 797.774 707.419 799.754 707.099C801.914 706.749 803.374 704.559 802.984 702.439C802.644 700.569 801.164 699.449 799.364 699.159C798.894 699.079 798.424 698.999 797.954 698.929ZM897.724 795.579C898.134 794.639 898.574 793.789 899.224 792.979C899.507 792.621 899.791 792.265 900.075 791.909C900.361 791.55 900.647 791.191 900.934 790.829C901.934 789.579 903.674 789.169 905.034 790.139C906.564 791.219 906.704 793.609 905.204 794.799C905.105 794.879 905.006 794.959 904.907 795.038C904.823 795.105 904.74 795.171 904.657 795.238C904.507 795.357 904.358 795.476 904.208 795.595L903.78 795.933L903.732 795.971C903.539 796.124 903.346 796.277 903.154 796.429L903.068 796.499C902.479 796.974 901.909 797.434 901.204 797.739L900.444 798.069C898.934 798.729 896.994 797.239 897.724 795.579ZM870.262 567.029C877.722 567.029 876.722 578.529 869.342 578.529C861.962 578.529 862.892 567.029 870.262 567.029ZM1014.27 496.589C1015.34 496.019 1016.74 495.869 1018 496.029C1018.77 495.999 1019.55 496.339 1020.16 496.949C1020.92 497.709 1020.98 499.049 1020.62 500.019V500.069C1020.62 500.2 1020.61 500.336 1020.59 500.469C1020.58 500.509 1020.58 500.55 1020.57 500.589C1020.54 500.839 1020.51 501.086 1020.47 501.333C1020.45 501.463 1020.43 501.593 1020.41 501.723L1020.41 501.727C1020.39 501.864 1020.36 502.001 1020.34 502.139C1020.08 503.819 1017.54 504.119 1017.25 502.289C1017.22 502.085 1017.19 501.88 1017.15 501.676C1017.13 501.557 1017.12 501.439 1017.1 501.32C1017.08 501.233 1017.07 501.146 1017.05 501.059C1017.05 501.05 1017.05 501.04 1017.05 501.031C1017.05 501.024 1017.05 501.017 1017.05 501.01L1017.04 500.996C1017.04 500.979 1017.03 500.963 1017.03 500.949C1016.85 500.849 1016.68 500.739 1016.52 500.609C1016.47 500.592 1016.42 500.583 1016.38 500.574L1016.35 500.569C1016.18 500.539 1016 500.509 1015.83 500.479C1015.78 500.471 1015.73 500.463 1015.68 500.456C1015.65 500.451 1015.61 500.447 1015.58 500.442C1015.35 500.411 1015.11 500.379 1014.92 500.299C1014.88 500.279 1014.79 500.237 1014.7 500.189C1014.6 500.142 1014.5 500.089 1014.41 500.049C1013 499.299 1012.71 497.429 1014.27 496.599V496.589ZM977.708 557.542L977.727 557.538C977.978 557.486 978.227 557.434 978.473 557.379C978.538 557.366 978.602 557.352 978.666 557.338C979.309 557.2 979.941 557.065 980.623 557.119C981.166 557.161 981.744 557.34 982.291 557.51C982.39 557.54 982.487 557.57 982.583 557.599C984.393 558.129 985.533 560.159 985.383 561.959C985.213 564.019 983.753 565.279 981.883 565.819C981.613 565.899 981.343 565.989 981.063 566.049C980.364 566.208 979.783 566.086 979.146 565.952L978.989 565.919L978.893 565.899L977.493 565.609C976.763 565.549 976.093 565.299 975.493 564.879C974.643 564.279 974.063 563.349 973.873 562.329C973.473 560.139 974.963 558.109 977.103 557.669C977.305 557.625 977.507 557.583 977.708 557.542Z" fill="url(#paint0_linear_1433_37098)"/>
<path fill-rule="evenodd" clip-rule="evenodd" d="M85.8226 720.019C84.6826 719.789 83.3626 720.199 82.8126 721.269C80.5226 725.769 83.4926 731.739 83.0426 736.529C82.4226 743.149 80.7527 749.879 79.1827 756.329C77.1627 764.599 74.6828 770.549 66.7228 774.339C61.5928 776.789 55.8527 778.789 50.3927 780.399C46.9027 781.429 43.1726 781.529 39.7726 782.509C36.8526 783.359 34.4828 784.409 36.4828 787.499C39.1928 791.709 49.3226 790.559 53.8326 791.689C59.2626 793.049 65.6528 795.619 68.7228 800.609C72.6728 807.019 71.1027 815.599 72.1627 822.699C72.5627 825.429 74.3426 837.089 79.0426 835.139C81.6626 834.049 80.9527 820.679 81.6327 818.139C84.2327 808.399 90.8526 794.519 101.603 791.539C108.323 789.679 115.393 788.919 122.493 788.649C124.733 788.569 130.773 789.069 131.193 785.909C131.883 780.679 116.223 779.129 112.933 778.209C106.593 776.439 102.703 772.319 99.9925 766.219C96.5625 758.489 94.0927 750.379 92.1327 742.159C91.1327 737.969 90.2627 733.759 89.4327 729.529C89.0327 727.469 88.7226 721.649 86.7926 720.399C86.5026 720.209 86.1726 720.089 85.8326 720.019H85.8226Z" fill="#F658A8"/>
<path fill-rule="evenodd" clip-rule="evenodd" d="M498.221 60.061C497.081 59.831 495.761 60.241 495.211 61.311C492.921 65.811 495.891 71.781 495.441 76.571C494.821 83.191 493.151 89.921 491.581 96.371C489.561 104.641 487.081 110.591 479.121 114.381C473.991 116.831 468.251 118.831 462.791 120.441C459.301 121.471 455.571 121.571 452.171 122.551C449.251 123.401 446.881 124.451 448.881 127.541C451.591 131.751 461.721 130.601 466.231 131.731C471.661 133.091 478.051 135.661 481.121 140.651C485.071 147.061 483.501 155.641 484.561 162.741C484.961 165.471 486.741 177.131 491.441 175.181C494.061 174.091 493.351 160.721 494.031 158.181C496.631 148.441 503.251 134.561 514.001 131.581C520.721 129.721 527.791 128.961 534.891 128.691C537.131 128.611 543.171 129.111 543.591 125.951C544.281 120.721 528.621 119.171 525.331 118.251C518.991 116.481 515.101 112.361 512.391 106.261C508.961 98.5309 506.491 90.4209 504.531 82.2009C503.531 78.0109 502.661 73.801 501.831 69.571C501.431 67.511 501.121 61.691 499.191 60.441C498.901 60.251 498.571 60.131 498.231 60.061H498.221Z" fill="#F658A8"/>
<path fill-rule="evenodd" clip-rule="evenodd" d="M849.221 524.061C848.081 523.831 846.761 524.241 846.211 525.311C843.921 529.811 846.891 535.781 846.441 540.571C845.821 547.191 844.151 553.921 842.581 560.371C840.561 568.641 838.081 574.591 830.121 578.381C824.991 580.831 819.251 582.831 813.791 584.441C810.301 585.471 806.571 585.571 803.171 586.551C800.251 587.401 797.881 588.451 799.881 591.541C802.591 595.751 812.721 594.601 817.231 595.731C822.661 597.091 829.051 599.661 832.121 604.651C836.071 611.061 834.501 619.641 835.561 626.741C835.961 629.471 837.741 641.131 842.441 639.181C845.061 638.091 844.351 624.721 845.031 622.181C847.631 612.441 854.251 598.561 865.001 595.581C871.721 593.721 878.791 592.961 885.891 592.691C888.131 592.611 894.171 593.111 894.591 589.951C895.281 584.721 879.621 583.171 876.331 582.251C869.991 580.481 866.101 576.361 863.391 570.261C859.961 562.531 857.491 554.421 855.531 546.201C854.531 542.011 853.661 537.801 852.831 533.571C852.431 531.511 852.121 525.691 850.191 524.441C849.901 524.251 849.571 524.131 849.231 524.061H849.221Z" fill="#F658A8"/>
<path fill-rule="evenodd" clip-rule="evenodd" d="M1401.22 835.061C1400.08 834.831 1398.76 835.241 1398.21 836.311C1395.92 840.811 1398.89 846.781 1398.44 851.571C1397.82 858.191 1396.15 864.921 1394.58 871.371C1392.56 879.641 1390.08 885.591 1382.12 889.381C1376.99 891.831 1371.25 893.831 1365.79 895.441C1362.3 896.471 1358.57 896.571 1355.17 897.551C1352.25 898.401 1349.88 899.451 1351.88 902.541C1354.59 906.751 1364.72 905.601 1369.23 906.731C1374.66 908.091 1381.05 910.661 1384.12 915.651C1388.07 922.061 1386.5 930.641 1387.56 937.741C1387.96 940.471 1389.74 952.131 1394.44 950.181C1397.06 949.091 1396.35 935.721 1397.03 933.181C1399.63 923.441 1406.25 909.561 1417 906.581C1423.72 904.721 1430.79 903.961 1437.89 903.691C1440.13 903.611 1446.17 904.111 1446.59 900.951C1447.28 895.721 1431.62 894.171 1428.33 893.251C1421.99 891.481 1418.1 887.361 1415.39 881.261C1411.96 873.531 1409.49 865.421 1407.53 857.201C1406.53 853.011 1405.66 848.801 1404.83 844.571C1404.43 842.511 1404.12 836.691 1402.19 835.441C1401.9 835.251 1401.57 835.131 1401.23 835.061H1401.22Z" fill="#F658A8"/>
<g clip-path="url(#clip1_1433_37098)">
<path d="M1090.41 685.304C1090.41 677.635 1096.63 671.419 1104.3 671.419H1187.61C1195.27 671.419 1201.49 677.635 1201.49 685.304V713.075H1090.41V685.304ZM1111.24 699.19C1115.08 699.19 1118.18 696.087 1118.18 692.247C1118.18 688.407 1115.08 685.304 1111.24 685.304C1107.4 685.304 1104.3 688.407 1104.3 692.247C1104.3 696.087 1107.4 699.19 1111.24 699.19ZM1130.33 687.04C1127.45 687.04 1125.12 689.361 1125.12 692.247C1125.12 695.133 1127.45 697.454 1130.33 697.454H1182.4C1185.29 697.454 1187.61 695.133 1187.61 692.247C1187.61 689.361 1185.29 687.04 1182.4 687.04H1130.33Z" fill="#241EC9"/>
<path d="M1118.18 692.247C1118.18 696.087 1115.08 699.189 1111.24 699.189C1107.4 699.189 1104.3 696.087 1104.3 692.247C1104.3 688.406 1107.4 685.304 1111.24 685.304C1115.08 685.304 1118.18 688.406 1118.18 692.247ZM1104.3 768.616C1096.63 768.616 1090.41 762.389 1090.41 754.731V713.075H1201.49V754.731C1201.49 762.389 1195.27 768.616 1187.61 768.616H1104.3Z" fill="#C5C5E0"/>
</g>
<g clip-path="url(#clip2_1433_37098)">
<path d="M227.4 567.159H151.577C146.909 567.159 142.992 571.075 142.992 575.907V640.065C142.992 644.897 146.909 648.814 151.577 648.814H227.4C232.232 648.814 236.149 644.897 236.149 640.065V575.907C236.149 571.075 232.394 567.159 227.4 567.159ZM163.242 635.691C163.242 636.496 162.589 637.149 161.784 637.149H153.035C152.23 637.149 151.577 636.496 151.577 635.691V626.942C151.577 626.137 152.23 625.484 153.035 625.484H161.62C162.425 625.484 163.078 626.137 163.078 626.942L163.242 635.691ZM163.242 612.361C163.242 613.166 162.589 613.819 161.784 613.819H153.035C152.23 613.819 151.577 613.166 151.577 612.361V603.612C151.577 602.807 152.23 602.154 153.035 602.154H161.62C162.425 602.154 163.078 602.807 163.078 603.612V612.361H163.242ZM163.242 589.031C163.242 589.836 162.589 590.489 161.784 590.489H153.035C152.23 590.489 151.577 589.836 151.577 589.031V580.282C151.577 579.476 152.23 578.824 153.035 578.824H161.62C162.425 578.824 163.078 579.476 163.078 580.282L163.242 589.031ZM206.986 634.233C206.986 635.843 205.68 637.149 204.07 637.149H174.907C173.297 637.149 171.991 635.843 171.991 634.233V616.735C171.991 615.125 173.297 613.819 174.907 613.819H204.07C205.68 613.819 206.986 615.125 206.986 616.735V634.233ZM206.986 599.237C206.986 600.848 205.68 602.154 204.07 602.154H174.907C173.297 602.154 171.991 600.848 171.991 599.237V581.74C171.991 580.129 173.297 578.824 174.907 578.824H204.07C205.68 578.824 206.986 580.129 206.986 581.74V599.237ZM227.4 635.691C227.4 636.496 226.747 637.149 225.942 637.149H217.357C216.552 637.149 216.063 636.496 216.063 635.691V626.942C216.063 626.137 216.716 625.484 217.521 625.484H226.106C226.911 625.484 227.564 626.137 227.564 626.942V635.691H227.4ZM227.4 612.361C227.4 613.166 226.747 613.819 225.942 613.819H217.357C216.552 613.819 215.899 613.166 215.899 612.361V603.612C215.899 602.807 216.552 602.154 217.357 602.154H225.942C226.747 602.154 227.4 602.807 227.4 603.612V612.361ZM227.4 589.031C227.4 589.836 226.747 590.489 225.942 590.489H217.357C216.552 590.489 215.899 589.836 215.899 589.031V580.282C215.899 579.476 216.552 578.824 217.193 578.824H225.778C226.583 578.824 227.236 579.476 227.236 580.282V589.031H227.4Z" fill="#241EC9"/>
<path opacity="0.4" d="M204.069 613.819H174.907C173.296 613.819 171.99 615.124 171.99 616.735V634.232C171.99 635.843 173.296 637.149 174.907 637.149H204.069C205.68 637.149 206.985 635.843 206.985 634.232V616.735C206.985 615.131 205.837 613.819 204.069 613.819ZM204.069 578.823H174.907C173.296 578.823 171.99 580.129 171.99 581.74V599.237C171.99 600.848 173.296 602.154 174.907 602.154H204.069C205.68 602.154 206.985 600.848 206.985 599.237V581.74C206.985 580.136 205.837 578.823 204.069 578.823Z" fill="#241EC9"/>
</g>
<g clip-path="url(#clip3_1433_37098)">
<path d="M719.293 396.644C718.625 397.883 717.339 398.645 715.933 398.645H632.537C631.102 398.645 629.789 397.84 629.139 396.56C628.488 395.281 628.611 393.746 629.457 392.586L646.136 369.711C646.855 368.717 647.999 368.145 649.214 368.145C650.429 368.145 651.577 368.727 652.295 369.712L660.03 380.318L682.261 347.173C682.979 345.914 684.17 345.27 685.433 345.27C686.696 345.27 687.899 345.907 688.604 346.968L719.104 392.718C719.888 393.88 719.96 395.381 719.293 396.644Z" fill="#241EC9"/>
<path opacity="0.4" d="M723.562 307.146H624.438C618.121 307.146 613 312.266 613 318.583V402.458C613 408.773 618.121 413.896 624.438 413.896H723.562C729.879 413.896 735 408.775 735 402.458V318.583C735 312.266 729.877 307.146 723.562 307.146ZM639.473 322.396C645.79 322.396 650.911 327.516 650.911 333.833C650.911 340.15 646.002 345.271 639.473 345.271C632.944 345.271 628.036 340.15 628.036 333.833C628.036 327.516 633.368 322.396 639.473 322.396ZM719.297 396.644C718.63 397.883 717.343 398.646 715.938 398.646H632.541C631.107 398.646 629.794 397.84 629.144 396.561C628.493 395.282 628.616 393.747 629.461 392.586L646.141 369.711C646.86 368.717 648.004 368.146 649.219 368.146C650.434 368.146 651.582 368.727 652.3 369.712L660.034 380.318L682.266 347.173C682.983 345.914 684.175 345.271 685.438 345.271C686.7 345.271 687.904 345.907 688.609 346.968L719.109 392.718C719.893 393.88 719.964 395.381 719.297 396.644Z" fill="#241EC9"/>
</g>
<g clip-path="url(#clip4_1433_37098)">
<path d="M425.059 910.007C428.306 910.007 430.94 907.373 430.94 904.126V876.679C430.94 873.432 428.306 870.798 425.059 870.798C421.812 870.798 419.177 873.432 419.177 876.679V904.126C419.177 907.385 421.824 910.007 425.059 910.007ZM425.059 917.849C420.728 917.849 417.217 921.361 417.217 925.691C417.217 930.021 420.728 933.533 425.059 933.533C429.389 933.533 432.9 930.021 432.9 925.691C432.9 921.353 429.396 917.849 425.059 917.849Z" fill="#241EC9"/>
<path d="M471.885 851.192H377.783C369.145 851.192 362.1 858.238 362.1 866.655V937.011C362.1 945.65 369.145 952.475 377.783 952.475H401.309V972.839C401.309 975.228 404.066 976.625 405.994 975.216L436.602 952.254H471.89C480.529 952.254 487.574 945.209 487.574 936.791V866.655C487.569 858.238 480.732 851.192 471.885 851.192ZM419.173 876.678C419.173 873.431 421.82 870.797 425.055 870.797C428.29 870.797 430.936 873.431 430.936 876.678V904.125C430.936 907.372 428.302 910.006 425.055 910.006C421.808 910.006 419.173 907.384 419.173 904.125V876.678ZM425.055 933.532C420.725 933.532 417.213 930.02 417.213 925.69C417.213 921.36 420.725 917.848 425.055 917.848C429.385 917.848 432.897 921.36 432.897 925.69C432.897 930.027 429.392 933.532 425.055 933.532Z" fill="#C5C5E0"/>
</g>
<g clip-path="url(#clip5_1433_37098)">
<path d="M862.58 941.47C866.408 941.47 869.521 944.577 869.521 948.41V983.111C869.521 986.938 866.408 990.051 862.58 990.051H820.94C817.107 990.051 814 986.938 814 983.111V948.41C814 944.577 817.107 941.47 820.94 941.47H862.58ZM862.58 948.41H820.94V983.111H862.58V948.41Z" fill="#241EC9"/>
<path opacity="0.4" d="M862.582 955.35V962.29H834.822V983.11H827.881V962.29H820.941V955.35H862.582Z" fill="#241EC9"/>
</g>
<rect x="507" y="559" width="126.904" height="118.973" rx="31.73" fill="white"/>
<path d="M573.384 638.089L557.769 596.449C557.357 595.093 556.056 594.194 554.613 594.194C553.171 594.194 551.87 595.093 551.36 596.444L535.745 638.085C535.072 639.881 535.982 641.88 537.776 642.555C539.571 643.219 541.569 642.321 542.244 640.525L545.303 632.365H563.911L566.97 640.525C567.507 641.917 568.819 642.774 570.229 642.774C570.633 642.774 571.045 642.703 571.446 642.554C573.243 641.885 574.154 639.878 573.384 638.089ZM547.912 625.424L554.613 607.542L561.317 625.424H547.912Z" fill="#2721C9"/>
<path opacity="0.4" d="M601.909 608.075C600.484 608.075 599.267 608.936 598.732 610.164C596.618 608.866 594.156 608.075 591.499 608.075C583.846 608.075 577.619 614.3 577.619 621.955L577.619 628.887C577.619 636.542 583.846 642.778 591.402 642.778C594.06 642.778 596.521 641.99 598.635 640.69C599.263 641.918 600.489 642.775 601.909 642.775C603.825 642.775 605.379 641.223 605.379 639.305V611.545C605.379 609.625 603.829 608.075 601.909 608.075ZM598.439 628.895C598.439 632.721 595.327 635.835 591.499 635.835C587.671 635.835 584.559 632.721 584.559 628.895V621.955C584.559 618.129 587.671 615.112 591.499 615.112C595.327 615.112 598.439 618.227 598.439 621.955V628.895Z" fill="#2721C9"/>
<rect x="365.869" y="330.87" width="126.904" height="126.904" rx="31.726" transform="rotate(-180 365.869 330.87)" fill="url(#paint1_linear_1433_37098)"/>
<g clip-path="url(#clip6_1433_37098)">
<path d="M278.622 255.521C274.247 255.521 270.691 259.077 270.691 263.452V291.212C270.691 295.587 274.247 299.144 278.622 299.144H326.211C330.592 299.144 334.143 295.587 334.143 291.212V263.452C334.143 259.077 330.592 255.521 326.211 255.521H278.622Z" fill="white"/>
<path opacity="0.4" d="M279.611 251.555H325.217C326.859 251.555 328.191 250.229 328.191 248.58C328.191 246.938 326.859 245.606 325.217 245.606H279.611C277.963 245.606 276.637 246.938 276.637 248.58C276.637 250.229 277.963 251.555 279.611 251.555ZM285.56 241.64H319.268C320.917 241.64 322.243 240.308 322.243 238.666C322.243 237.024 320.917 235.692 319.268 235.692H285.56C283.911 235.692 282.585 237.024 282.585 238.666C282.585 240.308 283.911 241.64 285.56 241.64Z" fill="white"/>
</g>
</g>
<defs>
<linearGradient id="paint0_linear_1433_37098" x1="1456.61" y1="525.999" x2="0.613326" y2="1111" gradientUnits="userSpaceOnUse">
<stop stop-color="#EBB9AE"/>
<stop offset="0.442708" stop-color="#D57BFF"/>
<stop offset="1" stop-color="#241EC9"/>
</linearGradient>
<linearGradient id="paint1_linear_1433_37098" x1="538.379" y1="457.774" x2="6.96846" y2="88.9589" gradientUnits="userSpaceOnUse">
<stop stop-color="#3300D9"/>
<stop offset="0.494792" stop-color="#9D20C9"/>
<stop offset="0.963328" stop-color="#DF7A6C"/>
</linearGradient>
<clipPath id="clip0_1433_37098">
<rect width="1789" height="2236" fill="white" transform="matrix(-1 0 0 1 1789.35 0)"/>
</clipPath>
<clipPath id="clip1_1433_37098">
<rect width="111.083" height="111.083" fill="white" transform="translate(1090.41 664.476)"/>
</clipPath>
<clipPath id="clip2_1433_37098">
<rect width="93.3205" height="93.3205" fill="white" transform="translate(142.992 561.326)"/>
</clipPath>
<clipPath id="clip3_1433_37098">
<rect width="122" height="122" fill="white" transform="translate(613 299.521)"/>
</clipPath>
<clipPath id="clip4_1433_37098">
<rect width="124.587" height="124.587" fill="white" transform="translate(362.092 851.193)"/>
</clipPath>
<clipPath id="clip5_1433_37098">
<rect width="55.5205" height="55.5205" fill="white" transform="translate(814 938)"/>
</clipPath>
<clipPath id="clip6_1433_37098">
<rect width="63.4521" height="63.4521" fill="white" transform="matrix(-1 0 0 1 334.143 235.692)"/>
</clipPath>
</defs>
</svg>
